%TF.GenerationSoftware,KiCad,Pcbnew,7.0.10*%
%TF.CreationDate,2024-02-14T22:25:51-08:00*%
%TF.ProjectId,pcb_lab,7063625f-6c61-4622-9e6b-696361645f70,rev?*%
%TF.SameCoordinates,Original*%
%TF.FileFunction,Soldermask,Top*%
%TF.FilePolarity,Negative*%
%FSLAX46Y46*%
G04 Gerber Fmt 4.6, Leading zero omitted, Abs format (unit mm)*
G04 Created by KiCad (PCBNEW 7.0.10) date 2024-02-14 22:25:51*
%MOMM*%
%LPD*%
G01*
G04 APERTURE LIST*
G04 Aperture macros list*
%AMRoundRect*
0 Rectangle with rounded corners*
0 $1 Rounding radius*
0 $2 $3 $4 $5 $6 $7 $8 $9 X,Y pos of 4 corners*
0 Add a 4 corners polygon primitive as box body*
4,1,4,$2,$3,$4,$5,$6,$7,$8,$9,$2,$3,0*
0 Add four circle primitives for the rounded corners*
1,1,$1+$1,$2,$3*
1,1,$1+$1,$4,$5*
1,1,$1+$1,$6,$7*
1,1,$1+$1,$8,$9*
0 Add four rect primitives between the rounded corners*
20,1,$1+$1,$2,$3,$4,$5,0*
20,1,$1+$1,$4,$5,$6,$7,0*
20,1,$1+$1,$6,$7,$8,$9,0*
20,1,$1+$1,$8,$9,$2,$3,0*%
G04 Aperture macros list end*
%ADD10RoundRect,0.237500X0.237500X-0.300000X0.237500X0.300000X-0.237500X0.300000X-0.237500X-0.300000X0*%
%ADD11RoundRect,0.237500X-0.237500X0.250000X-0.237500X-0.250000X0.237500X-0.250000X0.237500X0.250000X0*%
%ADD12RoundRect,0.237500X-0.237500X0.300000X-0.237500X-0.300000X0.237500X-0.300000X0.237500X0.300000X0*%
%ADD13C,2.340000*%
%ADD14RoundRect,0.250000X0.375000X0.275000X-0.375000X0.275000X-0.375000X-0.275000X0.375000X-0.275000X0*%
%ADD15RoundRect,0.237500X0.300000X0.237500X-0.300000X0.237500X-0.300000X-0.237500X0.300000X-0.237500X0*%
%ADD16O,1.600000X2.000000*%
%ADD17RoundRect,0.250000X-0.600000X-0.725000X0.600000X-0.725000X0.600000X0.725000X-0.600000X0.725000X0*%
%ADD18O,1.700000X1.950000*%
%ADD19C,1.700000*%
%ADD20R,0.300000X0.750000*%
%ADD21R,1.500000X1.300000*%
%ADD22O,1.778000X3.556000*%
%ADD23RoundRect,0.150000X-0.512500X-0.150000X0.512500X-0.150000X0.512500X0.150000X-0.512500X0.150000X0*%
%ADD24RoundRect,0.237500X-0.300000X-0.237500X0.300000X-0.237500X0.300000X0.237500X-0.300000X0.237500X0*%
%ADD25RoundRect,0.250001X1.099999X-1.099999X1.099999X1.099999X-1.099999X1.099999X-1.099999X-1.099999X0*%
%ADD26C,2.700000*%
%ADD27RoundRect,0.237500X0.237500X-0.287500X0.237500X0.287500X-0.237500X0.287500X-0.237500X-0.287500X0*%
%ADD28R,1.600000X1.600000*%
%ADD29C,1.600000*%
%ADD30R,1.700000X1.700000*%
%ADD31O,1.700000X1.700000*%
%ADD32C,1.250000*%
%ADD33RoundRect,0.250000X0.725000X-0.600000X0.725000X0.600000X-0.725000X0.600000X-0.725000X-0.600000X0*%
%ADD34O,1.950000X1.700000*%
%ADD35RoundRect,0.250001X-1.099999X1.099999X-1.099999X-1.099999X1.099999X-1.099999X1.099999X1.099999X0*%
G04 APERTURE END LIST*
D10*
%TO.C,C2*%
X81432400Y-108284500D03*
X81432400Y-106559500D03*
%TD*%
D11*
%TO.C,R1*%
X105791000Y-87503000D03*
X105791000Y-89328000D03*
%TD*%
D12*
%TO.C,C3*%
X94996000Y-50094500D03*
X94996000Y-51819500D03*
%TD*%
D13*
%TO.C,RV1*%
X87630000Y-57992000D03*
X87630000Y-62992000D03*
X87630000Y-67992000D03*
%TD*%
D14*
%TO.C,C5*%
X144247700Y-88650700D03*
X142647700Y-88650700D03*
%TD*%
D15*
%TO.C,C6*%
X144330200Y-91698700D03*
X142605200Y-91698700D03*
%TD*%
D16*
%TO.C,Brd1*%
X108648000Y-51042000D03*
X111188000Y-51042000D03*
X113728000Y-51042000D03*
X116268000Y-51042000D03*
%TD*%
D17*
%TO.C,SW1*%
X82793200Y-113010600D03*
D18*
X85293200Y-113010600D03*
X87793200Y-113010600D03*
%TD*%
D19*
%TO.C,M1*%
X145034000Y-51562000D03*
X152654000Y-51562000D03*
X152654000Y-74422000D03*
X145034000Y-74422000D03*
%TD*%
D20*
%TO.C,U3*%
X143963700Y-94439700D03*
X143463700Y-94439700D03*
X142963700Y-94439700D03*
X142463700Y-94439700D03*
X142463700Y-97339700D03*
X142963700Y-97339700D03*
X143463700Y-97339700D03*
X143963700Y-97339700D03*
D21*
X143213700Y-95889700D03*
%TD*%
D22*
%TO.C,U1*%
X78740000Y-101041200D03*
X81280000Y-101041200D03*
X83820000Y-101041200D03*
X86360000Y-101041200D03*
X88900000Y-101041200D03*
X91440000Y-101041200D03*
X93980000Y-101041200D03*
X78740000Y-84277200D03*
X81280000Y-84277200D03*
X83820000Y-84277200D03*
X86360000Y-84277200D03*
X88900000Y-84277200D03*
X91440000Y-84277200D03*
X93980000Y-84277200D03*
%TD*%
D23*
%TO.C,U4*%
X146902200Y-94558700D03*
X146902200Y-95508700D03*
X146902200Y-96458700D03*
X149177200Y-96458700D03*
X149177200Y-95508700D03*
X149177200Y-94558700D03*
%TD*%
D24*
%TO.C,C7*%
X147177200Y-99318700D03*
X148902200Y-99318700D03*
%TD*%
D10*
%TO.C,C1*%
X83972400Y-108284500D03*
X83972400Y-106559500D03*
%TD*%
D25*
%TO.C,LS1*%
X158513300Y-96313000D03*
D26*
X158513300Y-91313000D03*
%TD*%
D27*
%TO.C,D2*%
X105791000Y-93331000D03*
X105791000Y-91581000D03*
%TD*%
D28*
%TO.C,C8*%
X150980300Y-112389200D03*
D29*
X148480300Y-112389200D03*
%TD*%
D30*
%TO.C,D1*%
X143400300Y-104013000D03*
D31*
X145940300Y-104013000D03*
X148480300Y-104013000D03*
X151020300Y-104013000D03*
%TD*%
D32*
%TO.C,BT1*%
X95682000Y-114310600D03*
D33*
X97282000Y-112710600D03*
D34*
X97282000Y-110210600D03*
%TD*%
D35*
%TO.C,J1*%
X101939000Y-98179500D03*
D26*
X101939000Y-103179500D03*
%TD*%
M02*
