%TF.GenerationSoftware,KiCad,Pcbnew,7.0.10*%
%TF.CreationDate,2024-02-05T19:05:00-08:00*%
%TF.ProjectId,pcb_lab,7063625f-6c61-4622-9e6b-696361645f70,rev?*%
%TF.SameCoordinates,Original*%
%TF.FileFunction,Copper,L1,Top*%
%TF.FilePolarity,Positive*%
%FSLAX46Y46*%
G04 Gerber Fmt 4.6, Leading zero omitted, Abs format (unit mm)*
G04 Created by KiCad (PCBNEW 7.0.10) date 2024-02-05 19:05:00*
%MOMM*%
%LPD*%
G01*
G04 APERTURE LIST*
G04 Aperture macros list*
%AMRoundRect*
0 Rectangle with rounded corners*
0 $1 Rounding radius*
0 $2 $3 $4 $5 $6 $7 $8 $9 X,Y pos of 4 corners*
0 Add a 4 corners polygon primitive as box body*
4,1,4,$2,$3,$4,$5,$6,$7,$8,$9,$2,$3,0*
0 Add four circle primitives for the rounded corners*
1,1,$1+$1,$2,$3*
1,1,$1+$1,$4,$5*
1,1,$1+$1,$6,$7*
1,1,$1+$1,$8,$9*
0 Add four rect primitives between the rounded corners*
20,1,$1+$1,$2,$3,$4,$5,0*
20,1,$1+$1,$4,$5,$6,$7,0*
20,1,$1+$1,$6,$7,$8,$9,0*
20,1,$1+$1,$8,$9,$2,$3,0*%
G04 Aperture macros list end*
%TA.AperFunction,SMDPad,CuDef*%
%ADD10RoundRect,0.237500X0.237500X-0.300000X0.237500X0.300000X-0.237500X0.300000X-0.237500X-0.300000X0*%
%TD*%
%TA.AperFunction,SMDPad,CuDef*%
%ADD11RoundRect,0.237500X-0.237500X0.250000X-0.237500X-0.250000X0.237500X-0.250000X0.237500X0.250000X0*%
%TD*%
%TA.AperFunction,SMDPad,CuDef*%
%ADD12RoundRect,0.237500X-0.237500X0.300000X-0.237500X-0.300000X0.237500X-0.300000X0.237500X0.300000X0*%
%TD*%
%TA.AperFunction,ComponentPad*%
%ADD13C,2.340000*%
%TD*%
%TA.AperFunction,SMDPad,CuDef*%
%ADD14RoundRect,0.250000X0.375000X0.275000X-0.375000X0.275000X-0.375000X-0.275000X0.375000X-0.275000X0*%
%TD*%
%TA.AperFunction,SMDPad,CuDef*%
%ADD15RoundRect,0.237500X0.300000X0.237500X-0.300000X0.237500X-0.300000X-0.237500X0.300000X-0.237500X0*%
%TD*%
%TA.AperFunction,ComponentPad*%
%ADD16O,1.600000X2.000000*%
%TD*%
%TA.AperFunction,ComponentPad*%
%ADD17RoundRect,0.250000X-0.600000X-0.725000X0.600000X-0.725000X0.600000X0.725000X-0.600000X0.725000X0*%
%TD*%
%TA.AperFunction,ComponentPad*%
%ADD18O,1.700000X1.950000*%
%TD*%
%TA.AperFunction,ComponentPad*%
%ADD19C,1.700000*%
%TD*%
%TA.AperFunction,SMDPad,CuDef*%
%ADD20R,0.300000X0.750000*%
%TD*%
%TA.AperFunction,SMDPad,CuDef*%
%ADD21R,1.500000X1.300000*%
%TD*%
%TA.AperFunction,ComponentPad*%
%ADD22O,1.778000X3.556000*%
%TD*%
%TA.AperFunction,SMDPad,CuDef*%
%ADD23RoundRect,0.150000X-0.512500X-0.150000X0.512500X-0.150000X0.512500X0.150000X-0.512500X0.150000X0*%
%TD*%
%TA.AperFunction,SMDPad,CuDef*%
%ADD24RoundRect,0.237500X-0.300000X-0.237500X0.300000X-0.237500X0.300000X0.237500X-0.300000X0.237500X0*%
%TD*%
%TA.AperFunction,ComponentPad*%
%ADD25RoundRect,0.250001X1.099999X-1.099999X1.099999X1.099999X-1.099999X1.099999X-1.099999X-1.099999X0*%
%TD*%
%TA.AperFunction,ComponentPad*%
%ADD26C,2.700000*%
%TD*%
%TA.AperFunction,SMDPad,CuDef*%
%ADD27RoundRect,0.237500X0.237500X-0.287500X0.237500X0.287500X-0.237500X0.287500X-0.237500X-0.287500X0*%
%TD*%
%TA.AperFunction,SMDPad,CuDef*%
%ADD28R,0.750000X0.250000*%
%TD*%
%TA.AperFunction,ComponentPad*%
%ADD29R,1.600000X1.600000*%
%TD*%
%TA.AperFunction,ComponentPad*%
%ADD30C,1.600000*%
%TD*%
%TA.AperFunction,ComponentPad*%
%ADD31R,1.700000X1.700000*%
%TD*%
%TA.AperFunction,ComponentPad*%
%ADD32O,1.700000X1.700000*%
%TD*%
%TA.AperFunction,ComponentPad*%
%ADD33RoundRect,0.250000X0.725000X-0.600000X0.725000X0.600000X-0.725000X0.600000X-0.725000X-0.600000X0*%
%TD*%
%TA.AperFunction,ComponentPad*%
%ADD34O,1.950000X1.700000*%
%TD*%
%TA.AperFunction,ComponentPad*%
%ADD35RoundRect,0.250001X-1.099999X1.099999X-1.099999X-1.099999X1.099999X-1.099999X1.099999X1.099999X0*%
%TD*%
%TA.AperFunction,ViaPad*%
%ADD36C,1.016000*%
%TD*%
%TA.AperFunction,ViaPad*%
%ADD37C,0.800000*%
%TD*%
%TA.AperFunction,ViaPad*%
%ADD38C,0.889000*%
%TD*%
%TA.AperFunction,Conductor*%
%ADD39C,0.203200*%
%TD*%
%TA.AperFunction,Conductor*%
%ADD40C,0.635000*%
%TD*%
%TA.AperFunction,Conductor*%
%ADD41C,0.381000*%
%TD*%
%TA.AperFunction,Conductor*%
%ADD42C,0.250000*%
%TD*%
%TA.AperFunction,Conductor*%
%ADD43C,0.508000*%
%TD*%
%TA.AperFunction,Conductor*%
%ADD44C,0.254000*%
%TD*%
%TA.AperFunction,Conductor*%
%ADD45C,0.558800*%
%TD*%
%TA.AperFunction,Conductor*%
%ADD46C,0.304800*%
%TD*%
G04 APERTURE END LIST*
D10*
%TO.P,C2,1*%
%TO.N,Net-(BT1-+)*%
X81432400Y-108284500D03*
%TO.P,C2,2*%
%TO.N,GND*%
X81432400Y-106559500D03*
%TD*%
D11*
%TO.P,R1,1*%
%TO.N,+3.3V*%
X105791000Y-87503000D03*
%TO.P,R1,2*%
%TO.N,Net-(D2-A)*%
X105791000Y-89328000D03*
%TD*%
D12*
%TO.P,C3,1*%
%TO.N,+3.3V*%
X94996000Y-50094500D03*
%TO.P,C3,2*%
%TO.N,GND*%
X94996000Y-51819500D03*
%TD*%
D13*
%TO.P,RV1,1,1*%
%TO.N,+3.3V*%
X87630000Y-57992000D03*
%TO.P,RV1,2,2*%
%TO.N,/Volumn*%
X87630000Y-62992000D03*
%TO.P,RV1,3,3*%
%TO.N,GND*%
X87630000Y-67992000D03*
%TD*%
D14*
%TO.P,C5,1*%
%TO.N,+3.3V*%
X144247700Y-88650700D03*
%TO.P,C5,2*%
%TO.N,GND*%
X142647700Y-88650700D03*
%TD*%
D15*
%TO.P,C6,1*%
%TO.N,+3.3V*%
X144330200Y-91698700D03*
%TO.P,C6,2*%
%TO.N,GND*%
X142605200Y-91698700D03*
%TD*%
D16*
%TO.P,Brd1,1,GND*%
%TO.N,GND*%
X108648000Y-51042000D03*
%TO.P,Brd1,2,VCC*%
%TO.N,+3.3V*%
X111188000Y-51042000D03*
%TO.P,Brd1,3,SCL*%
%TO.N,/SCL*%
X113728000Y-51042000D03*
%TO.P,Brd1,4,SDA*%
%TO.N,/SDA*%
X116268000Y-51042000D03*
%TD*%
D17*
%TO.P,SW1,1,A*%
%TO.N,Net-(BT1-+)*%
X82793200Y-113010600D03*
D18*
%TO.P,SW1,2,B*%
%TO.N,Net-(J1-Pin_2)*%
X85293200Y-113010600D03*
%TO.P,SW1,3,C*%
%TO.N,unconnected-(SW1-C-Pad3)*%
X87793200Y-113010600D03*
%TD*%
D19*
%TO.P,M1,1*%
%TO.N,/M1*%
X145034000Y-51562000D03*
%TO.P,M1,2,-*%
%TO.N,/M2*%
X152654000Y-51562000D03*
%TO.P,M1,3*%
%TO.N,/M3*%
X152654000Y-74422000D03*
%TO.P,M1,4*%
%TO.N,/M4*%
X145034000Y-74422000D03*
%TD*%
D20*
%TO.P,U3,1,Vdd*%
%TO.N,+3.3V*%
X143963700Y-94439700D03*
%TO.P,U3,2,~{CS}*%
%TO.N,/CS*%
X143463700Y-94439700D03*
%TO.P,U3,3,SCK*%
%TO.N,/SCK*%
X142963700Y-94439700D03*
%TO.P,U3,4,SDI*%
%TO.N,/SDI*%
X142463700Y-94439700D03*
%TO.P,U3,5,~{LDAC}*%
%TO.N,GND*%
X142463700Y-97339700D03*
%TO.P,U3,6,Vref*%
%TO.N,+3.3V*%
X142963700Y-97339700D03*
%TO.P,U3,7,Vss*%
%TO.N,GND*%
X143463700Y-97339700D03*
%TO.P,U3,8,Vout*%
%TO.N,Net-(U3-Vout)*%
X143963700Y-97339700D03*
D21*
%TO.P,U3,9,Pad*%
%TO.N,GND*%
X143213700Y-95889700D03*
%TD*%
D22*
%TO.P,U1,1,GPIO1_A0_D0*%
%TO.N,/Volumn*%
X78740000Y-101041200D03*
%TO.P,U1,2,GPIO2_A1_D1*%
%TO.N,/M3*%
X81280000Y-101041200D03*
%TO.P,U1,3,GPIO3_A2_D2*%
%TO.N,/M4*%
X83820000Y-101041200D03*
%TO.P,U1,4,GPIO4_A3_D3*%
%TO.N,/M2*%
X86360000Y-101041200D03*
%TO.P,U1,5,GPIO4_A3_D3_SDA*%
%TO.N,/SDA*%
X88900000Y-101041200D03*
%TO.P,U1,6,GPIO6_A5_D5_SCL*%
%TO.N,/SCL*%
X91440000Y-101041200D03*
%TO.P,U1,7,GPIO43_TX_D6*%
%TO.N,/M1*%
X93980000Y-101041200D03*
%TO.P,U1,8,5V*%
%TO.N,unconnected-(U1-5V-Pad8)*%
X78740000Y-84277200D03*
%TO.P,U1,9,GND*%
%TO.N,GND*%
X81280000Y-84277200D03*
%TO.P,U1,10,3V3*%
%TO.N,+3.3V*%
X83820000Y-84277200D03*
%TO.P,U1,11,GPIO9_A10_D10_COPI*%
%TO.N,/SDI*%
X86360000Y-84277200D03*
%TO.P,U1,12,GPIO8_A9_D9_CIPO*%
%TO.N,unconnected-(U1-GPIO8_A9_D9_CIPO-Pad12)*%
X88900000Y-84277200D03*
%TO.P,U1,13,GPIO7_A8_D8_SCK*%
%TO.N,/SCK*%
X91440000Y-84277200D03*
%TO.P,U1,14,GPIO44_D7_RX*%
%TO.N,/CS*%
X93980000Y-84277200D03*
%TD*%
D23*
%TO.P,U4,1,OUT-*%
%TO.N,Net-(U4-OUT-)*%
X146902200Y-94558700D03*
%TO.P,U4,2,GND*%
%TO.N,GND*%
X146902200Y-95508700D03*
%TO.P,U4,3,IN*%
%TO.N,Net-(U4-IN)*%
X146902200Y-96458700D03*
%TO.P,U4,4,~{SD}*%
%TO.N,+3.3V*%
X149177200Y-96458700D03*
%TO.P,U4,5,VDD*%
X149177200Y-95508700D03*
%TO.P,U4,6,OUT+*%
%TO.N,Net-(U4-OUT+)*%
X149177200Y-94558700D03*
%TD*%
D24*
%TO.P,C7,1*%
%TO.N,Net-(U3-Vout)*%
X147177200Y-99318700D03*
%TO.P,C7,2*%
%TO.N,Net-(U4-IN)*%
X148902200Y-99318700D03*
%TD*%
D10*
%TO.P,C1,1*%
%TO.N,Net-(J1-Pin_2)*%
X83972400Y-108284500D03*
%TO.P,C1,2*%
%TO.N,GND*%
X83972400Y-106559500D03*
%TD*%
D25*
%TO.P,LS1,1,1*%
%TO.N,Net-(U4-OUT+)*%
X158513300Y-96313000D03*
D26*
%TO.P,LS1,2,2*%
%TO.N,Net-(U4-OUT-)*%
X158513300Y-91313000D03*
%TD*%
D27*
%TO.P,D2,1,K*%
%TO.N,GND*%
X105791000Y-93331000D03*
%TO.P,D2,2,A*%
%TO.N,Net-(D2-A)*%
X105791000Y-91581000D03*
%TD*%
D28*
%TO.P,U2,1,B2*%
%TO.N,Net-(D1-CIN)*%
X141170300Y-111639200D03*
%TO.P,U2,2,GND*%
%TO.N,GND*%
X141170300Y-112139200D03*
%TO.P,U2,3,VCCA*%
%TO.N,+3.3V*%
X141170300Y-112639200D03*
%TO.P,U2,4,A2*%
%TO.N,/SCK*%
X141170300Y-113139200D03*
%TO.P,U2,5,A1*%
%TO.N,/SDI*%
X144270300Y-113139200D03*
%TO.P,U2,6,OE*%
%TO.N,/CS*%
X144270300Y-112639200D03*
%TO.P,U2,7,VCCB*%
%TO.N,+3.3V*%
X144270300Y-112139200D03*
%TO.P,U2,8,B1*%
%TO.N,Net-(D1-DIN)*%
X144270300Y-111639200D03*
%TD*%
D29*
%TO.P,C8,1*%
%TO.N,+3.3V*%
X150980300Y-112389200D03*
D30*
%TO.P,C8,2*%
%TO.N,GND*%
X148480300Y-112389200D03*
%TD*%
D31*
%TO.P,D1,1,CIN*%
%TO.N,Net-(D1-CIN)*%
X143400300Y-104013000D03*
D32*
%TO.P,D1,2,DIN*%
%TO.N,Net-(D1-DIN)*%
X145940300Y-104013000D03*
%TO.P,D1,3,GND*%
%TO.N,GND*%
X148480300Y-104013000D03*
%TO.P,D1,4,+5V*%
%TO.N,+3.3V*%
X151020300Y-104013000D03*
%TD*%
D33*
%TO.P,BT1,1,+*%
%TO.N,Net-(BT1-+)*%
X97282000Y-112710600D03*
D34*
%TO.P,BT1,2,-*%
%TO.N,GND*%
X97282000Y-110210600D03*
%TD*%
D35*
%TO.P,J1,1,Pin_1*%
%TO.N,GND*%
X101939000Y-98179500D03*
D26*
%TO.P,J1,2,Pin_2*%
%TO.N,Net-(J1-Pin_2)*%
X101939000Y-103179500D03*
%TD*%
D36*
%TO.N,GND*%
X141351000Y-100203000D03*
X80010000Y-88773000D03*
X81026000Y-87757000D03*
X80010000Y-87757000D03*
X142367000Y-100203000D03*
X141351000Y-101219000D03*
X81026000Y-88773000D03*
X142367000Y-101219000D03*
D37*
%TO.N,/SDA*%
X112776000Y-54864000D03*
D38*
%TO.N,+3.3V*%
X145245300Y-93476700D03*
X151087300Y-94619700D03*
D37*
%TO.N,/SDI*%
X140352300Y-94107000D03*
X140049098Y-114369809D03*
X122428000Y-86487000D03*
%TO.N,/SCK*%
X120713500Y-85598000D03*
X140352300Y-92900500D03*
%TO.N,/CS*%
X140352300Y-91694000D03*
X118999000Y-84709000D03*
%TD*%
D39*
%TO.N,GND*%
X143463700Y-97339700D02*
X143463700Y-96139700D01*
D40*
X146575300Y-102108000D02*
X145178300Y-102108000D01*
D39*
X142463300Y-96639700D02*
X143213300Y-95889700D01*
D40*
X94996000Y-51819500D02*
X94996000Y-60626000D01*
D41*
X143594300Y-95508700D02*
X143213700Y-95889300D01*
D40*
X85598000Y-90805000D02*
X94564500Y-90805000D01*
X83978900Y-106553000D02*
X83972400Y-106559500D01*
D42*
X148861800Y-112343500D02*
X148526000Y-112343500D01*
D40*
X81280000Y-85039200D02*
X81280000Y-86487000D01*
X142853700Y-95889700D02*
X143213700Y-95889700D01*
D43*
X146902200Y-95508700D02*
X143594700Y-95508700D01*
D40*
X148480300Y-104013000D02*
X148480300Y-112389000D01*
D42*
X148526000Y-112343500D02*
X148480300Y-112389200D01*
D44*
X141170300Y-112139200D02*
X140477500Y-112139200D01*
D40*
X101939000Y-98179500D02*
X101939000Y-97183000D01*
X97282000Y-110210600D02*
X91922600Y-110210600D01*
X142296200Y-99225900D02*
X142296200Y-96447200D01*
X148480300Y-104013000D02*
X146575300Y-102108000D01*
X95773500Y-51042000D02*
X94996000Y-51819500D01*
X81280000Y-86487000D02*
X85598000Y-90805000D01*
X108648000Y-51042000D02*
X95773500Y-51042000D01*
D42*
X143213700Y-95889300D02*
X143213700Y-95889700D01*
X143463700Y-96139700D02*
X143213700Y-95889700D01*
D40*
X142296200Y-96447200D02*
X142853700Y-95889700D01*
D42*
X148099300Y-104013000D02*
X148480300Y-104013000D01*
D41*
X143213700Y-95889300D02*
X143213300Y-95889700D01*
D44*
X140477500Y-112139200D02*
X139954000Y-111615700D01*
D40*
X148816300Y-112298000D02*
X148861800Y-112343500D01*
X94996000Y-60626000D02*
X87630000Y-67992000D01*
D42*
X142647700Y-88650700D02*
X142605200Y-88693200D01*
D40*
X148861800Y-112343500D02*
X148907300Y-112389000D01*
X88265000Y-106553000D02*
X83978900Y-106553000D01*
X101939000Y-97183000D02*
X105791000Y-93331000D01*
X94564500Y-90805000D02*
X101939000Y-98179500D01*
D42*
X148480300Y-112389000D02*
X148480300Y-112389200D01*
D44*
X139954000Y-101568100D02*
X142296200Y-99225900D01*
D39*
X142463300Y-97339700D02*
X142463300Y-96639700D01*
X143463300Y-96139700D02*
X143213300Y-95889700D01*
D42*
X142463300Y-97339700D02*
X142463700Y-97339700D01*
D44*
X139954000Y-111615700D02*
X139954000Y-101568100D01*
D40*
X145178300Y-102108000D02*
X142296200Y-99225900D01*
D42*
X142463300Y-97339700D02*
X142463300Y-98377000D01*
X142605200Y-88693200D02*
X142605200Y-91698700D01*
D40*
X91922600Y-110210600D02*
X88265000Y-106553000D01*
D43*
X143594700Y-95508700D02*
X143213700Y-95889700D01*
D40*
X81432400Y-106559500D02*
X83972400Y-106559500D01*
D41*
X146902300Y-95508700D02*
X146902200Y-95508700D01*
%TO.N,/SDA*%
X112776000Y-54864000D02*
X116268000Y-51372000D01*
X116268000Y-51372000D02*
X116268000Y-51042000D01*
D42*
%TO.N,+3.3V*%
X142286750Y-112639200D02*
X141170300Y-112639200D01*
X144270300Y-112139200D02*
X142786750Y-112139200D01*
D40*
X144247500Y-88650900D02*
X144356300Y-88759700D01*
X144356300Y-91672200D02*
X144330300Y-91698700D01*
D42*
X145559300Y-101219000D02*
X148226300Y-101219000D01*
D40*
X150980300Y-112389000D02*
X150980300Y-104053000D01*
X144247300Y-88650700D02*
X144247500Y-88650900D01*
D45*
X149177300Y-95983700D02*
X149177300Y-96458700D01*
D42*
X150980300Y-112435000D02*
X149496300Y-113919000D01*
D45*
X151087300Y-94619700D02*
X150198300Y-95508700D01*
D42*
X142786750Y-112139200D02*
X142286750Y-112639200D01*
X142963700Y-98623400D02*
X145559300Y-101219000D01*
X150980300Y-112389000D02*
X150980300Y-112389200D01*
D40*
X108660000Y-48514000D02*
X111188000Y-51042000D01*
X144247700Y-88494700D02*
X144247700Y-88650700D01*
X150980300Y-104053000D02*
X151020300Y-104013000D01*
D42*
X149177300Y-96458700D02*
X149177200Y-96458700D01*
X145676100Y-112139200D02*
X144270300Y-112139200D01*
D40*
X83820000Y-61802000D02*
X87630000Y-57992000D01*
X89436500Y-77187500D02*
X132940500Y-77187500D01*
X87630000Y-53975000D02*
X91510500Y-50094500D01*
X87630000Y-57992000D02*
X87630000Y-53975000D01*
D42*
X147455900Y-113919000D02*
X145676100Y-112139200D01*
X143963700Y-94439700D02*
X144131300Y-94439700D01*
D45*
X145245300Y-93476700D02*
X144282300Y-94439700D01*
D40*
X104013000Y-87503000D02*
X102108000Y-89408000D01*
X105791000Y-87503000D02*
X104013000Y-87503000D01*
X151381800Y-112363500D02*
X151407300Y-112389000D01*
X144330300Y-91698700D02*
X144330300Y-92561200D01*
X144330300Y-92561200D02*
X145245300Y-93476700D01*
D42*
X149496300Y-113919000D02*
X147455900Y-113919000D01*
D40*
X83820000Y-85039200D02*
X83820000Y-61802000D01*
X102108000Y-89408000D02*
X86614000Y-89408000D01*
D45*
X144282300Y-94439700D02*
X144131300Y-94439700D01*
D40*
X132940500Y-77187500D02*
X144247700Y-88494700D01*
D42*
X149177200Y-95508700D02*
X149177300Y-95508700D01*
D40*
X91510500Y-50094500D02*
X94996000Y-50094500D01*
X86614000Y-89408000D02*
X83820000Y-86614000D01*
X149177300Y-96458700D02*
X151020300Y-98301700D01*
D42*
X144330200Y-91698700D02*
X144330300Y-91698700D01*
D39*
X144356300Y-91725200D02*
X144330300Y-91698700D01*
D40*
X83820000Y-82804000D02*
X89436500Y-77187500D01*
D42*
X151006000Y-112363500D02*
X150980300Y-112389200D01*
D45*
X149177300Y-95508700D02*
X149177300Y-95983700D01*
D40*
X96576500Y-48514000D02*
X108660000Y-48514000D01*
X83820000Y-86614000D02*
X83820000Y-85039200D01*
X83820000Y-85039200D02*
X83820000Y-82804000D01*
X144356300Y-88759700D02*
X144356300Y-91672200D01*
D42*
X148226300Y-101219000D02*
X151020300Y-104013000D01*
X150980300Y-112389200D02*
X150980300Y-112435000D01*
D40*
X151356300Y-112338000D02*
X151381800Y-112363500D01*
D42*
X151381800Y-112363500D02*
X151006000Y-112363500D01*
D45*
X150198300Y-95508700D02*
X149177300Y-95508700D01*
D42*
X142963700Y-97339700D02*
X142963700Y-98623400D01*
D40*
X94996000Y-50094500D02*
X96576500Y-48514000D01*
D42*
X144247700Y-88650700D02*
X144247500Y-88650900D01*
D40*
X151020300Y-98301700D02*
X151020300Y-104013000D01*
D46*
%TO.N,Net-(U3-Vout)*%
X145198300Y-97339700D02*
X147177200Y-99318600D01*
X143963300Y-97339700D02*
X143963700Y-97339700D01*
X143963700Y-97339700D02*
X145198300Y-97339700D01*
D42*
X147177200Y-99318600D02*
X147177200Y-99318700D01*
D46*
X147177200Y-99318600D02*
X147177300Y-99318700D01*
D42*
%TO.N,Net-(U4-IN)*%
X146902200Y-96458700D02*
X146902300Y-96458800D01*
X146902300Y-96458800D02*
X146902300Y-96657200D01*
D46*
X148902300Y-98657200D02*
X148902300Y-99030700D01*
X148902300Y-99030700D02*
X148902300Y-99318700D01*
X146902300Y-96657200D02*
X148902300Y-98657200D01*
D42*
X148902300Y-99030700D02*
X148902200Y-99030800D01*
X148902200Y-99030800D02*
X148902200Y-99318700D01*
D46*
%TO.N,Net-(D1-CIN)*%
X143400300Y-109409000D02*
X141170300Y-111639000D01*
D42*
X141170300Y-111639000D02*
X141170300Y-111639200D01*
D46*
X143400300Y-104013000D02*
X143400300Y-109409000D01*
D42*
%TO.N,Net-(D1-DIN)*%
X144270300Y-111639000D02*
X144270300Y-111639200D01*
D46*
X145940300Y-109969000D02*
X144270300Y-111639000D01*
X145940300Y-104013000D02*
X145940300Y-109969000D01*
D40*
%TO.N,Net-(D2-A)*%
X105791000Y-91581000D02*
X105791000Y-89328000D01*
%TO.N,Net-(U4-OUT+)*%
X149177300Y-94558700D02*
X149860000Y-93876200D01*
X155067300Y-92867100D02*
X158513300Y-96313000D01*
X150869300Y-92867100D02*
X155067300Y-92867100D01*
X149860000Y-93876200D02*
X150869300Y-92867100D01*
D42*
X149859700Y-93876200D02*
X149177200Y-94558700D01*
X149860000Y-93876200D02*
X149859700Y-93876200D01*
D40*
%TO.N,Net-(U4-OUT-)*%
X146902300Y-94558700D02*
X147658200Y-93802900D01*
X150148300Y-91313000D02*
X158513300Y-91313000D01*
X147658200Y-93802900D02*
X150148300Y-91313000D01*
D42*
X147658000Y-93802900D02*
X146902200Y-94558700D01*
X147658200Y-93802900D02*
X147658000Y-93802900D01*
D44*
%TO.N,/SDI*%
X140049098Y-114369809D02*
X142187491Y-114369809D01*
X142131000Y-94107000D02*
X140352300Y-94107000D01*
X143418100Y-113139200D02*
X144270300Y-113139200D01*
X122428000Y-86487000D02*
X103124000Y-86487000D01*
X88519000Y-87884000D02*
X86360000Y-85725000D01*
X86360000Y-85725000D02*
X86360000Y-85039200D01*
X142463700Y-94439700D02*
X142131000Y-94107000D01*
X103124000Y-86487000D02*
X101727000Y-87884000D01*
X101727000Y-87884000D02*
X88519000Y-87884000D01*
X142187491Y-114369809D02*
X143418100Y-113139200D01*
D42*
%TO.N,/SCK*%
X139209300Y-111760000D02*
X139209300Y-93980000D01*
X140588500Y-113139200D02*
X139209300Y-111760000D01*
X91440000Y-85979000D02*
X91440000Y-85039200D01*
X92583000Y-87122000D02*
X91440000Y-85979000D01*
X120904000Y-85598000D02*
X102997000Y-85598000D01*
X102997000Y-85598000D02*
X101473000Y-87122000D01*
X141170300Y-113139200D02*
X140588500Y-113139200D01*
X140860300Y-93345000D02*
X142511300Y-93345000D01*
X142963700Y-93797400D02*
X142963700Y-94439700D01*
X142511300Y-93345000D02*
X142963700Y-93797400D01*
X101473000Y-87122000D02*
X92583000Y-87122000D01*
X139209300Y-93980000D02*
X140352300Y-92837000D01*
X140352300Y-92837000D02*
X140860300Y-93345000D01*
%TO.N,/CS*%
X142765300Y-92837000D02*
X143463700Y-93535400D01*
X141558800Y-92837000D02*
X142765300Y-92837000D01*
D44*
X138574300Y-112014000D02*
X140225300Y-113665000D01*
D42*
X140453000Y-91694000D02*
X140453000Y-91731200D01*
D44*
X140225300Y-113665000D02*
X142066800Y-113665000D01*
D42*
X102870000Y-84709000D02*
X101346000Y-86233000D01*
X143463700Y-93535400D02*
X143463700Y-94439700D01*
D39*
X140411500Y-91694000D02*
X140411500Y-91698300D01*
D42*
X118999000Y-84709000D02*
X102870000Y-84709000D01*
X140453000Y-91731200D02*
X141558800Y-92837000D01*
X95173800Y-86233000D02*
X93980000Y-85039200D01*
D44*
X142066800Y-113665000D02*
X143092600Y-112639200D01*
X140411500Y-91698300D02*
X138574300Y-93535500D01*
D39*
X144270300Y-112639200D02*
X143667100Y-112639200D01*
D44*
X138574300Y-93535500D02*
X138574300Y-93599000D01*
X138574300Y-93599000D02*
X138574300Y-112014000D01*
D42*
X101346000Y-86233000D02*
X95173800Y-86233000D01*
D44*
X143092600Y-112639200D02*
X144270300Y-112639200D01*
D41*
%TO.N,Net-(BT1-+)*%
X81432400Y-108284000D02*
X81432400Y-108235000D01*
D40*
X95320800Y-112711000D02*
X97281600Y-112711000D01*
X97281600Y-112711000D02*
X97282000Y-112711000D01*
X92786200Y-115245000D02*
X95320800Y-112711000D01*
X82793200Y-113010600D02*
X82793200Y-114015000D01*
X82793200Y-111170000D02*
X82793200Y-113010600D01*
D42*
X97281600Y-112711000D02*
X97282000Y-112710600D01*
D40*
X82793200Y-114015000D02*
X84023200Y-115245000D01*
X81432400Y-108235000D02*
X81432400Y-108284000D01*
X81432400Y-108284000D02*
X81432400Y-108284500D01*
X81432400Y-108284500D02*
X81432400Y-109810000D01*
X81432400Y-109810000D02*
X82793200Y-111170000D01*
X84023200Y-115245000D02*
X92786200Y-115245000D01*
%TO.N,Net-(J1-Pin_2)*%
X85293200Y-111130000D02*
X85293200Y-112959000D01*
X83972400Y-108284500D02*
X83972400Y-109810000D01*
X83972400Y-109810000D02*
X85293200Y-111130000D01*
D42*
X85293200Y-112959000D02*
X85293200Y-113010600D01*
D40*
X83972400Y-108284000D02*
X83972400Y-108284500D01*
%TD*%
%TA.AperFunction,Conductor*%
%TO.N,GND*%
G36*
X148730300Y-105343634D02*
G01*
X148730301Y-105343634D01*
X148943787Y-105286431D01*
X148943794Y-105286429D01*
X149157881Y-105186598D01*
X149157886Y-105186595D01*
X149351378Y-105051109D01*
X149518408Y-104884079D01*
X149621937Y-104736225D01*
X149681972Y-104685849D01*
X149759152Y-104672240D01*
X149832796Y-104699044D01*
X149872702Y-104740254D01*
X149944578Y-104850268D01*
X149975703Y-104884078D01*
X150097059Y-105015905D01*
X150101672Y-105020152D01*
X150100637Y-105021275D01*
X150143167Y-105077490D01*
X150154300Y-105134473D01*
X150154300Y-110951059D01*
X150134016Y-111026759D01*
X150078600Y-111082175D01*
X150055810Y-111092913D01*
X149934097Y-111138310D01*
X149817039Y-111225939D01*
X149729409Y-111342998D01*
X149678313Y-111479993D01*
X149678309Y-111480006D01*
X149673499Y-111524752D01*
X149645239Y-111597850D01*
X149584217Y-111647024D01*
X149574396Y-111648655D01*
X148878253Y-112344797D01*
X148865465Y-112264052D01*
X148807941Y-112151155D01*
X148718345Y-112061559D01*
X148605448Y-112004035D01*
X148524699Y-111991245D01*
X149205772Y-111310174D01*
X149205771Y-111310173D01*
X149132790Y-111259070D01*
X149132785Y-111259067D01*
X148926628Y-111162934D01*
X148926621Y-111162932D01*
X148706905Y-111104058D01*
X148480300Y-111084234D01*
X148253694Y-111104058D01*
X148033978Y-111162932D01*
X148033971Y-111162934D01*
X147827814Y-111259067D01*
X147827811Y-111259069D01*
X147754826Y-111310173D01*
X148435899Y-111991246D01*
X148355152Y-112004035D01*
X148242255Y-112061559D01*
X148152659Y-112151155D01*
X148095135Y-112264052D01*
X148082346Y-112344799D01*
X147401273Y-111663726D01*
X147350169Y-111736711D01*
X147350167Y-111736714D01*
X147254034Y-111942871D01*
X147254032Y-111942878D01*
X147195158Y-112162594D01*
X147175206Y-112390660D01*
X147148402Y-112464304D01*
X147088367Y-112514680D01*
X147011187Y-112528289D01*
X146937543Y-112501485D01*
X146917326Y-112484521D01*
X146185325Y-111752520D01*
X146174614Y-111739149D01*
X146174169Y-111739518D01*
X146168101Y-111732182D01*
X146118759Y-111685848D01*
X146115344Y-111682539D01*
X146106533Y-111673728D01*
X146095870Y-111663065D01*
X146095860Y-111663057D01*
X146093615Y-111661315D01*
X146082783Y-111652063D01*
X146051423Y-111622616D01*
X146051417Y-111622611D01*
X146035419Y-111613816D01*
X146015562Y-111600772D01*
X146001146Y-111589589D01*
X146001143Y-111589587D01*
X146001141Y-111589586D01*
X145961639Y-111572492D01*
X145948866Y-111566234D01*
X145911160Y-111545505D01*
X145911157Y-111545504D01*
X145911154Y-111545502D01*
X145893473Y-111540963D01*
X145871001Y-111533269D01*
X145854250Y-111526020D01*
X145854242Y-111526018D01*
X145811762Y-111519290D01*
X145797798Y-111516398D01*
X145756131Y-111505700D01*
X145756130Y-111505700D01*
X145737873Y-111505700D01*
X145714189Y-111503836D01*
X145686749Y-111499490D01*
X145687249Y-111496327D01*
X145628387Y-111478549D01*
X145574744Y-111421414D01*
X145556856Y-111345112D01*
X145579515Y-111270089D01*
X145601121Y-111242831D01*
X146390289Y-110453663D01*
X146396915Y-110447426D01*
X146438624Y-110410477D01*
X146470277Y-110364617D01*
X146475676Y-110357280D01*
X146510040Y-110313419D01*
X146512681Y-110307548D01*
X146526139Y-110283688D01*
X146529796Y-110278391D01*
X146549554Y-110226289D01*
X146553037Y-110217882D01*
X146575909Y-110167064D01*
X146577068Y-110160733D01*
X146584430Y-110134328D01*
X146586708Y-110128325D01*
X146593419Y-110073047D01*
X146594795Y-110064003D01*
X146604840Y-110009197D01*
X146601476Y-109953585D01*
X146601200Y-109944443D01*
X146601200Y-105290228D01*
X146621484Y-105214528D01*
X146676900Y-105159112D01*
X146680545Y-105157074D01*
X146680698Y-105156990D01*
X146685876Y-105154189D01*
X146863540Y-105015906D01*
X147016022Y-104850268D01*
X147087898Y-104740253D01*
X147146279Y-104687977D01*
X147222981Y-104671894D01*
X147297449Y-104696316D01*
X147338661Y-104736224D01*
X147442190Y-104884078D01*
X147609221Y-105051109D01*
X147802713Y-105186595D01*
X147802718Y-105186598D01*
X148016805Y-105286429D01*
X148016812Y-105286431D01*
X148230298Y-105343634D01*
X148230300Y-105343634D01*
X148230300Y-104448501D01*
X148337985Y-104497680D01*
X148444537Y-104513000D01*
X148516063Y-104513000D01*
X148622615Y-104497680D01*
X148730300Y-104448501D01*
X148730300Y-105343634D01*
G37*
%TD.AperFunction*%
%TA.AperFunction,Conductor*%
G36*
X145683296Y-94418824D02*
G01*
X145724681Y-94485376D01*
X145731200Y-94529325D01*
X145731200Y-94775213D01*
X145732039Y-94785866D01*
X145734138Y-94812531D01*
X145764700Y-94917727D01*
X145780556Y-94972304D01*
X145784338Y-94981043D01*
X145781634Y-94982212D01*
X145798438Y-95042367D01*
X145789087Y-95088777D01*
X145791075Y-95089355D01*
X145742600Y-95256205D01*
X145742404Y-95258700D01*
X145984673Y-95258700D01*
X146060373Y-95278984D01*
X146061625Y-95279715D01*
X146126099Y-95317845D01*
X146126101Y-95317845D01*
X146126102Y-95317846D01*
X146282596Y-95363312D01*
X146349631Y-95403910D01*
X146387387Y-95472586D01*
X146385745Y-95550939D01*
X146345147Y-95617974D01*
X146282596Y-95654088D01*
X146126102Y-95699553D01*
X146126099Y-95699555D01*
X146061740Y-95737616D01*
X145986259Y-95758692D01*
X145984673Y-95758700D01*
X145742404Y-95758700D01*
X145742600Y-95761194D01*
X145791075Y-95928045D01*
X145788292Y-95928853D01*
X145797443Y-95990832D01*
X145782405Y-96035525D01*
X145784337Y-96036361D01*
X145780555Y-96045098D01*
X145734138Y-96204869D01*
X145731200Y-96242186D01*
X145731200Y-96617064D01*
X145710916Y-96692764D01*
X145655500Y-96748180D01*
X145579800Y-96768464D01*
X145516478Y-96752857D01*
X145516253Y-96753451D01*
X145511365Y-96751597D01*
X145509445Y-96751124D01*
X145507693Y-96750204D01*
X145455608Y-96730451D01*
X145447161Y-96726952D01*
X145396362Y-96704090D01*
X145390032Y-96702930D01*
X145363642Y-96695574D01*
X145357625Y-96693292D01*
X145302336Y-96686578D01*
X145293298Y-96685202D01*
X145238500Y-96675160D01*
X145238496Y-96675160D01*
X145182887Y-96678524D01*
X145173745Y-96678800D01*
X144615100Y-96678800D01*
X144539400Y-96658516D01*
X144483984Y-96603100D01*
X144463700Y-96527400D01*
X144463700Y-96139700D01*
X141963700Y-96139700D01*
X141963700Y-96547515D01*
X141943416Y-96623215D01*
X141933502Y-96638246D01*
X141870349Y-96722607D01*
X141870346Y-96722613D01*
X141820104Y-96857318D01*
X141820100Y-96857331D01*
X141813700Y-96916863D01*
X141813700Y-97762536D01*
X141820100Y-97822068D01*
X141820104Y-97822081D01*
X141870346Y-97956786D01*
X141870350Y-97956793D01*
X141956511Y-98071888D01*
X142071606Y-98158049D01*
X142071613Y-98158053D01*
X142206323Y-98208297D01*
X142213612Y-98210020D01*
X142282620Y-98247166D01*
X142323809Y-98313840D01*
X142330200Y-98357363D01*
X142330200Y-98536741D01*
X142328319Y-98553772D01*
X142328894Y-98553827D01*
X142327997Y-98563310D01*
X142330125Y-98630970D01*
X142330200Y-98635728D01*
X142330200Y-98663268D01*
X142330556Y-98666080D01*
X142331675Y-98680297D01*
X142333026Y-98723287D01*
X142333027Y-98723290D01*
X142338121Y-98740826D01*
X142342936Y-98764079D01*
X142345225Y-98782194D01*
X142345225Y-98782196D01*
X142345226Y-98782197D01*
X142361064Y-98822201D01*
X142365680Y-98835683D01*
X142377681Y-98876993D01*
X142386977Y-98892712D01*
X142397425Y-98914039D01*
X142404146Y-98931013D01*
X142404147Y-98931016D01*
X142429429Y-98965813D01*
X142437260Y-98977735D01*
X142459153Y-99014755D01*
X142459155Y-99014758D01*
X142459158Y-99014762D01*
X142472072Y-99027676D01*
X142487491Y-99045729D01*
X142498228Y-99060507D01*
X142531372Y-99087926D01*
X142541921Y-99097525D01*
X145050074Y-101605679D01*
X145060786Y-101619049D01*
X145061231Y-101618681D01*
X145067297Y-101626014D01*
X145067300Y-101626018D01*
X145067303Y-101626020D01*
X145067304Y-101626022D01*
X145116638Y-101672349D01*
X145120055Y-101675660D01*
X145139530Y-101695135D01*
X145141791Y-101696889D01*
X145152613Y-101706133D01*
X145181359Y-101733125D01*
X145183979Y-101735586D01*
X145199163Y-101743933D01*
X145199972Y-101744378D01*
X145219828Y-101757420D01*
X145234259Y-101768614D01*
X145234261Y-101768615D01*
X145234263Y-101768616D01*
X145273734Y-101785696D01*
X145286547Y-101791973D01*
X145312133Y-101806039D01*
X145324240Y-101812695D01*
X145341923Y-101817234D01*
X145364401Y-101824930D01*
X145381155Y-101832181D01*
X145423659Y-101838912D01*
X145437580Y-101841795D01*
X145479270Y-101852500D01*
X145497527Y-101852500D01*
X145521210Y-101854363D01*
X145539243Y-101857220D01*
X145578779Y-101853482D01*
X145582067Y-101853172D01*
X145596314Y-101852500D01*
X147901184Y-101852500D01*
X147976884Y-101872784D01*
X148008240Y-101896844D01*
X148685956Y-102574560D01*
X148725141Y-102642431D01*
X148730300Y-102681616D01*
X148730300Y-103577498D01*
X148622615Y-103528320D01*
X148516063Y-103513000D01*
X148444537Y-103513000D01*
X148337985Y-103528320D01*
X148230300Y-103577498D01*
X148230300Y-102682364D01*
X148230299Y-102682364D01*
X148016806Y-102739569D01*
X147802723Y-102839399D01*
X147609218Y-102974893D01*
X147442190Y-103141921D01*
X147338661Y-103289775D01*
X147278626Y-103340150D01*
X147201446Y-103353759D01*
X147127802Y-103326954D01*
X147087897Y-103285745D01*
X147040426Y-103213085D01*
X147016023Y-103175733D01*
X147016019Y-103175729D01*
X146863541Y-103010095D01*
X146863540Y-103010094D01*
X146685874Y-102871809D01*
X146487877Y-102764659D01*
X146487874Y-102764657D01*
X146274941Y-102691558D01*
X146274932Y-102691555D01*
X146052870Y-102654500D01*
X146052869Y-102654500D01*
X145827731Y-102654500D01*
X145827730Y-102654500D01*
X145605667Y-102691555D01*
X145605658Y-102691558D01*
X145392725Y-102764657D01*
X145392722Y-102764659D01*
X145194725Y-102871809D01*
X145017062Y-103010092D01*
X144984080Y-103045920D01*
X144917886Y-103087875D01*
X144839582Y-103091113D01*
X144770150Y-103054766D01*
X144730838Y-102996287D01*
X144701190Y-102916798D01*
X144701189Y-102916796D01*
X144613561Y-102799739D01*
X144496504Y-102712111D01*
X144496503Y-102712110D01*
X144496501Y-102712109D01*
X144359506Y-102661013D01*
X144359501Y-102661011D01*
X144298938Y-102654500D01*
X142501662Y-102654500D01*
X142451192Y-102659925D01*
X142441098Y-102661011D01*
X142441093Y-102661013D01*
X142304098Y-102712109D01*
X142187039Y-102799739D01*
X142099409Y-102916798D01*
X142048313Y-103053793D01*
X142048311Y-103053799D01*
X142041800Y-103114362D01*
X142041800Y-104911638D01*
X142044131Y-104933317D01*
X142048311Y-104972201D01*
X142048313Y-104972206D01*
X142099409Y-105109201D01*
X142099410Y-105109203D01*
X142099411Y-105109204D01*
X142187039Y-105226261D01*
X142304096Y-105313889D01*
X142304097Y-105313889D01*
X142304098Y-105313890D01*
X142338346Y-105326664D01*
X142441099Y-105364989D01*
X142501662Y-105371500D01*
X142588000Y-105371500D01*
X142663700Y-105391784D01*
X142719116Y-105447200D01*
X142739400Y-105522900D01*
X142739400Y-109072535D01*
X142719116Y-109148235D01*
X142695056Y-109179591D01*
X140913291Y-110961356D01*
X140845420Y-111000541D01*
X140806235Y-111005700D01*
X140746662Y-111005700D01*
X140696192Y-111011125D01*
X140686098Y-111012211D01*
X140686093Y-111012213D01*
X140549098Y-111063309D01*
X140432039Y-111150939D01*
X140344409Y-111267998D01*
X140298830Y-111390202D01*
X140293311Y-111404999D01*
X140287607Y-111458061D01*
X140286800Y-111465566D01*
X140286800Y-111576083D01*
X140266516Y-111651783D01*
X140211100Y-111707199D01*
X140135400Y-111727483D01*
X140059700Y-111707199D01*
X140028344Y-111683139D01*
X139887144Y-111541939D01*
X139847959Y-111474068D01*
X139842800Y-111434883D01*
X139842800Y-95107768D01*
X139863084Y-95032068D01*
X139918500Y-94976652D01*
X139994200Y-94956368D01*
X140055777Y-94969456D01*
X140070012Y-94975794D01*
X140256813Y-95015500D01*
X140256816Y-95015500D01*
X140447784Y-95015500D01*
X140447787Y-95015500D01*
X140634588Y-94975794D01*
X140809052Y-94898118D01*
X140963553Y-94785866D01*
X140963558Y-94785859D01*
X140968529Y-94781386D01*
X141038358Y-94745808D01*
X141069833Y-94742500D01*
X141656213Y-94742500D01*
X141731913Y-94762784D01*
X141787329Y-94818200D01*
X141806745Y-94877715D01*
X141811709Y-94923893D01*
X141811713Y-94923906D01*
X141862809Y-95060901D01*
X141862810Y-95060903D01*
X141862811Y-95060904D01*
X141933502Y-95155336D01*
X141962629Y-95228092D01*
X141963700Y-95246066D01*
X141963700Y-95639700D01*
X144463700Y-95639700D01*
X144463700Y-95321975D01*
X144483984Y-95246275D01*
X144539400Y-95190859D01*
X144549389Y-95185578D01*
X144576635Y-95172457D01*
X144592307Y-95165965D01*
X144626320Y-95154065D01*
X144656836Y-95134889D01*
X144671674Y-95126688D01*
X144704140Y-95111055D01*
X144732320Y-95088580D01*
X144746138Y-95078776D01*
X144776656Y-95059602D01*
X144801576Y-95034680D01*
X144801583Y-95034675D01*
X144808141Y-95028116D01*
X144808144Y-95028115D01*
X145388406Y-94447851D01*
X145451507Y-94410030D01*
X145535853Y-94384443D01*
X145614180Y-94381880D01*
X145683296Y-94418824D01*
G37*
%TD.AperFunction*%
%TA.AperFunction,Conductor*%
G36*
X166373949Y-45160706D02*
G01*
X166686079Y-45177064D01*
X166701811Y-45178718D01*
X167006595Y-45226992D01*
X167022082Y-45230284D01*
X167320148Y-45310150D01*
X167335188Y-45315036D01*
X167623282Y-45425626D01*
X167637746Y-45432066D01*
X167901150Y-45566277D01*
X167912671Y-45572147D01*
X167926395Y-45580070D01*
X168185189Y-45748133D01*
X168198005Y-45757444D01*
X168423271Y-45939861D01*
X168437803Y-45951629D01*
X168449580Y-45962233D01*
X168667766Y-46180419D01*
X168678370Y-46192196D01*
X168760286Y-46293354D01*
X168862075Y-46419053D01*
X168872551Y-46431989D01*
X168881866Y-46444810D01*
X169049929Y-46703604D01*
X169057852Y-46717328D01*
X169197930Y-46992247D01*
X169204376Y-47006724D01*
X169314957Y-47294795D01*
X169319852Y-47309863D01*
X169331346Y-47352757D01*
X169399713Y-47607910D01*
X169403008Y-47623410D01*
X169451279Y-47928173D01*
X169452936Y-47943934D01*
X169469293Y-48256049D01*
X169469500Y-48263973D01*
X169469500Y-114296026D01*
X169469293Y-114303950D01*
X169452936Y-114616065D01*
X169451279Y-114631826D01*
X169403008Y-114936589D01*
X169399713Y-114952089D01*
X169319854Y-115250132D01*
X169314957Y-115265204D01*
X169204376Y-115553275D01*
X169197930Y-115567752D01*
X169057852Y-115842671D01*
X169049929Y-115856395D01*
X168881866Y-116115189D01*
X168872551Y-116128010D01*
X168678370Y-116367803D01*
X168667766Y-116379580D01*
X168449580Y-116597766D01*
X168437803Y-116608370D01*
X168198010Y-116802551D01*
X168185189Y-116811866D01*
X167926395Y-116979929D01*
X167912671Y-116987852D01*
X167637752Y-117127930D01*
X167623275Y-117134376D01*
X167335204Y-117244957D01*
X167320132Y-117249854D01*
X167022089Y-117329713D01*
X167006589Y-117333008D01*
X166701826Y-117381279D01*
X166686065Y-117382936D01*
X166480590Y-117393704D01*
X166373948Y-117399293D01*
X166366027Y-117399500D01*
X80013973Y-117399500D01*
X80006051Y-117399293D01*
X79852278Y-117391234D01*
X79693934Y-117382936D01*
X79678173Y-117381279D01*
X79373410Y-117333008D01*
X79357910Y-117329713D01*
X79158176Y-117276195D01*
X79059863Y-117249852D01*
X79044799Y-117244958D01*
X78756724Y-117134376D01*
X78742247Y-117127930D01*
X78467328Y-116987852D01*
X78453604Y-116979929D01*
X78194810Y-116811866D01*
X78181989Y-116802551D01*
X78146951Y-116774178D01*
X77970901Y-116631615D01*
X77942196Y-116608370D01*
X77930419Y-116597766D01*
X77712233Y-116379580D01*
X77701629Y-116367803D01*
X77658040Y-116313975D01*
X77507444Y-116128005D01*
X77498133Y-116115189D01*
X77330070Y-115856395D01*
X77322147Y-115842671D01*
X77318550Y-115835612D01*
X77182066Y-115567746D01*
X77175623Y-115553275D01*
X77161969Y-115517705D01*
X77065036Y-115265188D01*
X77060150Y-115250148D01*
X76980284Y-114952082D01*
X76976991Y-114936589D01*
X76975484Y-114927074D01*
X76928718Y-114631811D01*
X76927064Y-114616079D01*
X76910707Y-114303949D01*
X76910500Y-114296026D01*
X76910500Y-108634214D01*
X80448900Y-108634214D01*
X80459338Y-108736384D01*
X80459338Y-108736385D01*
X80514189Y-108901917D01*
X80514189Y-108901918D01*
X80583859Y-109014869D01*
X80606336Y-109089947D01*
X80606400Y-109094350D01*
X80606400Y-109770409D01*
X80605904Y-109782652D01*
X80601839Y-109832744D01*
X80612182Y-109908484D01*
X80612686Y-109912598D01*
X80620952Y-109988607D01*
X80622719Y-109996631D01*
X80622557Y-109996666D01*
X80624005Y-110002836D01*
X80624165Y-110002797D01*
X80626147Y-110010760D01*
X80652544Y-110082546D01*
X80653916Y-110086442D01*
X80677291Y-110155815D01*
X80678322Y-110158873D01*
X80681769Y-110166324D01*
X80681618Y-110166393D01*
X80684353Y-110172099D01*
X80684501Y-110172026D01*
X80688152Y-110179381D01*
X80688153Y-110179382D01*
X80688154Y-110179385D01*
X80707162Y-110209104D01*
X80729352Y-110243798D01*
X80731529Y-110247306D01*
X80767779Y-110307554D01*
X80770953Y-110312828D01*
X80775916Y-110319356D01*
X80775784Y-110319455D01*
X80779691Y-110324450D01*
X80779820Y-110324347D01*
X80784960Y-110330739D01*
X80839045Y-110384791D01*
X80841936Y-110387761D01*
X80894506Y-110443258D01*
X80894510Y-110443260D01*
X80900763Y-110448573D01*
X80900655Y-110448699D01*
X80914126Y-110459828D01*
X81845048Y-111390202D01*
X81884254Y-111458061D01*
X81884277Y-111536431D01*
X81845111Y-111604313D01*
X81817506Y-111626148D01*
X81719548Y-111686569D01*
X81594168Y-111811949D01*
X81501085Y-111962861D01*
X81445312Y-112131176D01*
X81445312Y-112131177D01*
X81434700Y-112235053D01*
X81434700Y-113786146D01*
X81445312Y-113890022D01*
X81445312Y-113890024D01*
X81445313Y-113890026D01*
X81482653Y-114002714D01*
X81501085Y-114058338D01*
X81594168Y-114209250D01*
X81719549Y-114334631D01*
X81757887Y-114358278D01*
X81870462Y-114427715D01*
X82038774Y-114483487D01*
X82046606Y-114484287D01*
X82119851Y-114512156D01*
X82139108Y-114530440D01*
X82139804Y-114529745D01*
X82199782Y-114589723D01*
X82202606Y-114592624D01*
X82237362Y-114629315D01*
X82255308Y-114648260D01*
X82261560Y-114653570D01*
X82261442Y-114653708D01*
X82274834Y-114664775D01*
X83411031Y-115800971D01*
X83419366Y-115810013D01*
X83451810Y-115848209D01*
X83510281Y-115892657D01*
X83512800Y-115894572D01*
X83516032Y-115897099D01*
X83575719Y-115945078D01*
X83582635Y-115949498D01*
X83582537Y-115949650D01*
X83587717Y-115952863D01*
X83587811Y-115952708D01*
X83594843Y-115956939D01*
X83664356Y-115989099D01*
X83668050Y-115990868D01*
X83736678Y-116024905D01*
X83736681Y-116024905D01*
X83744384Y-116027736D01*
X83744320Y-116027907D01*
X83750068Y-116029931D01*
X83750127Y-116029758D01*
X83757899Y-116032376D01*
X83757902Y-116032378D01*
X83832725Y-116048847D01*
X83836640Y-116049764D01*
X83911033Y-116068266D01*
X83911038Y-116068266D01*
X83919164Y-116069373D01*
X83919139Y-116069553D01*
X83925187Y-116070294D01*
X83925207Y-116070112D01*
X83933362Y-116070998D01*
X83933367Y-116071000D01*
X84009916Y-116071000D01*
X84014014Y-116071055D01*
X84015723Y-116071101D01*
X84090633Y-116073130D01*
X84090642Y-116073128D01*
X84098807Y-116072464D01*
X84098821Y-116072644D01*
X84116126Y-116071000D01*
X92746402Y-116071000D01*
X92758706Y-116071500D01*
X92808601Y-116075570D01*
X92884590Y-116065224D01*
X92888568Y-116064737D01*
X92964813Y-116056446D01*
X92964817Y-116056444D01*
X92964822Y-116056444D01*
X92972835Y-116054681D01*
X92972875Y-116054865D01*
X92978701Y-116053500D01*
X92978656Y-116053316D01*
X92986619Y-116051336D01*
X92986619Y-116051335D01*
X92986625Y-116051335D01*
X93058605Y-116024899D01*
X93062436Y-116023552D01*
X93063466Y-116023204D01*
X93135074Y-115999078D01*
X93135076Y-115999077D01*
X93142529Y-115995630D01*
X93142608Y-115995801D01*
X93148004Y-115993215D01*
X93147921Y-115993046D01*
X93155270Y-115989400D01*
X93155278Y-115989398D01*
X93219865Y-115948123D01*
X93223299Y-115945994D01*
X93289022Y-115906451D01*
X93289031Y-115906442D01*
X93295560Y-115901480D01*
X93295675Y-115901631D01*
X93300390Y-115897946D01*
X93300271Y-115897798D01*
X93306667Y-115892657D01*
X93306669Y-115892654D01*
X93306672Y-115892653D01*
X93360899Y-115838436D01*
X93363775Y-115835639D01*
X93419458Y-115782894D01*
X93419462Y-115782887D01*
X93424774Y-115776635D01*
X93424918Y-115776757D01*
X93435955Y-115763399D01*
X94615599Y-114584034D01*
X94683472Y-114544859D01*
X94761843Y-114544868D01*
X94829709Y-114584062D01*
X94859641Y-114629526D01*
X94860041Y-114629315D01*
X94862267Y-114633514D01*
X94863285Y-114635060D01*
X94863884Y-114636564D01*
X94953086Y-114804816D01*
X94953090Y-114804823D01*
X95074994Y-114948338D01*
X95076369Y-114949957D01*
X95227971Y-115065202D01*
X95400803Y-115145162D01*
X95586784Y-115186100D01*
X95586788Y-115186100D01*
X95729461Y-115186100D01*
X95729465Y-115186100D01*
X95871316Y-115170673D01*
X96051780Y-115109867D01*
X96214954Y-115011689D01*
X96353207Y-114880729D01*
X96460075Y-114723110D01*
X96530562Y-114546202D01*
X96561370Y-114358278D01*
X96558184Y-114299503D01*
X96554345Y-114228694D01*
X96570501Y-114152007D01*
X96622837Y-114093673D01*
X96697328Y-114069321D01*
X96705523Y-114069099D01*
X98057546Y-114069099D01*
X98092171Y-114065561D01*
X98161426Y-114058487D01*
X98329738Y-114002715D01*
X98480652Y-113909630D01*
X98606030Y-113784252D01*
X98699115Y-113633338D01*
X98754887Y-113465026D01*
X98765500Y-113361145D01*
X98765499Y-112060056D01*
X98765310Y-112058209D01*
X98755952Y-111966601D01*
X98754887Y-111956174D01*
X98699115Y-111787862D01*
X98625294Y-111668180D01*
X98606031Y-111636949D01*
X98480650Y-111511568D01*
X98355749Y-111434528D01*
X98301968Y-111377524D01*
X98283894Y-111301266D01*
X98306371Y-111226188D01*
X98328174Y-111198613D01*
X98445109Y-111081678D01*
X98580595Y-110888186D01*
X98580598Y-110888181D01*
X98680430Y-110674093D01*
X98737635Y-110460600D01*
X97685969Y-110460600D01*
X97718519Y-110409951D01*
X97757000Y-110278895D01*
X97757000Y-110142305D01*
X97718519Y-110011249D01*
X97685969Y-109960600D01*
X98737635Y-109960600D01*
X98737635Y-109960599D01*
X98680430Y-109747106D01*
X98580600Y-109533023D01*
X98445106Y-109339518D01*
X98278081Y-109172493D01*
X98084576Y-109036999D01*
X97870492Y-108937169D01*
X97870493Y-108937169D01*
X97642320Y-108876030D01*
X97642321Y-108876030D01*
X97532000Y-108866379D01*
X97532000Y-109802581D01*
X97417199Y-109750154D01*
X97315975Y-109735600D01*
X97248025Y-109735600D01*
X97146801Y-109750154D01*
X97032000Y-109802581D01*
X97032000Y-108866379D01*
X96921679Y-108876030D01*
X96693506Y-108937169D01*
X96479423Y-109036999D01*
X96285918Y-109172493D01*
X96118890Y-109339521D01*
X95983404Y-109533013D01*
X95983401Y-109533018D01*
X95883569Y-109747106D01*
X95826364Y-109960599D01*
X95826365Y-109960600D01*
X96878031Y-109960600D01*
X96845481Y-110011249D01*
X96807000Y-110142305D01*
X96807000Y-110278895D01*
X96845481Y-110409951D01*
X96878031Y-110460600D01*
X95826364Y-110460600D01*
X95883569Y-110674093D01*
X95983399Y-110888176D01*
X96118893Y-111081681D01*
X96235825Y-111198613D01*
X96275010Y-111266484D01*
X96275010Y-111344854D01*
X96235825Y-111412725D01*
X96208251Y-111434528D01*
X96083348Y-111511569D01*
X95957968Y-111636949D01*
X95864884Y-111787863D01*
X95861156Y-111795858D01*
X95858324Y-111794537D01*
X95824035Y-111846686D01*
X95754006Y-111881868D01*
X95723370Y-111885000D01*
X95360589Y-111885000D01*
X95348284Y-111884499D01*
X95337033Y-111883581D01*
X95298399Y-111880431D01*
X95298398Y-111880431D01*
X95298397Y-111880431D01*
X95222420Y-111890772D01*
X95218373Y-111891267D01*
X95142186Y-111899553D01*
X95134170Y-111901318D01*
X95134130Y-111901137D01*
X95128288Y-111902506D01*
X95128333Y-111902687D01*
X95120367Y-111904666D01*
X95048391Y-111931098D01*
X95044547Y-111932452D01*
X95013606Y-111942878D01*
X94971926Y-111956922D01*
X94971924Y-111956922D01*
X94971918Y-111956925D01*
X94964476Y-111960368D01*
X94964398Y-111960200D01*
X94958986Y-111962794D01*
X94959068Y-111962959D01*
X94951721Y-111966601D01*
X94887132Y-112007876D01*
X94883662Y-112010028D01*
X94817978Y-112049548D01*
X94811445Y-112054515D01*
X94811333Y-112054368D01*
X94806604Y-112058064D01*
X94806721Y-112058209D01*
X94800326Y-112063347D01*
X94746117Y-112117542D01*
X94743196Y-112120384D01*
X94687546Y-112173100D01*
X94682231Y-112179358D01*
X94682088Y-112179236D01*
X94671045Y-112192597D01*
X92488459Y-114374669D01*
X92420584Y-114413846D01*
X92381416Y-114419000D01*
X88792390Y-114419000D01*
X88716690Y-114398716D01*
X88661274Y-114343300D01*
X88640990Y-114267600D01*
X88661274Y-114191900D01*
X88692364Y-114153948D01*
X88744331Y-114108211D01*
X88777524Y-114078998D01*
X88922800Y-113899076D01*
X89035580Y-113697191D01*
X89112619Y-113479150D01*
X89151700Y-113251225D01*
X89151700Y-112827887D01*
X89137001Y-112655182D01*
X89078730Y-112431393D01*
X88983478Y-112220671D01*
X88983475Y-112220666D01*
X88983472Y-112220661D01*
X88853987Y-112029083D01*
X88853983Y-112029077D01*
X88693972Y-111862124D01*
X88693967Y-111862119D01*
X88508044Y-111724612D01*
X88301562Y-111620507D01*
X88301549Y-111620502D01*
X88080451Y-111552791D01*
X88080445Y-111552789D01*
X88080443Y-111552789D01*
X87851065Y-111523416D01*
X87851064Y-111523416D01*
X87620023Y-111533230D01*
X87620019Y-111533231D01*
X87393960Y-111581951D01*
X87179398Y-111668169D01*
X87179390Y-111668172D01*
X87179387Y-111668174D01*
X87179385Y-111668175D01*
X87179375Y-111668180D01*
X86982471Y-111789419D01*
X86808878Y-111942199D01*
X86754962Y-112008974D01*
X86669994Y-112114206D01*
X86659560Y-112127128D01*
X86657913Y-112125798D01*
X86606443Y-112170434D01*
X86529494Y-112185295D01*
X86455424Y-112159692D01*
X86414800Y-112119058D01*
X86353985Y-112029080D01*
X86353983Y-112029077D01*
X86193972Y-111862124D01*
X86193967Y-111862120D01*
X86180570Y-111852211D01*
X86131770Y-111790888D01*
X86119200Y-111730488D01*
X86119200Y-111169589D01*
X86119696Y-111157347D01*
X86120216Y-111150939D01*
X86123760Y-111107249D01*
X86113409Y-111031456D01*
X86112914Y-111027422D01*
X86104646Y-110951387D01*
X86104644Y-110951380D01*
X86102881Y-110943367D01*
X86103042Y-110943331D01*
X86101595Y-110937160D01*
X86101434Y-110937201D01*
X86099452Y-110929246D01*
X86099451Y-110929235D01*
X86073057Y-110857461D01*
X86071686Y-110853567D01*
X86057458Y-110811339D01*
X86047278Y-110781126D01*
X86047274Y-110781119D01*
X86043831Y-110773676D01*
X86043982Y-110773606D01*
X86041241Y-110767889D01*
X86041093Y-110767963D01*
X86037444Y-110760611D01*
X86037443Y-110760608D01*
X85996233Y-110696180D01*
X85994073Y-110692698D01*
X85954656Y-110627185D01*
X85949688Y-110620651D01*
X85949821Y-110620549D01*
X85945907Y-110615544D01*
X85945777Y-110615649D01*
X85940635Y-110609256D01*
X85886554Y-110555208D01*
X85883661Y-110552236D01*
X85831097Y-110496744D01*
X85824839Y-110491429D01*
X85824946Y-110491302D01*
X85811471Y-110480170D01*
X84842776Y-109512062D01*
X84803571Y-109444204D01*
X84798400Y-109404974D01*
X84798400Y-109094350D01*
X84818684Y-109018650D01*
X84820941Y-109014869D01*
X84838843Y-108985844D01*
X84890609Y-108901920D01*
X84945462Y-108736381D01*
X84955900Y-108634213D01*
X84955899Y-107934788D01*
X84954360Y-107919727D01*
X84952336Y-107899911D01*
X84945462Y-107832619D01*
X84945461Y-107832615D01*
X84945461Y-107832614D01*
X84890610Y-107667082D01*
X84890609Y-107667081D01*
X84890609Y-107667080D01*
X84829088Y-107567340D01*
X84799058Y-107518653D01*
X84793591Y-107511739D01*
X84795712Y-107510061D01*
X84763695Y-107454605D01*
X84763695Y-107376235D01*
X84788047Y-107327748D01*
X84787716Y-107327544D01*
X84790057Y-107323747D01*
X84791183Y-107321507D01*
X84792349Y-107320032D01*
X84882852Y-107173304D01*
X84937081Y-107009647D01*
X84947400Y-106908648D01*
X84947400Y-106809500D01*
X82997401Y-106809500D01*
X82997401Y-106908649D01*
X83007718Y-107009647D01*
X83061947Y-107173303D01*
X83152453Y-107320037D01*
X83153623Y-107321516D01*
X83154221Y-107322902D01*
X83157084Y-107327544D01*
X83156404Y-107327963D01*
X83184664Y-107393476D01*
X83175567Y-107471317D01*
X83149746Y-107510582D01*
X83151209Y-107511739D01*
X83145741Y-107518653D01*
X83054191Y-107667079D01*
X83054190Y-107667082D01*
X82999340Y-107832615D01*
X82999337Y-107832623D01*
X82988900Y-107934785D01*
X82988900Y-108634214D01*
X82999338Y-108736384D01*
X82999338Y-108736385D01*
X83054189Y-108901917D01*
X83054189Y-108901918D01*
X83123859Y-109014869D01*
X83146336Y-109089947D01*
X83146400Y-109094350D01*
X83146400Y-109770413D01*
X83145904Y-109782656D01*
X83141839Y-109832751D01*
X83152187Y-109908523D01*
X83152685Y-109912583D01*
X83160953Y-109988607D01*
X83160989Y-109988934D01*
X83149008Y-110066383D01*
X83099908Y-110127466D01*
X83026844Y-110155815D01*
X82949395Y-110143834D01*
X82903451Y-110112389D01*
X82302775Y-109512065D01*
X82263570Y-109444206D01*
X82258400Y-109404978D01*
X82258400Y-109094350D01*
X82278684Y-109018650D01*
X82280941Y-109014869D01*
X82298843Y-108985844D01*
X82350609Y-108901920D01*
X82405462Y-108736381D01*
X82415900Y-108634213D01*
X82415899Y-107934788D01*
X82414360Y-107919727D01*
X82412336Y-107899911D01*
X82405462Y-107832619D01*
X82405461Y-107832615D01*
X82405461Y-107832614D01*
X82350610Y-107667082D01*
X82350609Y-107667081D01*
X82350609Y-107667080D01*
X82289088Y-107567340D01*
X82259058Y-107518653D01*
X82253591Y-107511739D01*
X82255712Y-107510061D01*
X82223695Y-107454605D01*
X82223695Y-107376235D01*
X82248047Y-107327748D01*
X82247716Y-107327544D01*
X82250057Y-107323747D01*
X82251183Y-107321507D01*
X82252349Y-107320032D01*
X82342852Y-107173304D01*
X82397081Y-107009647D01*
X82407400Y-106908648D01*
X82407400Y-106809500D01*
X80457401Y-106809500D01*
X80457401Y-106908649D01*
X80467718Y-107009647D01*
X80521947Y-107173303D01*
X80612453Y-107320037D01*
X80613623Y-107321516D01*
X80614221Y-107322902D01*
X80617084Y-107327544D01*
X80616404Y-107327963D01*
X80644664Y-107393476D01*
X80635567Y-107471317D01*
X80609746Y-107510582D01*
X80611209Y-107511739D01*
X80605741Y-107518653D01*
X80514191Y-107667079D01*
X80514190Y-107667082D01*
X80459340Y-107832615D01*
X80459337Y-107832623D01*
X80448900Y-107934785D01*
X80448900Y-108634214D01*
X76910500Y-108634214D01*
X76910500Y-106309500D01*
X80457400Y-106309500D01*
X81182400Y-106309500D01*
X81182400Y-105522000D01*
X81682400Y-105522000D01*
X81682400Y-106309500D01*
X82407399Y-106309500D01*
X82997400Y-106309500D01*
X83722400Y-106309500D01*
X83722400Y-105522000D01*
X84222400Y-105522000D01*
X84222400Y-106309500D01*
X84947399Y-106309500D01*
X84947399Y-106210351D01*
X84947398Y-106210350D01*
X84937081Y-106109352D01*
X84882852Y-105945696D01*
X84792346Y-105798963D01*
X84670436Y-105677053D01*
X84523704Y-105586547D01*
X84360047Y-105532318D01*
X84259049Y-105522000D01*
X84222400Y-105522000D01*
X83722400Y-105522000D01*
X83722400Y-105521999D01*
X83722399Y-105521999D01*
X83685753Y-105522000D01*
X83685750Y-105522001D01*
X83584752Y-105532318D01*
X83421096Y-105586547D01*
X83274363Y-105677053D01*
X83152453Y-105798963D01*
X83061947Y-105945695D01*
X83007718Y-106109352D01*
X82997400Y-106210351D01*
X82997400Y-106309500D01*
X82407399Y-106309500D01*
X82407399Y-106210351D01*
X82407398Y-106210350D01*
X82397081Y-106109352D01*
X82342852Y-105945696D01*
X82252346Y-105798963D01*
X82130436Y-105677053D01*
X81983704Y-105586547D01*
X81820047Y-105532318D01*
X81719049Y-105522000D01*
X81682400Y-105522000D01*
X81182400Y-105522000D01*
X81182400Y-105521999D01*
X81182399Y-105521999D01*
X81145753Y-105522000D01*
X81145750Y-105522001D01*
X81044752Y-105532318D01*
X80881096Y-105586547D01*
X80734363Y-105677053D01*
X80612453Y-105798963D01*
X80521947Y-105945695D01*
X80467718Y-106109352D01*
X80457400Y-106210351D01*
X80457400Y-106309500D01*
X76910500Y-106309500D01*
X76910500Y-101989570D01*
X77342500Y-101989570D01*
X77357621Y-102167233D01*
X77417564Y-102397446D01*
X77467498Y-102507913D01*
X77515550Y-102614216D01*
X77515553Y-102614221D01*
X77648763Y-102811311D01*
X77813361Y-102983051D01*
X77813368Y-102983057D01*
X77813369Y-102983058D01*
X78004631Y-103124515D01*
X78217049Y-103231614D01*
X78444511Y-103301273D01*
X78680474Y-103331489D01*
X78680474Y-103331488D01*
X78680475Y-103331489D01*
X78759699Y-103328123D01*
X78918149Y-103321393D01*
X79150699Y-103271275D01*
X79371435Y-103182576D01*
X79574005Y-103057849D01*
X79752582Y-102900681D01*
X79894297Y-102725169D01*
X79957632Y-102679017D01*
X80035561Y-102670715D01*
X80107201Y-102702489D01*
X80137525Y-102735503D01*
X80188763Y-102811311D01*
X80353361Y-102983051D01*
X80353368Y-102983057D01*
X80353369Y-102983058D01*
X80544631Y-103124515D01*
X80757049Y-103231614D01*
X80984511Y-103301273D01*
X81220474Y-103331489D01*
X81220474Y-103331488D01*
X81220475Y-103331489D01*
X81299699Y-103328123D01*
X81458149Y-103321393D01*
X81690699Y-103271275D01*
X81911435Y-103182576D01*
X82114005Y-103057849D01*
X82292582Y-102900681D01*
X82434297Y-102725169D01*
X82497632Y-102679017D01*
X82575561Y-102670715D01*
X82647201Y-102702489D01*
X82677525Y-102735503D01*
X82728763Y-102811311D01*
X82893361Y-102983051D01*
X82893368Y-102983057D01*
X82893369Y-102983058D01*
X83084631Y-103124515D01*
X83297049Y-103231614D01*
X83524511Y-103301273D01*
X83760474Y-103331489D01*
X83760474Y-103331488D01*
X83760475Y-103331489D01*
X83839699Y-103328123D01*
X83998149Y-103321393D01*
X84230699Y-103271275D01*
X84451435Y-103182576D01*
X84654005Y-103057849D01*
X84832582Y-102900681D01*
X84974297Y-102725169D01*
X85037632Y-102679017D01*
X85115561Y-102670715D01*
X85187201Y-102702489D01*
X85217525Y-102735503D01*
X85268763Y-102811311D01*
X85433361Y-102983051D01*
X85433368Y-102983057D01*
X85433369Y-102983058D01*
X85624631Y-103124515D01*
X85837049Y-103231614D01*
X86064511Y-103301273D01*
X86300474Y-103331489D01*
X86300474Y-103331488D01*
X86300475Y-103331489D01*
X86379699Y-103328123D01*
X86538149Y-103321393D01*
X86770699Y-103271275D01*
X86991435Y-103182576D01*
X87194005Y-103057849D01*
X87372582Y-102900681D01*
X87514297Y-102725169D01*
X87577632Y-102679017D01*
X87655561Y-102670715D01*
X87727201Y-102702489D01*
X87757525Y-102735503D01*
X87808763Y-102811311D01*
X87973361Y-102983051D01*
X87973368Y-102983057D01*
X87973369Y-102983058D01*
X88164631Y-103124515D01*
X88377049Y-103231614D01*
X88604511Y-103301273D01*
X88840474Y-103331489D01*
X88840474Y-103331488D01*
X88840475Y-103331489D01*
X88919699Y-103328123D01*
X89078149Y-103321393D01*
X89310699Y-103271275D01*
X89531435Y-103182576D01*
X89734005Y-103057849D01*
X89912582Y-102900681D01*
X90054297Y-102725169D01*
X90117632Y-102679017D01*
X90195561Y-102670715D01*
X90267201Y-102702489D01*
X90297525Y-102735503D01*
X90348763Y-102811311D01*
X90513361Y-102983051D01*
X90513368Y-102983057D01*
X90513369Y-102983058D01*
X90704631Y-103124515D01*
X90917049Y-103231614D01*
X91144511Y-103301273D01*
X91380474Y-103331489D01*
X91380474Y-103331488D01*
X91380475Y-103331489D01*
X91459699Y-103328123D01*
X91618149Y-103321393D01*
X91850699Y-103271275D01*
X92071435Y-103182576D01*
X92274005Y-103057849D01*
X92452582Y-102900681D01*
X92594297Y-102725169D01*
X92657632Y-102679017D01*
X92735561Y-102670715D01*
X92807201Y-102702489D01*
X92837525Y-102735503D01*
X92888763Y-102811311D01*
X93053361Y-102983051D01*
X93053368Y-102983057D01*
X93053369Y-102983058D01*
X93244631Y-103124515D01*
X93457049Y-103231614D01*
X93684511Y-103301273D01*
X93920474Y-103331489D01*
X93920474Y-103331488D01*
X93920475Y-103331489D01*
X93999699Y-103328123D01*
X94158149Y-103321393D01*
X94390699Y-103271275D01*
X94611435Y-103182576D01*
X94616424Y-103179504D01*
X100075753Y-103179504D01*
X100094716Y-103444661D01*
X100151226Y-103704431D01*
X100151229Y-103704442D01*
X100244126Y-103953511D01*
X100244133Y-103953525D01*
X100371536Y-104186845D01*
X100371538Y-104186849D01*
X100530846Y-104399660D01*
X100530849Y-104399663D01*
X100530852Y-104399667D01*
X100718833Y-104587648D01*
X100718836Y-104587650D01*
X100718839Y-104587653D01*
X100931650Y-104746961D01*
X100931653Y-104746963D01*
X101164979Y-104874369D01*
X101164982Y-104874370D01*
X101164988Y-104874373D01*
X101414057Y-104967270D01*
X101414059Y-104967270D01*
X101414063Y-104967272D01*
X101673832Y-105023782D01*
X101673837Y-105023782D01*
X101673840Y-105023783D01*
X101673837Y-105023783D01*
X101938996Y-105042747D01*
X101939000Y-105042747D01*
X101939004Y-105042747D01*
X102204161Y-105023783D01*
X102204164Y-105023782D01*
X102204168Y-105023782D01*
X102463937Y-104967272D01*
X102554974Y-104933317D01*
X102713011Y-104874373D01*
X102713013Y-104874371D01*
X102713021Y-104874369D01*
X102946347Y-104746963D01*
X103159167Y-104587648D01*
X103347148Y-104399667D01*
X103506463Y-104186847D01*
X103633869Y-103953521D01*
X103726772Y-103704437D01*
X103783282Y-103444668D01*
X103789037Y-103364210D01*
X103802247Y-103179504D01*
X103802247Y-103179495D01*
X103783283Y-102914338D01*
X103774031Y-102871809D01*
X103726772Y-102654563D01*
X103722247Y-102642431D01*
X103633873Y-102405488D01*
X103633866Y-102405474D01*
X103629483Y-102397447D01*
X103506463Y-102172153D01*
X103435220Y-102076983D01*
X103347153Y-101959339D01*
X103347150Y-101959336D01*
X103347148Y-101959333D01*
X103159167Y-101771352D01*
X103159163Y-101771349D01*
X103159160Y-101771346D01*
X102946349Y-101612038D01*
X102946345Y-101612036D01*
X102713025Y-101484633D01*
X102713011Y-101484626D01*
X102463942Y-101391729D01*
X102463931Y-101391726D01*
X102204159Y-101335216D01*
X102204162Y-101335216D01*
X101939004Y-101316253D01*
X101938996Y-101316253D01*
X101673838Y-101335216D01*
X101414068Y-101391726D01*
X101414057Y-101391729D01*
X101164988Y-101484626D01*
X101164974Y-101484633D01*
X100931654Y-101612036D01*
X100931650Y-101612038D01*
X100718839Y-101771346D01*
X100530846Y-101959339D01*
X100371538Y-102172150D01*
X100371536Y-102172154D01*
X100244133Y-102405474D01*
X100244126Y-102405488D01*
X100151229Y-102654557D01*
X100151226Y-102654568D01*
X100094716Y-102914338D01*
X100075753Y-103179495D01*
X100075753Y-103179504D01*
X94616424Y-103179504D01*
X94814005Y-103057849D01*
X94992582Y-102900681D01*
X95142029Y-102715594D01*
X95258046Y-102507913D01*
X95337297Y-102283613D01*
X95377500Y-102049145D01*
X95377500Y-100092830D01*
X95362379Y-99915167D01*
X95302436Y-99684954D01*
X95204449Y-99468182D01*
X95110702Y-99329479D01*
X100089000Y-99329479D01*
X100099493Y-99432191D01*
X100099494Y-99432198D01*
X100154639Y-99598614D01*
X100154641Y-99598620D01*
X100246681Y-99747840D01*
X100246684Y-99747844D01*
X100370655Y-99871815D01*
X100370659Y-99871818D01*
X100519879Y-99963858D01*
X100519885Y-99963860D01*
X100686301Y-100019005D01*
X100686308Y-100019006D01*
X100789020Y-100029500D01*
X101689000Y-100029500D01*
X101689000Y-98994819D01*
X101846557Y-99029500D01*
X101985084Y-99029500D01*
X102122802Y-99014522D01*
X102189000Y-98992217D01*
X102189000Y-100029500D01*
X103088980Y-100029500D01*
X103191691Y-100019006D01*
X103191698Y-100019005D01*
X103358114Y-99963860D01*
X103358120Y-99963858D01*
X103507340Y-99871818D01*
X103507344Y-99871815D01*
X103631315Y-99747844D01*
X103631318Y-99747840D01*
X103723358Y-99598620D01*
X103723360Y-99598614D01*
X103778505Y-99432198D01*
X103778506Y-99432191D01*
X103789000Y-99329479D01*
X103789000Y-98429500D01*
X102754376Y-98429500D01*
X102762847Y-98408240D01*
X102792758Y-98225789D01*
X102782749Y-98041174D01*
X102751742Y-97929500D01*
X103789000Y-97929500D01*
X103789000Y-97029520D01*
X103778506Y-96926808D01*
X103778505Y-96926801D01*
X103723360Y-96760385D01*
X103723358Y-96760379D01*
X103631318Y-96611159D01*
X103631315Y-96611155D01*
X103507344Y-96487184D01*
X103507340Y-96487181D01*
X103358120Y-96395141D01*
X103358114Y-96395139D01*
X103191698Y-96339994D01*
X103191691Y-96339993D01*
X103088980Y-96329500D01*
X102189000Y-96329500D01*
X102189000Y-97364180D01*
X102031443Y-97329500D01*
X101892916Y-97329500D01*
X101755198Y-97344478D01*
X101689000Y-97366782D01*
X101689000Y-96329500D01*
X100789020Y-96329500D01*
X100686308Y-96339993D01*
X100686301Y-96339994D01*
X100519885Y-96395139D01*
X100519879Y-96395141D01*
X100370659Y-96487181D01*
X100370655Y-96487184D01*
X100246684Y-96611155D01*
X100246681Y-96611159D01*
X100154641Y-96760379D01*
X100154639Y-96760385D01*
X100099494Y-96926801D01*
X100099493Y-96926808D01*
X100089000Y-97029520D01*
X100089000Y-97929500D01*
X101123624Y-97929500D01*
X101115153Y-97950760D01*
X101085242Y-98133211D01*
X101095251Y-98317826D01*
X101126258Y-98429500D01*
X100089000Y-98429500D01*
X100089000Y-99329479D01*
X95110702Y-99329479D01*
X95071236Y-99271088D01*
X95032604Y-99230780D01*
X94906638Y-99099348D01*
X94906631Y-99099342D01*
X94816796Y-99032900D01*
X94715369Y-98957885D01*
X94502951Y-98850786D01*
X94431257Y-98828830D01*
X94275490Y-98781127D01*
X94275486Y-98781126D01*
X94039528Y-98750911D01*
X94039524Y-98750910D01*
X93801852Y-98761006D01*
X93801848Y-98761007D01*
X93569301Y-98811124D01*
X93348565Y-98899824D01*
X93145996Y-99024549D01*
X92967419Y-99181717D01*
X92825703Y-99357228D01*
X92762365Y-99403382D01*
X92684436Y-99411684D01*
X92612796Y-99379909D01*
X92582475Y-99346898D01*
X92531236Y-99271088D01*
X92492604Y-99230780D01*
X92366638Y-99099348D01*
X92366631Y-99099342D01*
X92276796Y-99032900D01*
X92175369Y-98957885D01*
X91962951Y-98850786D01*
X91891257Y-98828830D01*
X91735490Y-98781127D01*
X91735486Y-98781126D01*
X91499528Y-98750911D01*
X91499524Y-98750910D01*
X91261852Y-98761006D01*
X91261848Y-98761007D01*
X91029301Y-98811124D01*
X90808565Y-98899824D01*
X90605996Y-99024549D01*
X90427419Y-99181717D01*
X90285703Y-99357228D01*
X90222365Y-99403382D01*
X90144436Y-99411684D01*
X90072796Y-99379909D01*
X90042475Y-99346898D01*
X89991236Y-99271088D01*
X89952604Y-99230780D01*
X89826638Y-99099348D01*
X89826631Y-99099342D01*
X89736796Y-99032900D01*
X89635369Y-98957885D01*
X89422951Y-98850786D01*
X89351257Y-98828830D01*
X89195490Y-98781127D01*
X89195487Y-98781126D01*
X89051127Y-98762640D01*
X88978616Y-98732904D01*
X88930688Y-98670898D01*
X88920184Y-98593235D01*
X88949920Y-98520724D01*
X88954354Y-98515178D01*
X89035520Y-98418450D01*
X89131013Y-98253050D01*
X89196335Y-98073580D01*
X89229500Y-97885494D01*
X89229500Y-97790000D01*
X89229500Y-97765469D01*
X89229500Y-95490688D01*
X89229500Y-95419617D01*
X89226730Y-95403910D01*
X89200194Y-95253417D01*
X89197518Y-95246066D01*
X89142473Y-95094828D01*
X89058090Y-94948672D01*
X89058088Y-94948670D01*
X89058085Y-94948665D01*
X88949611Y-94819393D01*
X88949606Y-94819388D01*
X88820334Y-94710914D01*
X88820328Y-94710910D01*
X88674172Y-94626527D01*
X88674170Y-94626526D01*
X88674168Y-94626525D01*
X88515582Y-94568805D01*
X88349383Y-94539500D01*
X88292480Y-94539500D01*
X81939531Y-94539500D01*
X81915000Y-94539500D01*
X81830617Y-94539500D01*
X81664417Y-94568805D01*
X81505831Y-94626525D01*
X81359671Y-94710910D01*
X81359665Y-94710914D01*
X81230393Y-94819388D01*
X81230388Y-94819393D01*
X81121914Y-94948665D01*
X81121910Y-94948671D01*
X81037525Y-95094831D01*
X80979805Y-95253417D01*
X80950500Y-95419616D01*
X80950500Y-97885494D01*
X80983366Y-98071888D01*
X80983665Y-98073580D01*
X81048987Y-98253050D01*
X81048988Y-98253052D01*
X81048989Y-98253054D01*
X81144477Y-98418445D01*
X81144483Y-98418454D01*
X81153752Y-98429500D01*
X81221690Y-98510465D01*
X81222924Y-98511935D01*
X81256045Y-98582962D01*
X81249215Y-98661034D01*
X81204263Y-98725232D01*
X81133236Y-98758353D01*
X81113377Y-98760516D01*
X81101864Y-98761005D01*
X81101848Y-98761007D01*
X80869301Y-98811124D01*
X80648565Y-98899824D01*
X80445996Y-99024549D01*
X80267419Y-99181717D01*
X80125703Y-99357228D01*
X80062365Y-99403382D01*
X79984436Y-99411684D01*
X79912796Y-99379909D01*
X79882475Y-99346898D01*
X79831236Y-99271088D01*
X79792604Y-99230780D01*
X79666638Y-99099348D01*
X79666631Y-99099342D01*
X79576796Y-99032900D01*
X79475369Y-98957885D01*
X79262951Y-98850786D01*
X79191257Y-98828830D01*
X79035490Y-98781127D01*
X79035486Y-98781126D01*
X78799528Y-98750911D01*
X78799524Y-98750910D01*
X78561852Y-98761006D01*
X78561848Y-98761007D01*
X78329301Y-98811124D01*
X78108565Y-98899824D01*
X77905996Y-99024549D01*
X77727420Y-99181716D01*
X77577971Y-99366805D01*
X77577967Y-99366811D01*
X77461955Y-99574483D01*
X77382702Y-99798788D01*
X77344943Y-100019005D01*
X77342500Y-100033255D01*
X77342500Y-101989570D01*
X76910500Y-101989570D01*
X76910500Y-93581000D01*
X104816001Y-93581000D01*
X104816001Y-93667649D01*
X104826318Y-93768647D01*
X104880547Y-93932303D01*
X104971053Y-94079036D01*
X105092963Y-94200946D01*
X105239695Y-94291452D01*
X105403352Y-94345681D01*
X105504350Y-94355999D01*
X105541000Y-94355998D01*
X105541000Y-93581000D01*
X106041000Y-93581000D01*
X106041000Y-94355999D01*
X106077649Y-94355999D01*
X106077649Y-94355998D01*
X106178647Y-94345681D01*
X106342303Y-94291452D01*
X106489036Y-94200946D01*
X106610946Y-94079036D01*
X106701452Y-93932304D01*
X106755681Y-93768647D01*
X106766000Y-93667648D01*
X106766000Y-93581000D01*
X106041000Y-93581000D01*
X105541000Y-93581000D01*
X104816001Y-93581000D01*
X76910500Y-93581000D01*
X76910500Y-85225570D01*
X77342500Y-85225570D01*
X77357621Y-85403233D01*
X77417564Y-85633446D01*
X77445786Y-85695880D01*
X77515550Y-85850216D01*
X77515553Y-85850221D01*
X77648763Y-86047311D01*
X77813361Y-86219051D01*
X77813366Y-86219055D01*
X77813369Y-86219058D01*
X78004631Y-86360515D01*
X78217049Y-86467614D01*
X78444511Y-86537273D01*
X78680474Y-86567489D01*
X78680474Y-86567488D01*
X78680475Y-86567489D01*
X78823700Y-86561405D01*
X78918149Y-86557393D01*
X79150699Y-86507275D01*
X79371435Y-86418576D01*
X79574005Y-86293849D01*
X79752582Y-86136681D01*
X79899882Y-85954252D01*
X79963217Y-85908100D01*
X80041146Y-85899798D01*
X80112786Y-85931572D01*
X80143110Y-85964586D01*
X80195398Y-86041948D01*
X80359004Y-86212653D01*
X80549099Y-86353247D01*
X80760228Y-86459696D01*
X80986309Y-86528933D01*
X80986312Y-86528934D01*
X81030000Y-86534527D01*
X81030000Y-85483497D01*
X81135408Y-85531635D01*
X81243666Y-85547200D01*
X81316334Y-85547200D01*
X81424592Y-85531635D01*
X81530000Y-85483497D01*
X81530000Y-86533212D01*
X81688197Y-86499117D01*
X81907592Y-86410958D01*
X82108932Y-86286989D01*
X82286420Y-86130780D01*
X82429316Y-85953807D01*
X82492654Y-85907652D01*
X82570583Y-85899350D01*
X82642223Y-85931124D01*
X82672547Y-85964138D01*
X82728763Y-86047311D01*
X82893361Y-86219051D01*
X82893366Y-86219055D01*
X82893369Y-86219058D01*
X82932628Y-86248094D01*
X82981428Y-86309414D01*
X82994000Y-86369818D01*
X82994000Y-86574254D01*
X82993501Y-86586541D01*
X82989433Y-86636500D01*
X82999776Y-86712420D01*
X83000274Y-86716487D01*
X83008553Y-86792612D01*
X83010319Y-86800634D01*
X83010141Y-86800673D01*
X83011530Y-86806599D01*
X83011707Y-86806556D01*
X83013687Y-86814521D01*
X83040098Y-86886409D01*
X83041459Y-86890274D01*
X83065923Y-86962878D01*
X83069368Y-86970324D01*
X83069204Y-86970399D01*
X83071837Y-86975891D01*
X83071998Y-86975812D01*
X83075643Y-86983162D01*
X83116892Y-87047695D01*
X83119054Y-87051180D01*
X83158546Y-87116818D01*
X83163515Y-87123354D01*
X83163369Y-87123464D01*
X83167120Y-87128262D01*
X83167262Y-87128148D01*
X83172406Y-87134547D01*
X83226582Y-87188723D01*
X83229406Y-87191624D01*
X83278396Y-87243341D01*
X83282108Y-87247260D01*
X83288360Y-87252570D01*
X83288242Y-87252708D01*
X83301634Y-87263775D01*
X86001831Y-89963971D01*
X86010167Y-89973014D01*
X86040232Y-90008410D01*
X86042610Y-90011209D01*
X86086409Y-90044504D01*
X86103600Y-90057572D01*
X86106832Y-90060099D01*
X86166519Y-90108078D01*
X86173435Y-90112498D01*
X86173337Y-90112650D01*
X86178517Y-90115863D01*
X86178611Y-90115708D01*
X86185643Y-90119939D01*
X86255156Y-90152099D01*
X86258850Y-90153868D01*
X86327478Y-90187905D01*
X86327481Y-90187905D01*
X86335184Y-90190736D01*
X86335120Y-90190907D01*
X86340868Y-90192931D01*
X86340927Y-90192758D01*
X86348699Y-90195376D01*
X86348702Y-90195378D01*
X86423525Y-90211847D01*
X86427440Y-90212764D01*
X86501833Y-90231266D01*
X86501838Y-90231266D01*
X86509964Y-90232373D01*
X86509939Y-90232553D01*
X86515987Y-90233294D01*
X86516007Y-90233112D01*
X86524162Y-90233998D01*
X86524167Y-90234000D01*
X86600716Y-90234000D01*
X86604814Y-90234055D01*
X86606523Y-90234101D01*
X86681433Y-90236130D01*
X86681442Y-90236128D01*
X86689607Y-90235464D01*
X86689621Y-90235644D01*
X86706926Y-90234000D01*
X102068254Y-90234000D01*
X102080541Y-90234499D01*
X102084476Y-90234819D01*
X102130499Y-90238567D01*
X102206425Y-90228221D01*
X102210445Y-90227729D01*
X102286613Y-90219446D01*
X102286616Y-90219445D01*
X102294630Y-90217681D01*
X102294669Y-90217861D01*
X102300589Y-90216474D01*
X102300545Y-90216296D01*
X102308511Y-90214314D01*
X102308513Y-90214312D01*
X102308521Y-90214312D01*
X102380488Y-90187871D01*
X102384225Y-90186555D01*
X102456874Y-90162078D01*
X102456880Y-90162073D01*
X102464321Y-90158632D01*
X102464397Y-90158798D01*
X102469892Y-90156165D01*
X102469811Y-90156002D01*
X102477166Y-90152354D01*
X102504198Y-90135075D01*
X102541732Y-90111083D01*
X102545127Y-90108976D01*
X102610822Y-90069451D01*
X102610830Y-90069443D01*
X102617359Y-90064481D01*
X102617469Y-90064627D01*
X102622266Y-90060876D01*
X102622152Y-90060734D01*
X102628541Y-90055596D01*
X102628549Y-90055592D01*
X102682758Y-90001381D01*
X102685622Y-89998594D01*
X102741258Y-89945894D01*
X102741260Y-89945890D01*
X102746576Y-89939634D01*
X102746714Y-89939752D01*
X102757775Y-89926364D01*
X104310796Y-88373344D01*
X104378667Y-88334159D01*
X104417852Y-88329000D01*
X104881984Y-88329000D01*
X104957684Y-88349284D01*
X105013100Y-88404700D01*
X105033384Y-88480400D01*
X105013100Y-88556100D01*
X104989040Y-88587456D01*
X104964340Y-88612155D01*
X104872791Y-88760579D01*
X104859880Y-88799544D01*
X104817940Y-88926115D01*
X104817937Y-88926123D01*
X104807500Y-89028285D01*
X104807500Y-89627714D01*
X104817938Y-89729884D01*
X104817938Y-89729885D01*
X104872789Y-89895417D01*
X104872789Y-89895418D01*
X104942459Y-90008369D01*
X104964936Y-90083447D01*
X104965000Y-90087850D01*
X104965000Y-90783649D01*
X104944716Y-90859349D01*
X104942459Y-90863130D01*
X104872791Y-90976079D01*
X104872790Y-90976082D01*
X104817940Y-91141615D01*
X104817937Y-91141623D01*
X104807500Y-91243785D01*
X104807500Y-91918214D01*
X104817938Y-92020384D01*
X104817938Y-92020385D01*
X104872789Y-92185917D01*
X104872790Y-92185918D01*
X104964340Y-92334344D01*
X104984950Y-92354954D01*
X105024135Y-92422825D01*
X105024135Y-92501195D01*
X104984953Y-92569063D01*
X104971053Y-92582963D01*
X104880547Y-92729695D01*
X104826318Y-92893352D01*
X104816000Y-92994351D01*
X104816000Y-93081000D01*
X106765999Y-93081000D01*
X106765999Y-92994351D01*
X106765998Y-92994350D01*
X106755681Y-92893352D01*
X106701452Y-92729696D01*
X106610946Y-92582963D01*
X106597049Y-92569066D01*
X106557864Y-92501195D01*
X106557864Y-92422825D01*
X106597047Y-92354956D01*
X106617658Y-92334346D01*
X106620594Y-92329587D01*
X106635217Y-92305879D01*
X106709209Y-92185920D01*
X106764062Y-92020381D01*
X106774500Y-91918213D01*
X106774499Y-91243788D01*
X106764062Y-91141619D01*
X106764061Y-91141615D01*
X106764061Y-91141614D01*
X106709210Y-90976082D01*
X106709209Y-90976081D01*
X106709209Y-90976080D01*
X106682002Y-90931971D01*
X106639541Y-90863130D01*
X106617064Y-90788052D01*
X106617000Y-90783649D01*
X106617000Y-90087850D01*
X106637284Y-90012150D01*
X106639541Y-90008369D01*
X106678076Y-89945894D01*
X106709209Y-89895420D01*
X106764062Y-89729881D01*
X106774500Y-89627713D01*
X106774499Y-89028288D01*
X106764062Y-88926119D01*
X106764061Y-88926115D01*
X106764061Y-88926114D01*
X106709210Y-88760582D01*
X106709209Y-88760581D01*
X106709209Y-88760580D01*
X106617658Y-88612154D01*
X106528060Y-88522556D01*
X106488875Y-88454685D01*
X106488875Y-88376315D01*
X106528060Y-88308444D01*
X106569844Y-88266660D01*
X106617658Y-88218846D01*
X106709209Y-88070420D01*
X106764062Y-87904881D01*
X106774500Y-87802713D01*
X106774499Y-87273899D01*
X106794783Y-87198200D01*
X106850199Y-87142784D01*
X106925899Y-87122500D01*
X112160070Y-87122500D01*
X112235770Y-87142784D01*
X112291186Y-87198200D01*
X112311470Y-87273900D01*
X112291186Y-87349600D01*
X112235770Y-87405016D01*
X112210075Y-87416804D01*
X111930158Y-87514751D01*
X111639784Y-87654588D01*
X111639781Y-87654590D01*
X111366880Y-87826065D01*
X111114913Y-88027002D01*
X111114903Y-88027011D01*
X110887011Y-88254903D01*
X110887002Y-88254913D01*
X110686065Y-88506880D01*
X110514590Y-88779781D01*
X110514588Y-88779784D01*
X110374751Y-89070158D01*
X110268302Y-89374371D01*
X110268301Y-89374375D01*
X110196587Y-89688576D01*
X110196586Y-89688582D01*
X110196586Y-89688584D01*
X110191451Y-89734159D01*
X110160500Y-90008849D01*
X110160500Y-105825150D01*
X110196586Y-106145412D01*
X110196587Y-106145423D01*
X110268301Y-106459624D01*
X110268302Y-106459628D01*
X110374751Y-106763841D01*
X110514588Y-107054215D01*
X110514590Y-107054218D01*
X110636940Y-107248938D01*
X110686065Y-107327119D01*
X110887002Y-107579086D01*
X110887011Y-107579096D01*
X111114903Y-107806988D01*
X111114913Y-107806997D01*
X111366880Y-108007934D01*
X111366883Y-108007936D01*
X111366887Y-108007939D01*
X111639782Y-108179410D01*
X111930160Y-108319249D01*
X112234369Y-108425697D01*
X112548584Y-108497414D01*
X112822686Y-108528298D01*
X112868850Y-108533500D01*
X112868852Y-108533500D01*
X128431150Y-108533500D01*
X128474210Y-108528648D01*
X128751416Y-108497414D01*
X129065631Y-108425697D01*
X129369840Y-108319249D01*
X129660218Y-108179410D01*
X129933113Y-108007939D01*
X130185094Y-107806991D01*
X130412991Y-107579094D01*
X130613939Y-107327113D01*
X130785410Y-107054218D01*
X130925249Y-106763840D01*
X131031697Y-106459631D01*
X131103414Y-106145416D01*
X131138949Y-105830040D01*
X131139500Y-105825150D01*
X131139500Y-90008849D01*
X131131701Y-89939634D01*
X131103414Y-89688584D01*
X131031697Y-89374369D01*
X130925249Y-89070160D01*
X130843641Y-88900700D01*
X141522701Y-88900700D01*
X141522701Y-88975681D01*
X141533193Y-89078390D01*
X141533195Y-89078402D01*
X141588339Y-89244815D01*
X141588341Y-89244821D01*
X141680381Y-89394041D01*
X141680384Y-89394045D01*
X141804354Y-89518015D01*
X141804358Y-89518018D01*
X141953578Y-89610058D01*
X141953584Y-89610060D01*
X142120000Y-89665205D01*
X142120007Y-89665206D01*
X142222718Y-89675699D01*
X142397700Y-89675699D01*
X142397700Y-88900700D01*
X141522701Y-88900700D01*
X130843641Y-88900700D01*
X130785410Y-88779782D01*
X130613939Y-88506887D01*
X130613936Y-88506883D01*
X130613934Y-88506880D01*
X130412997Y-88254913D01*
X130412988Y-88254903D01*
X130185096Y-88027011D01*
X130185086Y-88027002D01*
X129933119Y-87826065D01*
X129895954Y-87802713D01*
X129660218Y-87654590D01*
X129660215Y-87654588D01*
X129369841Y-87514751D01*
X129065628Y-87408302D01*
X129065624Y-87408301D01*
X128751423Y-87336587D01*
X128751418Y-87336586D01*
X128751416Y-87336586D01*
X128537904Y-87312528D01*
X128431150Y-87300500D01*
X128431148Y-87300500D01*
X128297480Y-87300500D01*
X123258078Y-87300500D01*
X123182378Y-87280216D01*
X123126962Y-87224800D01*
X123106678Y-87149100D01*
X123126962Y-87073400D01*
X123145565Y-87047795D01*
X123152844Y-87039709D01*
X123167040Y-87023944D01*
X123262527Y-86858556D01*
X123321542Y-86676928D01*
X123341504Y-86487000D01*
X123321542Y-86297072D01*
X123314881Y-86276573D01*
X123297573Y-86223305D01*
X123262527Y-86115444D01*
X123179652Y-85971900D01*
X123167042Y-85950058D01*
X123167039Y-85950055D01*
X123039255Y-85808136D01*
X123039254Y-85808135D01*
X123039253Y-85808134D01*
X122947388Y-85741390D01*
X122884753Y-85695882D01*
X122884749Y-85695880D01*
X122710289Y-85618206D01*
X122663587Y-85608279D01*
X122523487Y-85578500D01*
X122332513Y-85578500D01*
X122220432Y-85602323D01*
X122145710Y-85618206D01*
X121971250Y-85695880D01*
X121971246Y-85695882D01*
X121862511Y-85774884D01*
X121789346Y-85802970D01*
X121711940Y-85790710D01*
X121651035Y-85741390D01*
X121622949Y-85668225D01*
X121622949Y-85636581D01*
X121627004Y-85598000D01*
X121607042Y-85408072D01*
X121605469Y-85403232D01*
X121567100Y-85285145D01*
X121548027Y-85226444D01*
X121482091Y-85112239D01*
X121452542Y-85061058D01*
X121452539Y-85061055D01*
X121324755Y-84919136D01*
X121324754Y-84919135D01*
X121324753Y-84919134D01*
X121232888Y-84852390D01*
X121170253Y-84806882D01*
X121170249Y-84806880D01*
X120995789Y-84729206D01*
X120949087Y-84719279D01*
X120808987Y-84689500D01*
X120618013Y-84689500D01*
X120505932Y-84713323D01*
X120431210Y-84729206D01*
X120256750Y-84806880D01*
X120256746Y-84806882D01*
X120148011Y-84885884D01*
X120074846Y-84913970D01*
X119997440Y-84901710D01*
X119936535Y-84852390D01*
X119908449Y-84779225D01*
X119908449Y-84747581D01*
X119912504Y-84709000D01*
X119892542Y-84519072D01*
X119833527Y-84337444D01*
X119798437Y-84276667D01*
X119738042Y-84172058D01*
X119738039Y-84172055D01*
X119610255Y-84030136D01*
X119610254Y-84030135D01*
X119610253Y-84030134D01*
X119543901Y-83981926D01*
X119455753Y-83917882D01*
X119455749Y-83917880D01*
X119281289Y-83840206D01*
X119234587Y-83830279D01*
X119094487Y-83800500D01*
X118903513Y-83800500D01*
X118791432Y-83824323D01*
X118716710Y-83840206D01*
X118542250Y-83917880D01*
X118542246Y-83917882D01*
X118387743Y-84030136D01*
X118381848Y-84035445D01*
X118379894Y-84033275D01*
X118326247Y-84068099D01*
X118279491Y-84075500D01*
X102956653Y-84075500D01*
X102939633Y-84073621D01*
X102939579Y-84074196D01*
X102930093Y-84073299D01*
X102930091Y-84073299D01*
X102930088Y-84073299D01*
X102874708Y-84075039D01*
X102862445Y-84075425D01*
X102857691Y-84075500D01*
X102830142Y-84075500D01*
X102827314Y-84075857D01*
X102813106Y-84076975D01*
X102770113Y-84078326D01*
X102770106Y-84078327D01*
X102752577Y-84083420D01*
X102729320Y-84088237D01*
X102711203Y-84090526D01*
X102671206Y-84106361D01*
X102657718Y-84110979D01*
X102616410Y-84122980D01*
X102616405Y-84122982D01*
X102600689Y-84132277D01*
X102579363Y-84142724D01*
X102575957Y-84144073D01*
X102562381Y-84149448D01*
X102527585Y-84174729D01*
X102515668Y-84182557D01*
X102478637Y-84204457D01*
X102478636Y-84204457D01*
X102465721Y-84217373D01*
X102447664Y-84232796D01*
X102432893Y-84243528D01*
X102405477Y-84276667D01*
X102395880Y-84287213D01*
X101127939Y-85555156D01*
X101060068Y-85594341D01*
X101020883Y-85599500D01*
X95503168Y-85599500D01*
X95427468Y-85579216D01*
X95372052Y-85523800D01*
X95351768Y-85448100D01*
X95353946Y-85422513D01*
X95377500Y-85285145D01*
X95377500Y-83328836D01*
X95377500Y-83328830D01*
X95362379Y-83151167D01*
X95302436Y-82920954D01*
X95204449Y-82704182D01*
X95071236Y-82507088D01*
X94991239Y-82423620D01*
X94906638Y-82335348D01*
X94906631Y-82335342D01*
X94715369Y-82193885D01*
X94502951Y-82086786D01*
X94400079Y-82055282D01*
X94275490Y-82017127D01*
X94275486Y-82017126D01*
X94039528Y-81986911D01*
X94039524Y-81986910D01*
X93801852Y-81997006D01*
X93801848Y-81997007D01*
X93569301Y-82047124D01*
X93348565Y-82135824D01*
X93145996Y-82260549D01*
X92967419Y-82417717D01*
X92825703Y-82593228D01*
X92762365Y-82639382D01*
X92684436Y-82647684D01*
X92612796Y-82615909D01*
X92582475Y-82582898D01*
X92531236Y-82507088D01*
X92445583Y-82417719D01*
X92366638Y-82335348D01*
X92366631Y-82335342D01*
X92175369Y-82193885D01*
X91962951Y-82086786D01*
X91860079Y-82055282D01*
X91735490Y-82017127D01*
X91735486Y-82017126D01*
X91499528Y-81986911D01*
X91499524Y-81986910D01*
X91261852Y-81997006D01*
X91261848Y-81997007D01*
X91029301Y-82047124D01*
X90808565Y-82135824D01*
X90605996Y-82260549D01*
X90427419Y-82417717D01*
X90285703Y-82593228D01*
X90222365Y-82639382D01*
X90144436Y-82647684D01*
X90072796Y-82615909D01*
X90042475Y-82582898D01*
X89991236Y-82507088D01*
X89905583Y-82417719D01*
X89826638Y-82335348D01*
X89826631Y-82335342D01*
X89635369Y-82193885D01*
X89422951Y-82086786D01*
X89320079Y-82055282D01*
X89195490Y-82017127D01*
X89195486Y-82017126D01*
X88959528Y-81986911D01*
X88959524Y-81986910D01*
X88721852Y-81997006D01*
X88721848Y-81997007D01*
X88489301Y-82047124D01*
X88268565Y-82135824D01*
X88065996Y-82260549D01*
X87887419Y-82417717D01*
X87745703Y-82593228D01*
X87682365Y-82639382D01*
X87604436Y-82647684D01*
X87532796Y-82615909D01*
X87502475Y-82582898D01*
X87451236Y-82507088D01*
X87365583Y-82417719D01*
X87286638Y-82335348D01*
X87286631Y-82335342D01*
X87095369Y-82193885D01*
X86882951Y-82086786D01*
X86780079Y-82055282D01*
X86655490Y-82017127D01*
X86655486Y-82017126D01*
X86419528Y-81986911D01*
X86419524Y-81986910D01*
X86181842Y-81997007D01*
X86178175Y-81997477D01*
X86176409Y-81997238D01*
X86175425Y-81997280D01*
X86175417Y-81997103D01*
X86100512Y-81986971D01*
X86038507Y-81939041D01*
X86008774Y-81866530D01*
X86019280Y-81788867D01*
X86051889Y-81740250D01*
X89734296Y-78057844D01*
X89802167Y-78018659D01*
X89841352Y-78013500D01*
X132535647Y-78013500D01*
X132611347Y-78033784D01*
X132642703Y-78057844D01*
X137854114Y-83269255D01*
X142022339Y-87437479D01*
X142061524Y-87505350D01*
X142061524Y-87583720D01*
X142022339Y-87651591D01*
X141962909Y-87688249D01*
X141953583Y-87691339D01*
X141953578Y-87691341D01*
X141804358Y-87783381D01*
X141804354Y-87783384D01*
X141680384Y-87907354D01*
X141680381Y-87907358D01*
X141588341Y-88056578D01*
X141588339Y-88056584D01*
X141533194Y-88223000D01*
X141533193Y-88223007D01*
X141522700Y-88325719D01*
X141522700Y-88400700D01*
X142746300Y-88400700D01*
X142822000Y-88420984D01*
X142877416Y-88476400D01*
X142897700Y-88552100D01*
X142897700Y-89675699D01*
X143072681Y-89675699D01*
X143072681Y-89675698D01*
X143175390Y-89665206D01*
X143175402Y-89665204D01*
X143331278Y-89613552D01*
X143409515Y-89608995D01*
X143479550Y-89644167D01*
X143522615Y-89709645D01*
X143530300Y-89757267D01*
X143530300Y-90708989D01*
X143510016Y-90784689D01*
X143454600Y-90840105D01*
X143378900Y-90860389D01*
X143303200Y-90840105D01*
X143299419Y-90837848D01*
X143219004Y-90788247D01*
X143055347Y-90734018D01*
X142954349Y-90723700D01*
X142855200Y-90723700D01*
X142855200Y-91797300D01*
X142834916Y-91873000D01*
X142779500Y-91928416D01*
X142703800Y-91948700D01*
X141629117Y-91948700D01*
X141553417Y-91928416D01*
X141522061Y-91904356D01*
X141298323Y-91680618D01*
X141259138Y-91612747D01*
X141254809Y-91589397D01*
X141245842Y-91504072D01*
X141227850Y-91448700D01*
X141567700Y-91448700D01*
X142355200Y-91448700D01*
X142355200Y-90723700D01*
X142355199Y-90723699D01*
X142256052Y-90723700D01*
X142256049Y-90723701D01*
X142155052Y-90734018D01*
X141991396Y-90788247D01*
X141844663Y-90878753D01*
X141722753Y-91000663D01*
X141632247Y-91147395D01*
X141578018Y-91311052D01*
X141567700Y-91412051D01*
X141567700Y-91448700D01*
X141227850Y-91448700D01*
X141186827Y-91322444D01*
X141141413Y-91243785D01*
X141091342Y-91157058D01*
X141091339Y-91157055D01*
X140963555Y-91015136D01*
X140963554Y-91015135D01*
X140963553Y-91015134D01*
X140885323Y-90958296D01*
X140809053Y-90902882D01*
X140809049Y-90902880D01*
X140634589Y-90825206D01*
X140587887Y-90815279D01*
X140447787Y-90785500D01*
X140256813Y-90785500D01*
X140144732Y-90809323D01*
X140070010Y-90825206D01*
X139895550Y-90902880D01*
X139895546Y-90902882D01*
X139741044Y-91015136D01*
X139613260Y-91157055D01*
X139613257Y-91157058D01*
X139517773Y-91322443D01*
X139517772Y-91322446D01*
X139458758Y-91504068D01*
X139458758Y-91504072D01*
X139440203Y-91680618D01*
X139438796Y-91694004D01*
X139438796Y-91701934D01*
X139437278Y-91701934D01*
X139426432Y-91770412D01*
X139395177Y-91815888D01*
X138186357Y-93024708D01*
X138172963Y-93035441D01*
X138173328Y-93035882D01*
X138165994Y-93041948D01*
X138119489Y-93091471D01*
X138116185Y-93094881D01*
X138096659Y-93114408D01*
X138096657Y-93114410D01*
X138094888Y-93116691D01*
X138085640Y-93127518D01*
X138056082Y-93158994D01*
X138056079Y-93158999D01*
X138047240Y-93175076D01*
X138034207Y-93194918D01*
X138022950Y-93209431D01*
X138022948Y-93209435D01*
X138005800Y-93249061D01*
X137999528Y-93261864D01*
X137978730Y-93299697D01*
X137978729Y-93299699D01*
X137974166Y-93317473D01*
X137966474Y-93339941D01*
X137959184Y-93356787D01*
X137959182Y-93356795D01*
X137952429Y-93399433D01*
X137949537Y-93413397D01*
X137938800Y-93455215D01*
X137938800Y-93473568D01*
X137936936Y-93497252D01*
X137934065Y-93515378D01*
X137938128Y-93558359D01*
X137938800Y-93572607D01*
X137938800Y-111927126D01*
X137936917Y-111944179D01*
X137937489Y-111944233D01*
X137936592Y-111953722D01*
X137938725Y-112021598D01*
X137938800Y-112026353D01*
X137938800Y-112053982D01*
X137939160Y-112056834D01*
X137940278Y-112071044D01*
X137941634Y-112114201D01*
X137941635Y-112114206D01*
X137946755Y-112131829D01*
X137951572Y-112155087D01*
X137953873Y-112173300D01*
X137953874Y-112173303D01*
X137969764Y-112213439D01*
X137974382Y-112226925D01*
X137986431Y-112268394D01*
X137995775Y-112284194D01*
X138006223Y-112305522D01*
X138012978Y-112322583D01*
X138012982Y-112322590D01*
X138038364Y-112357526D01*
X138046194Y-112369446D01*
X138068164Y-112406596D01*
X138081139Y-112419571D01*
X138096567Y-112437635D01*
X138107357Y-112452486D01*
X138107358Y-112452487D01*
X138140622Y-112480005D01*
X138151173Y-112489605D01*
X139296209Y-113634642D01*
X139335394Y-113702513D01*
X139335394Y-113780883D01*
X139313911Y-113825928D01*
X139314025Y-113825994D01*
X139313190Y-113827438D01*
X139311647Y-113830676D01*
X139310062Y-113832857D01*
X139214571Y-113998252D01*
X139214570Y-113998255D01*
X139155556Y-114179877D01*
X139135594Y-114369809D01*
X139155556Y-114559740D01*
X139214570Y-114741362D01*
X139214571Y-114741365D01*
X139310055Y-114906750D01*
X139310058Y-114906753D01*
X139432912Y-115043197D01*
X139437845Y-115048675D01*
X139522067Y-115109866D01*
X139592344Y-115160926D01*
X139592346Y-115160927D01*
X139766810Y-115238603D01*
X139953611Y-115278309D01*
X139953614Y-115278309D01*
X140144582Y-115278309D01*
X140144585Y-115278309D01*
X140331386Y-115238603D01*
X140505850Y-115160927D01*
X140660351Y-115048675D01*
X140660356Y-115048668D01*
X140665327Y-115044195D01*
X140735156Y-115008617D01*
X140766631Y-115005309D01*
X142100616Y-115005309D01*
X142117666Y-115007191D01*
X142117721Y-115006620D01*
X142127200Y-115007514D01*
X142127210Y-115007517D01*
X142195089Y-115005383D01*
X142199844Y-115005309D01*
X142227469Y-115005309D01*
X142227474Y-115005309D01*
X142230332Y-115004947D01*
X142244539Y-115003829D01*
X142287696Y-115002474D01*
X142287698Y-115002473D01*
X142287700Y-115002473D01*
X142305318Y-114997354D01*
X142328586Y-114992535D01*
X142346790Y-114990236D01*
X142346793Y-114990235D01*
X142386926Y-114974345D01*
X142400414Y-114969725D01*
X142441884Y-114957678D01*
X142457681Y-114948334D01*
X142479019Y-114937882D01*
X142496079Y-114931128D01*
X142531036Y-114905729D01*
X142542911Y-114897929D01*
X142580089Y-114875943D01*
X142593063Y-114862967D01*
X142611122Y-114847543D01*
X142625978Y-114836751D01*
X142653509Y-114803470D01*
X142663087Y-114792943D01*
X143636989Y-113819044D01*
X143704860Y-113779859D01*
X143744045Y-113774700D01*
X144310282Y-113774700D01*
X144310283Y-113774700D01*
X144316665Y-113773893D01*
X144335641Y-113772700D01*
X144693933Y-113772700D01*
X144693938Y-113772700D01*
X144754501Y-113766189D01*
X144891504Y-113715089D01*
X145008561Y-113627461D01*
X145096189Y-113510404D01*
X145147289Y-113373401D01*
X145153800Y-113312838D01*
X145153800Y-112965562D01*
X145151082Y-112940281D01*
X145163158Y-112862849D01*
X145212334Y-112801827D01*
X145285432Y-112773567D01*
X145301615Y-112772700D01*
X145350984Y-112772700D01*
X145426684Y-112792984D01*
X145458040Y-112817044D01*
X146946673Y-114305677D01*
X146957385Y-114319046D01*
X146957829Y-114318679D01*
X146963901Y-114326019D01*
X147013255Y-114372365D01*
X147016671Y-114375675D01*
X147036130Y-114395134D01*
X147038375Y-114396876D01*
X147049204Y-114406124D01*
X147080579Y-114435586D01*
X147096579Y-114444382D01*
X147116431Y-114457421D01*
X147130859Y-114468613D01*
X147170336Y-114485696D01*
X147183124Y-114491960D01*
X147220840Y-114512695D01*
X147220844Y-114512696D01*
X147238522Y-114517235D01*
X147261001Y-114524931D01*
X147277755Y-114532181D01*
X147320263Y-114538913D01*
X147334180Y-114541795D01*
X147375870Y-114552500D01*
X147394127Y-114552500D01*
X147417810Y-114554363D01*
X147435843Y-114557220D01*
X147475379Y-114553482D01*
X147478667Y-114553172D01*
X147492914Y-114552500D01*
X149409642Y-114552500D01*
X149426672Y-114554380D01*
X149426727Y-114553806D01*
X149436208Y-114554701D01*
X149436209Y-114554702D01*
X149436209Y-114554701D01*
X149436210Y-114554702D01*
X149503872Y-114552575D01*
X149508630Y-114552500D01*
X149536157Y-114552500D01*
X149537074Y-114552383D01*
X149538959Y-114552145D01*
X149553199Y-114551023D01*
X149596189Y-114549673D01*
X149613726Y-114544577D01*
X149636980Y-114539762D01*
X149655097Y-114537474D01*
X149695110Y-114521630D01*
X149708575Y-114517021D01*
X149749893Y-114505018D01*
X149765611Y-114495722D01*
X149786934Y-114485275D01*
X149803917Y-114478552D01*
X149838737Y-114453252D01*
X149850619Y-114445447D01*
X149887662Y-114423542D01*
X149900573Y-114410629D01*
X149918640Y-114395200D01*
X149925587Y-114390153D01*
X149933407Y-114384472D01*
X149960832Y-114351318D01*
X149970412Y-114340790D01*
X150011202Y-114300000D01*
X163749719Y-114300000D01*
X163768823Y-114615840D01*
X163825860Y-114927075D01*
X163906575Y-115186098D01*
X163919995Y-115229164D01*
X164009325Y-115427648D01*
X164049855Y-115517703D01*
X164049861Y-115517713D01*
X164213554Y-115788495D01*
X164408691Y-116037567D01*
X164632432Y-116261308D01*
X164881504Y-116456445D01*
X164915561Y-116477033D01*
X165152295Y-116620144D01*
X165440836Y-116750005D01*
X165742926Y-116844140D01*
X165984325Y-116888378D01*
X166054159Y-116901176D01*
X166054158Y-116901176D01*
X166088244Y-116903237D01*
X166370000Y-116920281D01*
X166685840Y-116901176D01*
X166997074Y-116844140D01*
X167299164Y-116750005D01*
X167587705Y-116620144D01*
X167858489Y-116456449D01*
X167858491Y-116456447D01*
X167858495Y-116456445D01*
X167996387Y-116348413D01*
X168107568Y-116261308D01*
X168331308Y-116037568D01*
X168440811Y-115897798D01*
X168526445Y-115788495D01*
X168526449Y-115788489D01*
X168690144Y-115517705D01*
X168820005Y-115229164D01*
X168914140Y-114927074D01*
X168971176Y-114615840D01*
X168990281Y-114300000D01*
X168971176Y-113984160D01*
X168914140Y-113672926D01*
X168820005Y-113370836D01*
X168690144Y-113082295D01*
X168526449Y-112811511D01*
X168526445Y-112811504D01*
X168331308Y-112562432D01*
X168107567Y-112338691D01*
X167858495Y-112143554D01*
X167587713Y-111979861D01*
X167587703Y-111979855D01*
X167529637Y-111953722D01*
X167299164Y-111849995D01*
X167299157Y-111849992D01*
X167299155Y-111849992D01*
X166997075Y-111755860D01*
X166685840Y-111698823D01*
X166685841Y-111698823D01*
X166370000Y-111679719D01*
X166054159Y-111698823D01*
X165742924Y-111755860D01*
X165440844Y-111849992D01*
X165440838Y-111849994D01*
X165440836Y-111849995D01*
X165373210Y-111880431D01*
X165152296Y-111979855D01*
X165152286Y-111979861D01*
X164881504Y-112143554D01*
X164632432Y-112338691D01*
X164408691Y-112562432D01*
X164213554Y-112811504D01*
X164049861Y-113082286D01*
X164049855Y-113082296D01*
X163919994Y-113370839D01*
X163919992Y-113370844D01*
X163825860Y-113672924D01*
X163768823Y-113984159D01*
X163749719Y-114300000D01*
X150011202Y-114300000D01*
X150569160Y-113742044D01*
X150637031Y-113702859D01*
X150676216Y-113697700D01*
X151828933Y-113697700D01*
X151828938Y-113697700D01*
X151889501Y-113691189D01*
X152026504Y-113640089D01*
X152143561Y-113552461D01*
X152231189Y-113435404D01*
X152282289Y-113298401D01*
X152288800Y-113237838D01*
X152288800Y-111540562D01*
X152282289Y-111479999D01*
X152231189Y-111342996D01*
X152143561Y-111225939D01*
X152026504Y-111138311D01*
X152026502Y-111138310D01*
X151904790Y-111092913D01*
X151840952Y-111047453D01*
X151808396Y-110976165D01*
X151806300Y-110951059D01*
X151806300Y-105196740D01*
X151826584Y-105121040D01*
X151864708Y-105077264D01*
X151886300Y-105060458D01*
X151943540Y-105015906D01*
X152096022Y-104850268D01*
X152219160Y-104661791D01*
X152309596Y-104455616D01*
X152364864Y-104237368D01*
X152383456Y-104013000D01*
X152364864Y-103788632D01*
X152309596Y-103570384D01*
X152309595Y-103570381D01*
X152309595Y-103570380D01*
X152219163Y-103364216D01*
X152219160Y-103364210D01*
X152219160Y-103364209D01*
X152096022Y-103175732D01*
X151943540Y-103010094D01*
X151943538Y-103010092D01*
X151904706Y-102979867D01*
X151857428Y-102917364D01*
X151846300Y-102860393D01*
X151846300Y-98341444D01*
X151846799Y-98329156D01*
X151846856Y-98328462D01*
X151850867Y-98279201D01*
X151840522Y-98203284D01*
X151840026Y-98199229D01*
X151835856Y-98160887D01*
X151831746Y-98123087D01*
X151831745Y-98123085D01*
X151831745Y-98123080D01*
X151829981Y-98115068D01*
X151830158Y-98115028D01*
X151828769Y-98109098D01*
X151828592Y-98109143D01*
X151826611Y-98101175D01*
X151800195Y-98029274D01*
X151798832Y-98025403D01*
X151774379Y-97952828D01*
X151770933Y-97945379D01*
X151771097Y-97945302D01*
X151768463Y-97939805D01*
X151768301Y-97939886D01*
X151764655Y-97932534D01*
X151762716Y-97929500D01*
X151723392Y-97867981D01*
X151721253Y-97864531D01*
X151710252Y-97846248D01*
X151681751Y-97798878D01*
X151681744Y-97798871D01*
X151676780Y-97792340D01*
X151676924Y-97792230D01*
X151673176Y-97787435D01*
X151673035Y-97787550D01*
X151667895Y-97781155D01*
X151613732Y-97726992D01*
X151610873Y-97724054D01*
X151558194Y-97668442D01*
X151558187Y-97668437D01*
X151551933Y-97663124D01*
X151552050Y-97662985D01*
X151538661Y-97651921D01*
X150396210Y-96509469D01*
X150357025Y-96441598D01*
X150357025Y-96363228D01*
X150396210Y-96295357D01*
X150453262Y-96259509D01*
X150460164Y-96257092D01*
X150460173Y-96257091D01*
X150492635Y-96241457D01*
X150508307Y-96234965D01*
X150542320Y-96223065D01*
X150572836Y-96203889D01*
X150587674Y-96195688D01*
X150620140Y-96180055D01*
X150648320Y-96157580D01*
X150662138Y-96147776D01*
X150692656Y-96128602D01*
X150717576Y-96103680D01*
X150717583Y-96103675D01*
X150724141Y-96097116D01*
X150724144Y-96097115D01*
X151230406Y-95590851D01*
X151293509Y-95553029D01*
X151453762Y-95504417D01*
X151619320Y-95415924D01*
X151764433Y-95296833D01*
X151883524Y-95151720D01*
X151972017Y-94986162D01*
X152026511Y-94806521D01*
X152044911Y-94619700D01*
X152026511Y-94432879D01*
X151972017Y-94253238D01*
X151883524Y-94087680D01*
X151764433Y-93942567D01*
X151764432Y-93942566D01*
X151762775Y-93940547D01*
X151730431Y-93869162D01*
X151738113Y-93791169D01*
X151783762Y-93727466D01*
X151855147Y-93695122D01*
X151879809Y-93693100D01*
X154662456Y-93693100D01*
X154738156Y-93713384D01*
X154769510Y-93737442D01*
X155479942Y-94447853D01*
X156464513Y-95432396D01*
X156610454Y-95578332D01*
X156649641Y-95646203D01*
X156654800Y-95685390D01*
X156654800Y-97463545D01*
X156665412Y-97567420D01*
X156665412Y-97567422D01*
X156721185Y-97735738D01*
X156814268Y-97886649D01*
X156939650Y-98012031D01*
X156986898Y-98041174D01*
X157090562Y-98105115D01*
X157258875Y-98160887D01*
X157321203Y-98167254D01*
X157362754Y-98171500D01*
X157362756Y-98171500D01*
X159663846Y-98171500D01*
X159693524Y-98168467D01*
X159767725Y-98160887D01*
X159936038Y-98105115D01*
X160086951Y-98012030D01*
X160212330Y-97886651D01*
X160305415Y-97735738D01*
X160361187Y-97567425D01*
X160371800Y-97463544D01*
X160371800Y-95162456D01*
X160371072Y-95155335D01*
X160364891Y-95094828D01*
X160361187Y-95058575D01*
X160305415Y-94890262D01*
X160241022Y-94785866D01*
X160212331Y-94739350D01*
X160086949Y-94613968D01*
X159936038Y-94520885D01*
X159828876Y-94485376D01*
X159767725Y-94465113D01*
X159767723Y-94465112D01*
X159767721Y-94465112D01*
X159663846Y-94454500D01*
X159663844Y-94454500D01*
X157885613Y-94454500D01*
X157809913Y-94434216D01*
X157778559Y-94410157D01*
X155765802Y-92397457D01*
X155726615Y-92329587D01*
X155726614Y-92251217D01*
X155765799Y-92183346D01*
X155833669Y-92144159D01*
X155872856Y-92139000D01*
X156756984Y-92139000D01*
X156832684Y-92159284D01*
X156888100Y-92214700D01*
X156889864Y-92217841D01*
X156945836Y-92320345D01*
X156945838Y-92320349D01*
X157105146Y-92533160D01*
X157105149Y-92533163D01*
X157105152Y-92533167D01*
X157293133Y-92721148D01*
X157293136Y-92721150D01*
X157293139Y-92721153D01*
X157505950Y-92880461D01*
X157505953Y-92880463D01*
X157739279Y-93007869D01*
X157739282Y-93007870D01*
X157739288Y-93007873D01*
X157988357Y-93100770D01*
X157988359Y-93100770D01*
X157988363Y-93100772D01*
X158248132Y-93157282D01*
X158248137Y-93157282D01*
X158248140Y-93157283D01*
X158248137Y-93157283D01*
X158513296Y-93176247D01*
X158513300Y-93176247D01*
X158513304Y-93176247D01*
X158778461Y-93157283D01*
X158778464Y-93157282D01*
X158778468Y-93157282D01*
X159038237Y-93100772D01*
X159212215Y-93035882D01*
X159287311Y-93007873D01*
X159287313Y-93007871D01*
X159287321Y-93007869D01*
X159520647Y-92880463D01*
X159733467Y-92721148D01*
X159921448Y-92533167D01*
X160080763Y-92320347D01*
X160208169Y-92087021D01*
X160245881Y-91985912D01*
X160301070Y-91837942D01*
X160301072Y-91837937D01*
X160357582Y-91578168D01*
X160362882Y-91504072D01*
X160376547Y-91313004D01*
X160376547Y-91312995D01*
X160357583Y-91047838D01*
X160341973Y-90976082D01*
X160301072Y-90788063D01*
X160299426Y-90783649D01*
X160208173Y-90538988D01*
X160208166Y-90538974D01*
X160080763Y-90305653D01*
X160030543Y-90238567D01*
X159921453Y-90092839D01*
X159921450Y-90092836D01*
X159921448Y-90092833D01*
X159733467Y-89904852D01*
X159733463Y-89904849D01*
X159733460Y-89904846D01*
X159520649Y-89745538D01*
X159520645Y-89745536D01*
X159491982Y-89729885D01*
X159304869Y-89627713D01*
X159287325Y-89618133D01*
X159287311Y-89618126D01*
X159038242Y-89525229D01*
X159038231Y-89525226D01*
X158778459Y-89468716D01*
X158778462Y-89468716D01*
X158513304Y-89449753D01*
X158513296Y-89449753D01*
X158248138Y-89468716D01*
X157988368Y-89525226D01*
X157988357Y-89525229D01*
X157739288Y-89618126D01*
X157739274Y-89618133D01*
X157505954Y-89745536D01*
X157505950Y-89745538D01*
X157293139Y-89904846D01*
X157105146Y-90092839D01*
X156945838Y-90305650D01*
X156945836Y-90305654D01*
X156889864Y-90408159D01*
X156835782Y-90464878D01*
X156760586Y-90486957D01*
X156756984Y-90487000D01*
X150188061Y-90487000D01*
X150175767Y-90486500D01*
X150173456Y-90486311D01*
X150125837Y-90482431D01*
X150125828Y-90482432D01*
X150049891Y-90492774D01*
X150045833Y-90493271D01*
X149969685Y-90501554D01*
X149961669Y-90503318D01*
X149961630Y-90503141D01*
X149955729Y-90504524D01*
X149955773Y-90504700D01*
X149947811Y-90506679D01*
X149875868Y-90533106D01*
X149872011Y-90534464D01*
X149799423Y-90558923D01*
X149791973Y-90562370D01*
X149791896Y-90562205D01*
X149786437Y-90564821D01*
X149786518Y-90564984D01*
X149779166Y-90568629D01*
X149714590Y-90609901D01*
X149711114Y-90612057D01*
X149645478Y-90651549D01*
X149638946Y-90656515D01*
X149638835Y-90656369D01*
X149634062Y-90660100D01*
X149634177Y-90660242D01*
X149627780Y-90665384D01*
X149573598Y-90719560D01*
X149570669Y-90722411D01*
X149515037Y-90775111D01*
X149509728Y-90781361D01*
X149509589Y-90781242D01*
X149498534Y-90794617D01*
X147182730Y-93110238D01*
X147072165Y-93220794D01*
X146599798Y-93693100D01*
X146587033Y-93705863D01*
X146519160Y-93745044D01*
X146479984Y-93750200D01*
X146343018Y-93750200D01*
X146267318Y-93729916D01*
X146211902Y-93674500D01*
X146191618Y-93598800D01*
X146192347Y-93583960D01*
X146194868Y-93558359D01*
X146202911Y-93476700D01*
X146184511Y-93289879D01*
X146135259Y-93127518D01*
X146130018Y-93110240D01*
X146093515Y-93041948D01*
X146041524Y-92944680D01*
X145922433Y-92799567D01*
X145777320Y-92680476D01*
X145611762Y-92591983D01*
X145611761Y-92591982D01*
X145611760Y-92591982D01*
X145611757Y-92591981D01*
X145529140Y-92566919D01*
X145466006Y-92529066D01*
X145346974Y-92409970D01*
X145307808Y-92342089D01*
X145307830Y-92263719D01*
X145310344Y-92255323D01*
X145310907Y-92253622D01*
X145310909Y-92253620D01*
X145365762Y-92088081D01*
X145376200Y-91985913D01*
X145376199Y-91411488D01*
X145365762Y-91309319D01*
X145365761Y-91309315D01*
X145365761Y-91309314D01*
X145310910Y-91143782D01*
X145310909Y-91143781D01*
X145310909Y-91143780D01*
X145222633Y-91000663D01*
X145219361Y-90995358D01*
X145214941Y-90989768D01*
X145183899Y-90917807D01*
X145182300Y-90895862D01*
X145182300Y-89501494D01*
X145202584Y-89425794D01*
X145217074Y-89406908D01*
X145216263Y-89406267D01*
X145221730Y-89399353D01*
X145257241Y-89341779D01*
X145314815Y-89248438D01*
X145370587Y-89080126D01*
X145381200Y-88976245D01*
X145381199Y-88325156D01*
X145370587Y-88221274D01*
X145314815Y-88052962D01*
X145260625Y-87965107D01*
X145221731Y-87902049D01*
X145096350Y-87776668D01*
X144945438Y-87683585D01*
X144777123Y-87627812D01*
X144673247Y-87617200D01*
X144673245Y-87617200D01*
X144601052Y-87617200D01*
X144525352Y-87596916D01*
X144493996Y-87572856D01*
X133552667Y-76631526D01*
X133544333Y-76622485D01*
X133511890Y-76584291D01*
X133450888Y-76537918D01*
X133447658Y-76535393D01*
X133446875Y-76534764D01*
X133393675Y-76492000D01*
X147888901Y-76492000D01*
X147907252Y-76678331D01*
X147961603Y-76857499D01*
X147961604Y-76857502D01*
X148049862Y-77022623D01*
X148085983Y-77066636D01*
X148168643Y-77167357D01*
X148263463Y-77245174D01*
X148313376Y-77286137D01*
X148313382Y-77286140D01*
X148478499Y-77374396D01*
X148505341Y-77382538D01*
X148512879Y-77385076D01*
X148513206Y-77385160D01*
X148513209Y-77385162D01*
X148515514Y-77385759D01*
X148521514Y-77387444D01*
X148657669Y-77428747D01*
X148685272Y-77431465D01*
X148693355Y-77432482D01*
X148699771Y-77433465D01*
X148699773Y-77433466D01*
X148708172Y-77433891D01*
X148715280Y-77434421D01*
X148844000Y-77447099D01*
X148875124Y-77444033D01*
X148884580Y-77443810D01*
X148884571Y-77443616D01*
X148892233Y-77443226D01*
X148892241Y-77443227D01*
X148904292Y-77441380D01*
X148912355Y-77440366D01*
X149030331Y-77428747D01*
X149064435Y-77418401D01*
X149076388Y-77415687D01*
X149082722Y-77414046D01*
X149082734Y-77414045D01*
X149096302Y-77409019D01*
X149104883Y-77406131D01*
X149209501Y-77374396D01*
X149244888Y-77355481D01*
X149263042Y-77347314D01*
X149263445Y-77347116D01*
X149263445Y-77347115D01*
X149263453Y-77347113D01*
X149276732Y-77338835D01*
X149285369Y-77333843D01*
X149374625Y-77286136D01*
X149409157Y-77257795D01*
X149425119Y-77246346D01*
X149427000Y-77245174D01*
X149438591Y-77234155D01*
X149446789Y-77226912D01*
X149519357Y-77167357D01*
X149550649Y-77129227D01*
X149563373Y-77115541D01*
X149566679Y-77112399D01*
X149575657Y-77099498D01*
X149582858Y-77089980D01*
X149638136Y-77022625D01*
X149663650Y-76974891D01*
X149672906Y-76959777D01*
X149676771Y-76954226D01*
X149682673Y-76940470D01*
X149688267Y-76928835D01*
X149712764Y-76883004D01*
X149726394Y-76857506D01*
X149726396Y-76857501D01*
X149743542Y-76800975D01*
X149749283Y-76785250D01*
X149752769Y-76777128D01*
X149755551Y-76763586D01*
X149758972Y-76750114D01*
X149780744Y-76678340D01*
X149780747Y-76678331D01*
X149787034Y-76614488D01*
X149789402Y-76598872D01*
X149791563Y-76588358D01*
X149792099Y-76567154D01*
X149792777Y-76556186D01*
X149799099Y-76492000D01*
X149792777Y-76427818D01*
X149792099Y-76416841D01*
X149791563Y-76395642D01*
X149789399Y-76385116D01*
X149787035Y-76369516D01*
X149780747Y-76305669D01*
X149758971Y-76233886D01*
X149755552Y-76220416D01*
X149752769Y-76206872D01*
X149749283Y-76198748D01*
X149743536Y-76183001D01*
X149726396Y-76126500D01*
X149726396Y-76126499D01*
X149688262Y-76055156D01*
X149682670Y-76043521D01*
X149676771Y-76029775D01*
X149676771Y-76029774D01*
X149672898Y-76024209D01*
X149663645Y-76009101D01*
X149638136Y-75961375D01*
X149582873Y-75894037D01*
X149575644Y-75884481D01*
X149566678Y-75871599D01*
X149563367Y-75868452D01*
X149550646Y-75854769D01*
X149519357Y-75816643D01*
X149446815Y-75757109D01*
X149438573Y-75749827D01*
X149427000Y-75738826D01*
X149426997Y-75738823D01*
X149425108Y-75737646D01*
X149409150Y-75726198D01*
X149374621Y-75697861D01*
X149285395Y-75650168D01*
X149276686Y-75645134D01*
X149263453Y-75636886D01*
X149263061Y-75636694D01*
X149244881Y-75628514D01*
X149209502Y-75609604D01*
X149104919Y-75577879D01*
X149096292Y-75574975D01*
X149082735Y-75569954D01*
X149076440Y-75568324D01*
X149064443Y-75565600D01*
X149039433Y-75558014D01*
X149030331Y-75555253D01*
X149030330Y-75555252D01*
X148912368Y-75543634D01*
X148904292Y-75542618D01*
X148892245Y-75540773D01*
X148884579Y-75540384D01*
X148884588Y-75540193D01*
X148875128Y-75539966D01*
X148852097Y-75537698D01*
X148844000Y-75536901D01*
X148843998Y-75536901D01*
X148843997Y-75536901D01*
X148715318Y-75549574D01*
X148708160Y-75550108D01*
X148699772Y-75550534D01*
X148693333Y-75551520D01*
X148685261Y-75552535D01*
X148657668Y-75555253D01*
X148657665Y-75555253D01*
X148521510Y-75596555D01*
X148515542Y-75598233D01*
X148512892Y-75598919D01*
X148505326Y-75601465D01*
X148478500Y-75609603D01*
X148478496Y-75609605D01*
X148313376Y-75697862D01*
X148168643Y-75816643D01*
X148049862Y-75961376D01*
X147961604Y-76126497D01*
X147961603Y-76126500D01*
X147907252Y-76305668D01*
X147888901Y-76492000D01*
X133393675Y-76492000D01*
X133387981Y-76487423D01*
X133387982Y-76487423D01*
X133387979Y-76487421D01*
X133381065Y-76483002D01*
X133381161Y-76482850D01*
X133375986Y-76479640D01*
X133375894Y-76479795D01*
X133368856Y-76475560D01*
X133299305Y-76443382D01*
X133295610Y-76441611D01*
X133227022Y-76407594D01*
X133219318Y-76404764D01*
X133219379Y-76404596D01*
X133213630Y-76402572D01*
X133213573Y-76402742D01*
X133205793Y-76400120D01*
X133137626Y-76385116D01*
X133130997Y-76383656D01*
X133127025Y-76382726D01*
X133052668Y-76364235D01*
X133052666Y-76364234D01*
X133052663Y-76364234D01*
X133044539Y-76363127D01*
X133044562Y-76362950D01*
X133038509Y-76362209D01*
X133038490Y-76362387D01*
X133030333Y-76361500D01*
X133030332Y-76361500D01*
X132953733Y-76361500D01*
X132949633Y-76361444D01*
X132948483Y-76361412D01*
X132873073Y-76359369D01*
X132864893Y-76360036D01*
X132864878Y-76359855D01*
X132847574Y-76361500D01*
X89476245Y-76361500D01*
X89463958Y-76361001D01*
X89447700Y-76359677D01*
X89414000Y-76356933D01*
X89413999Y-76356933D01*
X89413998Y-76356933D01*
X89338082Y-76367276D01*
X89334014Y-76367774D01*
X89257887Y-76376053D01*
X89249871Y-76377818D01*
X89249832Y-76377643D01*
X89243898Y-76379034D01*
X89243942Y-76379209D01*
X89235979Y-76381189D01*
X89164069Y-76407605D01*
X89160209Y-76408964D01*
X89087620Y-76433423D01*
X89080175Y-76436868D01*
X89080099Y-76436705D01*
X89074603Y-76439338D01*
X89074684Y-76439500D01*
X89067329Y-76443147D01*
X89002782Y-76484404D01*
X88999302Y-76486563D01*
X88933677Y-76526049D01*
X88927144Y-76531016D01*
X88927036Y-76530873D01*
X88922238Y-76534624D01*
X88922351Y-76534764D01*
X88915954Y-76539906D01*
X88861789Y-76594069D01*
X88858855Y-76596924D01*
X88803247Y-76649599D01*
X88797929Y-76655861D01*
X88797790Y-76655743D01*
X88786723Y-76669135D01*
X84904456Y-80551403D01*
X84836585Y-80590588D01*
X84758215Y-80590588D01*
X84690344Y-80551403D01*
X84651159Y-80483532D01*
X84646000Y-80444347D01*
X84646000Y-74422000D01*
X143670844Y-74422000D01*
X143689435Y-74646364D01*
X143689436Y-74646369D01*
X143744704Y-74864617D01*
X143744704Y-74864619D01*
X143835136Y-75070783D01*
X143835139Y-75070789D01*
X143958276Y-75259265D01*
X143958280Y-75259270D01*
X144110758Y-75424904D01*
X144110759Y-75424905D01*
X144288425Y-75563190D01*
X144486422Y-75670340D01*
X144486425Y-75670342D01*
X144564174Y-75697033D01*
X144699365Y-75743444D01*
X144847409Y-75768148D01*
X144921430Y-75780500D01*
X144921431Y-75780500D01*
X145146570Y-75780500D01*
X145202085Y-75771236D01*
X145368635Y-75743444D01*
X145581574Y-75670342D01*
X145779576Y-75563189D01*
X145957240Y-75424906D01*
X146109722Y-75259268D01*
X146232860Y-75070791D01*
X146323296Y-74864616D01*
X146378564Y-74646368D01*
X146397156Y-74422000D01*
X151290844Y-74422000D01*
X151309435Y-74646364D01*
X151309436Y-74646369D01*
X151364704Y-74864617D01*
X151364704Y-74864619D01*
X151455136Y-75070783D01*
X151455139Y-75070789D01*
X151578276Y-75259265D01*
X151578280Y-75259270D01*
X151730758Y-75424904D01*
X151730759Y-75424905D01*
X151908425Y-75563190D01*
X152106422Y-75670340D01*
X152106425Y-75670342D01*
X152184174Y-75697033D01*
X152319365Y-75743444D01*
X152467409Y-75768148D01*
X152541430Y-75780500D01*
X152541431Y-75780500D01*
X152766570Y-75780500D01*
X152822085Y-75771236D01*
X152988635Y-75743444D01*
X153201574Y-75670342D01*
X153399576Y-75563189D01*
X153577240Y-75424906D01*
X153729722Y-75259268D01*
X153852860Y-75070791D01*
X153943296Y-74864616D01*
X153998564Y-74646368D01*
X154017156Y-74422000D01*
X153998564Y-74197632D01*
X153943296Y-73979384D01*
X153943295Y-73979381D01*
X153943295Y-73979380D01*
X153852863Y-73773216D01*
X153852860Y-73773210D01*
X153852860Y-73773209D01*
X153729722Y-73584732D01*
X153577240Y-73419094D01*
X153420977Y-73297468D01*
X153399574Y-73280809D01*
X153201577Y-73173659D01*
X153201574Y-73173657D01*
X152988641Y-73100558D01*
X152988632Y-73100555D01*
X152766570Y-73063500D01*
X152766569Y-73063500D01*
X152541431Y-73063500D01*
X152541430Y-73063500D01*
X152319367Y-73100555D01*
X152319358Y-73100558D01*
X152106425Y-73173657D01*
X152106422Y-73173659D01*
X151908425Y-73280809D01*
X151730759Y-73419094D01*
X151730758Y-73419095D01*
X151578280Y-73584729D01*
X151578276Y-73584734D01*
X151455139Y-73773210D01*
X151455136Y-73773216D01*
X151364704Y-73979380D01*
X151364704Y-73979382D01*
X151309436Y-74197630D01*
X151309435Y-74197635D01*
X151290844Y-74422000D01*
X146397156Y-74422000D01*
X146378564Y-74197632D01*
X146323296Y-73979384D01*
X146323295Y-73979381D01*
X146323295Y-73979380D01*
X146232863Y-73773216D01*
X146232860Y-73773210D01*
X146232860Y-73773209D01*
X146109722Y-73584732D01*
X145957240Y-73419094D01*
X145800977Y-73297468D01*
X145779574Y-73280809D01*
X145581577Y-73173659D01*
X145581574Y-73173657D01*
X145368641Y-73100558D01*
X145368632Y-73100555D01*
X145146570Y-73063500D01*
X145146569Y-73063500D01*
X144921431Y-73063500D01*
X144921430Y-73063500D01*
X144699367Y-73100555D01*
X144699358Y-73100558D01*
X144486425Y-73173657D01*
X144486422Y-73173659D01*
X144288425Y-73280809D01*
X144110759Y-73419094D01*
X144110758Y-73419095D01*
X143958280Y-73584729D01*
X143958276Y-73584734D01*
X143835139Y-73773210D01*
X143835136Y-73773216D01*
X143744704Y-73979380D01*
X143744704Y-73979382D01*
X143689436Y-74197630D01*
X143689435Y-74197635D01*
X143670844Y-74422000D01*
X84646000Y-74422000D01*
X84646000Y-71991999D01*
X156538532Y-71991999D01*
X156545897Y-72076182D01*
X156546473Y-72089377D01*
X156546473Y-72105518D01*
X156549276Y-72121421D01*
X156550998Y-72134503D01*
X156558364Y-72218690D01*
X156580236Y-72300319D01*
X156583092Y-72313200D01*
X156585898Y-72329108D01*
X156591419Y-72344278D01*
X156595388Y-72356867D01*
X156617262Y-72438499D01*
X156652975Y-72515087D01*
X156658026Y-72527279D01*
X156663549Y-72542450D01*
X156663553Y-72542459D01*
X156671619Y-72556431D01*
X156677714Y-72568140D01*
X156713429Y-72644730D01*
X156713431Y-72644733D01*
X156713432Y-72644734D01*
X156761894Y-72713945D01*
X156761898Y-72713951D01*
X156768995Y-72725092D01*
X156777066Y-72739072D01*
X156777068Y-72739075D01*
X156787439Y-72751434D01*
X156795483Y-72761917D01*
X156843946Y-72831131D01*
X156843952Y-72831138D01*
X156903708Y-72890894D01*
X156912631Y-72900632D01*
X156923003Y-72912993D01*
X156923005Y-72912995D01*
X156935366Y-72923367D01*
X156945105Y-72932291D01*
X157004861Y-72992047D01*
X157074088Y-73040519D01*
X157084544Y-73048542D01*
X157094509Y-73056904D01*
X157096927Y-73058933D01*
X157104234Y-73063151D01*
X157110904Y-73067002D01*
X157122034Y-73074092D01*
X157159828Y-73100555D01*
X157191258Y-73122563D01*
X157191260Y-73122564D01*
X157191266Y-73122568D01*
X157267868Y-73158288D01*
X157279563Y-73164376D01*
X157293547Y-73172450D01*
X157308726Y-73177974D01*
X157320905Y-73183020D01*
X157368651Y-73205284D01*
X157385477Y-73213131D01*
X157397504Y-73218739D01*
X157479134Y-73240611D01*
X157491714Y-73244577D01*
X157506893Y-73250102D01*
X157522789Y-73252905D01*
X157535666Y-73255759D01*
X157617308Y-73277635D01*
X157701497Y-73285000D01*
X157714580Y-73286723D01*
X157723967Y-73288378D01*
X157730480Y-73289527D01*
X157746623Y-73289527D01*
X157759817Y-73290102D01*
X157844000Y-73297468D01*
X157928182Y-73290102D01*
X157941377Y-73289527D01*
X157957520Y-73289527D01*
X157962139Y-73288712D01*
X157973422Y-73286722D01*
X157986502Y-73285000D01*
X158070692Y-73277635D01*
X158152350Y-73255754D01*
X158165200Y-73252906D01*
X158181107Y-73250102D01*
X158196296Y-73244573D01*
X158208830Y-73240621D01*
X158290496Y-73218739D01*
X158367113Y-73183011D01*
X158379278Y-73177973D01*
X158394453Y-73172450D01*
X158408450Y-73164368D01*
X158420122Y-73158292D01*
X158496734Y-73122568D01*
X158565966Y-73074091D01*
X158577072Y-73067015D01*
X158591074Y-73058932D01*
X158603463Y-73048536D01*
X158613886Y-73040537D01*
X158683139Y-72992047D01*
X158742916Y-72932269D01*
X158752622Y-72923376D01*
X158764995Y-72912995D01*
X158775376Y-72900622D01*
X158784269Y-72890916D01*
X158844047Y-72831139D01*
X158892537Y-72761886D01*
X158900536Y-72751463D01*
X158910932Y-72739074D01*
X158919015Y-72725072D01*
X158926091Y-72713966D01*
X158974568Y-72644734D01*
X159010292Y-72568122D01*
X159016368Y-72556450D01*
X159024450Y-72542453D01*
X159029973Y-72527278D01*
X159035011Y-72515113D01*
X159070739Y-72438496D01*
X159092621Y-72356830D01*
X159096573Y-72344296D01*
X159102102Y-72329107D01*
X159104906Y-72313200D01*
X159107754Y-72300350D01*
X159129635Y-72218692D01*
X159137000Y-72134499D01*
X159138724Y-72121415D01*
X159141526Y-72105522D01*
X159141527Y-72105519D01*
X159142079Y-72080160D01*
X159142616Y-72070316D01*
X159149468Y-71992000D01*
X159142616Y-71913683D01*
X159142079Y-71903839D01*
X159141527Y-71878481D01*
X159138723Y-71862578D01*
X159137001Y-71849503D01*
X159129635Y-71765308D01*
X159107759Y-71683666D01*
X159104904Y-71670785D01*
X159102102Y-71654893D01*
X159096577Y-71639714D01*
X159092610Y-71627129D01*
X159070739Y-71545504D01*
X159035020Y-71468904D01*
X159029974Y-71456726D01*
X159024450Y-71441547D01*
X159016376Y-71427563D01*
X159010288Y-71415868D01*
X158974568Y-71339266D01*
X158974566Y-71339263D01*
X158974563Y-71339258D01*
X158953381Y-71309008D01*
X158926092Y-71270034D01*
X158919000Y-71258901D01*
X158910933Y-71244927D01*
X158908904Y-71242509D01*
X158900542Y-71232544D01*
X158892516Y-71222083D01*
X158844047Y-71152861D01*
X158784291Y-71093105D01*
X158775367Y-71083366D01*
X158764995Y-71071005D01*
X158764993Y-71071003D01*
X158752632Y-71060631D01*
X158742894Y-71051708D01*
X158683138Y-70991952D01*
X158683131Y-70991946D01*
X158613917Y-70943483D01*
X158603434Y-70935439D01*
X158591075Y-70925068D01*
X158591072Y-70925066D01*
X158577092Y-70916995D01*
X158565951Y-70909898D01*
X158496734Y-70861432D01*
X158496733Y-70861431D01*
X158496730Y-70861429D01*
X158420140Y-70825714D01*
X158408431Y-70819619D01*
X158394459Y-70811553D01*
X158394455Y-70811551D01*
X158394453Y-70811550D01*
X158393266Y-70811118D01*
X158379279Y-70806026D01*
X158367087Y-70800975D01*
X158290499Y-70765262D01*
X158290496Y-70765261D01*
X158272396Y-70760411D01*
X158208867Y-70743388D01*
X158196278Y-70739419D01*
X158181108Y-70733898D01*
X158165200Y-70731092D01*
X158152319Y-70728236D01*
X158070690Y-70706364D01*
X157986503Y-70698998D01*
X157973421Y-70697276D01*
X157959942Y-70694900D01*
X157957519Y-70694473D01*
X157957518Y-70694473D01*
X157941377Y-70694473D01*
X157928182Y-70693897D01*
X157844000Y-70686532D01*
X157759818Y-70693897D01*
X157746623Y-70694473D01*
X157730479Y-70694473D01*
X157714578Y-70697276D01*
X157701497Y-70698998D01*
X157617311Y-70706364D01*
X157617304Y-70706365D01*
X157535668Y-70728238D01*
X157522789Y-70731094D01*
X157506892Y-70733898D01*
X157491724Y-70739418D01*
X157479139Y-70743385D01*
X157397506Y-70765259D01*
X157320904Y-70800979D01*
X157308710Y-70806030D01*
X157293548Y-70811549D01*
X157293547Y-70811549D01*
X157279556Y-70819626D01*
X157267854Y-70825717D01*
X157191268Y-70861430D01*
X157122049Y-70909898D01*
X157110913Y-70916992D01*
X157096931Y-70925064D01*
X157096926Y-70925068D01*
X157084555Y-70935448D01*
X157074083Y-70943483D01*
X157004858Y-70991955D01*
X156945098Y-71051714D01*
X156935367Y-71060631D01*
X156923006Y-71071003D01*
X156923003Y-71071006D01*
X156912631Y-71083367D01*
X156903714Y-71093098D01*
X156843955Y-71152858D01*
X156795483Y-71222083D01*
X156787448Y-71232555D01*
X156777068Y-71244926D01*
X156777064Y-71244931D01*
X156768992Y-71258913D01*
X156761898Y-71270049D01*
X156713430Y-71339268D01*
X156677717Y-71415854D01*
X156671626Y-71427556D01*
X156663549Y-71441547D01*
X156663549Y-71441548D01*
X156658030Y-71456710D01*
X156652979Y-71468904D01*
X156617259Y-71545506D01*
X156595385Y-71627139D01*
X156591418Y-71639724D01*
X156585898Y-71654892D01*
X156583094Y-71670789D01*
X156580238Y-71683668D01*
X156558365Y-71765304D01*
X156558364Y-71765311D01*
X156550998Y-71849497D01*
X156549276Y-71862578D01*
X156546473Y-71878479D01*
X156546473Y-71894622D01*
X156545897Y-71907817D01*
X156538532Y-71991999D01*
X84646000Y-71991999D01*
X84646000Y-67992000D01*
X85955317Y-67992000D01*
X85974023Y-68241607D01*
X86029714Y-68485608D01*
X86029720Y-68485626D01*
X86121162Y-68718618D01*
X86246307Y-68935376D01*
X86246312Y-68935383D01*
X86284800Y-68983644D01*
X87027452Y-68240991D01*
X87037188Y-68270956D01*
X87125186Y-68409619D01*
X87244903Y-68522040D01*
X87379510Y-68596041D01*
X86638403Y-69337149D01*
X86792657Y-69442317D01*
X87018167Y-69550917D01*
X87257353Y-69624695D01*
X87257356Y-69624696D01*
X87504853Y-69662000D01*
X87755147Y-69662000D01*
X88002643Y-69624696D01*
X88002646Y-69624695D01*
X88241832Y-69550917D01*
X88467344Y-69442316D01*
X88621594Y-69337149D01*
X88621595Y-69337148D01*
X87877533Y-68593086D01*
X87945629Y-68566126D01*
X88078492Y-68469595D01*
X88183175Y-68343055D01*
X88231632Y-68240078D01*
X88975198Y-68983645D01*
X88975199Y-68983644D01*
X89013690Y-68935380D01*
X89138837Y-68718618D01*
X89230279Y-68485626D01*
X89230285Y-68485608D01*
X89285976Y-68241607D01*
X89304682Y-67992000D01*
X89285976Y-67742392D01*
X89230285Y-67498391D01*
X89230279Y-67498373D01*
X89138837Y-67265381D01*
X89013692Y-67048623D01*
X89013681Y-67048607D01*
X88975200Y-67000354D01*
X88975198Y-67000354D01*
X88232546Y-67743005D01*
X88222812Y-67713044D01*
X88134814Y-67574381D01*
X88015097Y-67461960D01*
X87880487Y-67387956D01*
X88621594Y-66646850D01*
X88467340Y-66541681D01*
X88241832Y-66433082D01*
X88002646Y-66359304D01*
X88002643Y-66359303D01*
X87755147Y-66322000D01*
X87504853Y-66322000D01*
X87257356Y-66359303D01*
X87257353Y-66359304D01*
X87018167Y-66433082D01*
X86792661Y-66541681D01*
X86792660Y-66541681D01*
X86638404Y-66646850D01*
X87382466Y-67390912D01*
X87314371Y-67417874D01*
X87181508Y-67514405D01*
X87076825Y-67640945D01*
X87028367Y-67743921D01*
X86284800Y-67000354D01*
X86284799Y-67000354D01*
X86246317Y-67048608D01*
X86246309Y-67048621D01*
X86121162Y-67265381D01*
X86029720Y-67498373D01*
X86029714Y-67498391D01*
X85974023Y-67742392D01*
X85955317Y-67992000D01*
X84646000Y-67992000D01*
X84646000Y-62992000D01*
X85946793Y-62992000D01*
X85954746Y-63098131D01*
X85965594Y-63242877D01*
X86021571Y-63488129D01*
X86113482Y-63722316D01*
X86239262Y-63940173D01*
X86239266Y-63940178D01*
X86239269Y-63940184D01*
X86396122Y-64136872D01*
X86580538Y-64307984D01*
X86580540Y-64307985D01*
X86580542Y-64307987D01*
X86707750Y-64394716D01*
X86788397Y-64449700D01*
X86830260Y-64469860D01*
X87015052Y-64558852D01*
X87015054Y-64558852D01*
X87015055Y-64558853D01*
X87255451Y-64633005D01*
X87504214Y-64670500D01*
X87504216Y-64670500D01*
X87755784Y-64670500D01*
X87755786Y-64670500D01*
X88004549Y-64633005D01*
X88244945Y-64558853D01*
X88471604Y-64449700D01*
X88679462Y-64307984D01*
X88863878Y-64136872D01*
X89020731Y-63940184D01*
X89146517Y-63722316D01*
X89238427Y-63488134D01*
X89294407Y-63242869D01*
X89313207Y-62992002D01*
X136888518Y-62992002D01*
X136896098Y-63097982D01*
X136896484Y-63108783D01*
X136896484Y-63131293D01*
X136899687Y-63153572D01*
X136900841Y-63164311D01*
X136908422Y-63270292D01*
X136908423Y-63270299D01*
X136931008Y-63374124D01*
X136932927Y-63384758D01*
X136936128Y-63407025D01*
X136942468Y-63428618D01*
X136945139Y-63439082D01*
X136955809Y-63488129D01*
X136967729Y-63542923D01*
X136967730Y-63542926D01*
X136967731Y-63542929D01*
X136967732Y-63542933D01*
X137004861Y-63642478D01*
X137008274Y-63652731D01*
X137014613Y-63674320D01*
X137014614Y-63674323D01*
X137023958Y-63694785D01*
X137028091Y-63704763D01*
X137065232Y-63804339D01*
X137116158Y-63897603D01*
X137120995Y-63907266D01*
X137130341Y-63927731D01*
X137142512Y-63946671D01*
X137148022Y-63955958D01*
X137181487Y-64017243D01*
X137198943Y-64049212D01*
X137198946Y-64049216D01*
X137198947Y-64049218D01*
X137262622Y-64134277D01*
X137268786Y-64143155D01*
X137280948Y-64162079D01*
X137280949Y-64162082D01*
X137295683Y-64179086D01*
X137302460Y-64187496D01*
X137366145Y-64272568D01*
X137441287Y-64347710D01*
X137448641Y-64355608D01*
X137463381Y-64372619D01*
X137480376Y-64387345D01*
X137488287Y-64394710D01*
X137563432Y-64469855D01*
X137563435Y-64469857D01*
X137563438Y-64469860D01*
X137648495Y-64533534D01*
X137656904Y-64540309D01*
X137666073Y-64548253D01*
X137673916Y-64555049D01*
X137673920Y-64555051D01*
X137673923Y-64555054D01*
X137692847Y-64567216D01*
X137701723Y-64573378D01*
X137786781Y-64637052D01*
X137786789Y-64637057D01*
X137880041Y-64687977D01*
X137889335Y-64693491D01*
X137899819Y-64700228D01*
X137908271Y-64705660D01*
X137928492Y-64714894D01*
X137928736Y-64715006D01*
X137938403Y-64719845D01*
X138031663Y-64770769D01*
X138131242Y-64807910D01*
X138141209Y-64812038D01*
X138161675Y-64821385D01*
X138183276Y-64827727D01*
X138193487Y-64831126D01*
X138293077Y-64868271D01*
X138293080Y-64868272D01*
X138369543Y-64884905D01*
X138396911Y-64890858D01*
X138407362Y-64893526D01*
X138428968Y-64899870D01*
X138428972Y-64899870D01*
X138428974Y-64899871D01*
X138441975Y-64901740D01*
X138451241Y-64903072D01*
X138461858Y-64904987D01*
X138565706Y-64927578D01*
X138671709Y-64935159D01*
X138682418Y-64936310D01*
X138704711Y-64939516D01*
X138727217Y-64939516D01*
X138738018Y-64939902D01*
X138843997Y-64947482D01*
X138844000Y-64947482D01*
X138844003Y-64947482D01*
X138949982Y-64939902D01*
X138960783Y-64939516D01*
X138983283Y-64939516D01*
X138983289Y-64939516D01*
X139005578Y-64936311D01*
X139016284Y-64935159D01*
X139122294Y-64927578D01*
X139226172Y-64904980D01*
X139236728Y-64903076D01*
X139259032Y-64899870D01*
X139280629Y-64893528D01*
X139291089Y-64890858D01*
X139368685Y-64873978D01*
X139394919Y-64868272D01*
X139394926Y-64868270D01*
X139410310Y-64862532D01*
X139494520Y-64831123D01*
X139504723Y-64827727D01*
X139526325Y-64821385D01*
X139546809Y-64812030D01*
X139556748Y-64807913D01*
X139656337Y-64770769D01*
X139749629Y-64719827D01*
X139759229Y-64715021D01*
X139779729Y-64705660D01*
X139798685Y-64693477D01*
X139807919Y-64687998D01*
X139901213Y-64637056D01*
X139986298Y-64573362D01*
X139995155Y-64567214D01*
X140014080Y-64555052D01*
X140014081Y-64555050D01*
X140014084Y-64555049D01*
X140031103Y-64540301D01*
X140039487Y-64533545D01*
X140124568Y-64469855D01*
X140199720Y-64394702D01*
X140207608Y-64387358D01*
X140224619Y-64372619D01*
X140239358Y-64355608D01*
X140246702Y-64347720D01*
X140321855Y-64272568D01*
X140385545Y-64187487D01*
X140392301Y-64179103D01*
X140407049Y-64162084D01*
X140407053Y-64162079D01*
X140419214Y-64143155D01*
X140425362Y-64134298D01*
X140489056Y-64049213D01*
X140539998Y-63955919D01*
X140545477Y-63946685D01*
X140557660Y-63927729D01*
X140567021Y-63907229D01*
X140571827Y-63897629D01*
X140622769Y-63804337D01*
X140659913Y-63704748D01*
X140664030Y-63694809D01*
X140673385Y-63674325D01*
X140679727Y-63652723D01*
X140683123Y-63642520D01*
X140720271Y-63542923D01*
X140742858Y-63439089D01*
X140745530Y-63428623D01*
X140751870Y-63407032D01*
X140755076Y-63384728D01*
X140756980Y-63374172D01*
X140779578Y-63270294D01*
X140787159Y-63164284D01*
X140788312Y-63153572D01*
X140791516Y-63131289D01*
X140792107Y-63098131D01*
X140792466Y-63090092D01*
X140799482Y-62992000D01*
X140792466Y-62893910D01*
X140792107Y-62885864D01*
X140791516Y-62852711D01*
X140788313Y-62830433D01*
X140787158Y-62819689D01*
X140781539Y-62741131D01*
X140779578Y-62713706D01*
X140756987Y-62609858D01*
X140755072Y-62599239D01*
X140751871Y-62576974D01*
X140751870Y-62576970D01*
X140751870Y-62576968D01*
X140745526Y-62555362D01*
X140742858Y-62544908D01*
X140720272Y-62441080D01*
X140720269Y-62441072D01*
X140683126Y-62341487D01*
X140679727Y-62331276D01*
X140673385Y-62309675D01*
X140664038Y-62289208D01*
X140659910Y-62279242D01*
X140622769Y-62179663D01*
X140571840Y-62086394D01*
X140567006Y-62076736D01*
X140566894Y-62076492D01*
X140557660Y-62056271D01*
X140549652Y-62043810D01*
X140545491Y-62037335D01*
X140539977Y-62028041D01*
X140489057Y-61934789D01*
X140489052Y-61934781D01*
X140425378Y-61849723D01*
X140419216Y-61840847D01*
X140407054Y-61821923D01*
X140407051Y-61821919D01*
X140407049Y-61821916D01*
X140400253Y-61814073D01*
X140392309Y-61804904D01*
X140385534Y-61796495D01*
X140321860Y-61711438D01*
X140321857Y-61711435D01*
X140321855Y-61711432D01*
X140246710Y-61636287D01*
X140239345Y-61628376D01*
X140224619Y-61611381D01*
X140207608Y-61596641D01*
X140199710Y-61589287D01*
X140124568Y-61514145D01*
X140039496Y-61450460D01*
X140031086Y-61443683D01*
X140014082Y-61428949D01*
X140014079Y-61428948D01*
X139995155Y-61416786D01*
X139986277Y-61410622D01*
X139901218Y-61346947D01*
X139901216Y-61346946D01*
X139901214Y-61346945D01*
X139901213Y-61346944D01*
X139869243Y-61329487D01*
X139807958Y-61296022D01*
X139798671Y-61290512D01*
X139779731Y-61278341D01*
X139759266Y-61268995D01*
X139749603Y-61264158D01*
X139656339Y-61213232D01*
X139656338Y-61213231D01*
X139656337Y-61213231D01*
X139635558Y-61205481D01*
X139556763Y-61176091D01*
X139546785Y-61171958D01*
X139526323Y-61162614D01*
X139526320Y-61162613D01*
X139504731Y-61156274D01*
X139494478Y-61152861D01*
X139394933Y-61115732D01*
X139394929Y-61115731D01*
X139394927Y-61115730D01*
X139394923Y-61115729D01*
X139343211Y-61104479D01*
X139291082Y-61093139D01*
X139280618Y-61090468D01*
X139271053Y-61087659D01*
X139259032Y-61084130D01*
X139259029Y-61084129D01*
X139259024Y-61084128D01*
X139259026Y-61084128D01*
X139236758Y-61080927D01*
X139226124Y-61079008D01*
X139122299Y-61056423D01*
X139122297Y-61056422D01*
X139122294Y-61056422D01*
X139108275Y-61055419D01*
X139016311Y-61048841D01*
X139005572Y-61047687D01*
X138983293Y-61044484D01*
X138983289Y-61044484D01*
X138960783Y-61044484D01*
X138949982Y-61044098D01*
X138844003Y-61036518D01*
X138843997Y-61036518D01*
X138738018Y-61044098D01*
X138727217Y-61044484D01*
X138704706Y-61044484D01*
X138682422Y-61047687D01*
X138671691Y-61048840D01*
X138565706Y-61056422D01*
X138565700Y-61056423D01*
X138461879Y-61079007D01*
X138451248Y-61080925D01*
X138428974Y-61084127D01*
X138428973Y-61084128D01*
X138407371Y-61090470D01*
X138396911Y-61093139D01*
X138293081Y-61115728D01*
X138293072Y-61115730D01*
X138193496Y-61152869D01*
X138183250Y-61156279D01*
X138161672Y-61162615D01*
X138141208Y-61171960D01*
X138131236Y-61176090D01*
X138031667Y-61213229D01*
X138031664Y-61213230D01*
X138031663Y-61213231D01*
X138021699Y-61218672D01*
X137938394Y-61264159D01*
X137928734Y-61268994D01*
X137908268Y-61278340D01*
X137908260Y-61278345D01*
X137889341Y-61290503D01*
X137880055Y-61296013D01*
X137786798Y-61346937D01*
X137786779Y-61346949D01*
X137701723Y-61410620D01*
X137692855Y-61416778D01*
X137673919Y-61428948D01*
X137673909Y-61428955D01*
X137656912Y-61443683D01*
X137648506Y-61450457D01*
X137563432Y-61514144D01*
X137488290Y-61589285D01*
X137480388Y-61596643D01*
X137463381Y-61611381D01*
X137448643Y-61628388D01*
X137441285Y-61636290D01*
X137366144Y-61711432D01*
X137302457Y-61796506D01*
X137295683Y-61804912D01*
X137280955Y-61821909D01*
X137280948Y-61821919D01*
X137268778Y-61840855D01*
X137262620Y-61849723D01*
X137198949Y-61934779D01*
X137198937Y-61934798D01*
X137148013Y-62028055D01*
X137142503Y-62037341D01*
X137130345Y-62056260D01*
X137130340Y-62056268D01*
X137120994Y-62076734D01*
X137116159Y-62086394D01*
X137065229Y-62179667D01*
X137028090Y-62279236D01*
X137023960Y-62289208D01*
X137014615Y-62309672D01*
X137008279Y-62331250D01*
X137004869Y-62341496D01*
X136967730Y-62441072D01*
X136967728Y-62441081D01*
X136945139Y-62544911D01*
X136942470Y-62555371D01*
X136936128Y-62576973D01*
X136936127Y-62576974D01*
X136932925Y-62599248D01*
X136931007Y-62609879D01*
X136908423Y-62713700D01*
X136908422Y-62713706D01*
X136900840Y-62819691D01*
X136899687Y-62830422D01*
X136896484Y-62852706D01*
X136896484Y-62875215D01*
X136896098Y-62886016D01*
X136888518Y-62991997D01*
X136888518Y-62992002D01*
X89313207Y-62992002D01*
X89313207Y-62992000D01*
X89294407Y-62741131D01*
X89249621Y-62544911D01*
X89238428Y-62495870D01*
X89238427Y-62495869D01*
X89238427Y-62495866D01*
X89165351Y-62309672D01*
X89146517Y-62261683D01*
X89020737Y-62043826D01*
X89020735Y-62043823D01*
X89020731Y-62043816D01*
X88863878Y-61847128D01*
X88679462Y-61676016D01*
X88679459Y-61676014D01*
X88679457Y-61676012D01*
X88471606Y-61534301D01*
X88244947Y-61425147D01*
X88004546Y-61350994D01*
X87844082Y-61326808D01*
X87755786Y-61313500D01*
X87504214Y-61313500D01*
X87429226Y-61324802D01*
X87255453Y-61350994D01*
X87015052Y-61425147D01*
X86788394Y-61534301D01*
X86580542Y-61676012D01*
X86396120Y-61847129D01*
X86396119Y-61847131D01*
X86239273Y-62043810D01*
X86239262Y-62043826D01*
X86113482Y-62261683D01*
X86021571Y-62495870D01*
X85965594Y-62741122D01*
X85965593Y-62741128D01*
X85965593Y-62741131D01*
X85946793Y-62992000D01*
X84646000Y-62992000D01*
X84646000Y-62206851D01*
X84666284Y-62131151D01*
X84690340Y-62099799D01*
X87116238Y-59673900D01*
X87184107Y-59634717D01*
X87249647Y-59633497D01*
X87249849Y-59632161D01*
X87389312Y-59653181D01*
X87504214Y-59670500D01*
X87504216Y-59670500D01*
X87755784Y-59670500D01*
X87755786Y-59670500D01*
X88004549Y-59633005D01*
X88244945Y-59558853D01*
X88471604Y-59449700D01*
X88679462Y-59307984D01*
X88863878Y-59136872D01*
X89020731Y-58940184D01*
X89146517Y-58722316D01*
X89238427Y-58488134D01*
X89294407Y-58242869D01*
X89313207Y-57992000D01*
X89294407Y-57741131D01*
X89238427Y-57495866D01*
X89146517Y-57261684D01*
X89146517Y-57261683D01*
X89020737Y-57043826D01*
X89020735Y-57043823D01*
X89020731Y-57043816D01*
X88863878Y-56847128D01*
X88679462Y-56676016D01*
X88679459Y-56676014D01*
X88679457Y-56676012D01*
X88522113Y-56568736D01*
X88470993Y-56509333D01*
X88456000Y-56443644D01*
X88456000Y-54379852D01*
X88476284Y-54304152D01*
X88500344Y-54272796D01*
X90703640Y-52069500D01*
X94021001Y-52069500D01*
X94021001Y-52168649D01*
X94031318Y-52269647D01*
X94085547Y-52433303D01*
X94176053Y-52580036D01*
X94297963Y-52701946D01*
X94444695Y-52792452D01*
X94608352Y-52846681D01*
X94709350Y-52856999D01*
X94746000Y-52856998D01*
X94746000Y-52069500D01*
X95246000Y-52069500D01*
X95246000Y-52856999D01*
X95282649Y-52856999D01*
X95282649Y-52856998D01*
X95383647Y-52846681D01*
X95547303Y-52792452D01*
X95694036Y-52701946D01*
X95815946Y-52580036D01*
X95906452Y-52433304D01*
X95960681Y-52269647D01*
X95971000Y-52168648D01*
X95971000Y-52069500D01*
X95246000Y-52069500D01*
X94746000Y-52069500D01*
X94021001Y-52069500D01*
X90703640Y-52069500D01*
X91808296Y-50964844D01*
X91876167Y-50925659D01*
X91915352Y-50920500D01*
X93990191Y-50920500D01*
X94065891Y-50940784D01*
X94121307Y-50996200D01*
X94141591Y-51071900D01*
X94121307Y-51147600D01*
X94119050Y-51151382D01*
X94085547Y-51205697D01*
X94031318Y-51369352D01*
X94021000Y-51470351D01*
X94021000Y-51569500D01*
X95970999Y-51569500D01*
X95970999Y-51470351D01*
X95970998Y-51470350D01*
X95960681Y-51369352D01*
X95906452Y-51205696D01*
X95815945Y-51058961D01*
X95814778Y-51057485D01*
X95814180Y-51056100D01*
X95811316Y-51051456D01*
X95811996Y-51051036D01*
X95783735Y-50985525D01*
X95792832Y-50907684D01*
X95818659Y-50868422D01*
X95817191Y-50867261D01*
X95822658Y-50860346D01*
X95852303Y-50812284D01*
X95914209Y-50711920D01*
X95969062Y-50546381D01*
X95979500Y-50444213D01*
X95979499Y-50341850D01*
X95999782Y-50266152D01*
X96023839Y-50234799D01*
X96874296Y-49384344D01*
X96942167Y-49345159D01*
X96981352Y-49340000D01*
X108110065Y-49340000D01*
X108185765Y-49360284D01*
X108241181Y-49415700D01*
X108261465Y-49491400D01*
X108241181Y-49567100D01*
X108185765Y-49622516D01*
X108174050Y-49628615D01*
X107995514Y-49711867D01*
X107995509Y-49711870D01*
X107809183Y-49842338D01*
X107648338Y-50003183D01*
X107517870Y-50189509D01*
X107517867Y-50189514D01*
X107421734Y-50395671D01*
X107421732Y-50395678D01*
X107362858Y-50615394D01*
X107348000Y-50785236D01*
X107348000Y-50792000D01*
X108214314Y-50792000D01*
X108188507Y-50832156D01*
X108148000Y-50970111D01*
X108148000Y-51113889D01*
X108188507Y-51251844D01*
X108214314Y-51292000D01*
X107348000Y-51292000D01*
X107348000Y-51298763D01*
X107362858Y-51468605D01*
X107421732Y-51688321D01*
X107421734Y-51688328D01*
X107517867Y-51894485D01*
X107517870Y-51894490D01*
X107648338Y-52080816D01*
X107809183Y-52241661D01*
X107995509Y-52372129D01*
X107995514Y-52372132D01*
X108201671Y-52468265D01*
X108201678Y-52468267D01*
X108397999Y-52520871D01*
X108398000Y-52520871D01*
X108398000Y-51477501D01*
X108505685Y-51526680D01*
X108612237Y-51542000D01*
X108683763Y-51542000D01*
X108790315Y-51526680D01*
X108898000Y-51477501D01*
X108898000Y-52520871D01*
X109094321Y-52468267D01*
X109094328Y-52468265D01*
X109300485Y-52372132D01*
X109300490Y-52372129D01*
X109486816Y-52241661D01*
X109647661Y-52080816D01*
X109778129Y-51894490D01*
X109781435Y-51888764D01*
X109783551Y-51889985D01*
X109826415Y-51838856D01*
X109900047Y-51812019D01*
X109977233Y-51825593D01*
X110037291Y-51875942D01*
X110047166Y-51893035D01*
X110047176Y-51893030D01*
X110050481Y-51898756D01*
X110181802Y-52086300D01*
X110343699Y-52248197D01*
X110531243Y-52379518D01*
X110531247Y-52379520D01*
X110531251Y-52379523D01*
X110738757Y-52476284D01*
X110959913Y-52535543D01*
X110959912Y-52535543D01*
X110978261Y-52537148D01*
X111188000Y-52555498D01*
X111416087Y-52535543D01*
X111637243Y-52476284D01*
X111844749Y-52379523D01*
X112032300Y-52248198D01*
X112194198Y-52086300D01*
X112325523Y-51898749D01*
X112325526Y-51898741D01*
X112326879Y-51896400D01*
X112327843Y-51895435D01*
X112329315Y-51893334D01*
X112329685Y-51893593D01*
X112382291Y-51840980D01*
X112457990Y-51820691D01*
X112533691Y-51840970D01*
X112586318Y-51893590D01*
X112586685Y-51893334D01*
X112588138Y-51895409D01*
X112589111Y-51896382D01*
X112589121Y-51896400D01*
X112590478Y-51898751D01*
X112721802Y-52086300D01*
X112883699Y-52248197D01*
X113071243Y-52379518D01*
X113071247Y-52379520D01*
X113071251Y-52379523D01*
X113278757Y-52476284D01*
X113499913Y-52535543D01*
X113499912Y-52535543D01*
X113548719Y-52539813D01*
X113728000Y-52555498D01*
X113728000Y-52555497D01*
X113728001Y-52555498D01*
X113730453Y-52555498D01*
X113731641Y-52555816D01*
X113734585Y-52556074D01*
X113734539Y-52556593D01*
X113806153Y-52575782D01*
X113861569Y-52631198D01*
X113881853Y-52706898D01*
X113861569Y-52782598D01*
X113837509Y-52813954D01*
X112731845Y-53919618D01*
X112663974Y-53958803D01*
X112656278Y-53960651D01*
X112585857Y-53975619D01*
X112493710Y-53995206D01*
X112319250Y-54072880D01*
X112319246Y-54072882D01*
X112164744Y-54185136D01*
X112036960Y-54327055D01*
X112036957Y-54327058D01*
X111941473Y-54492443D01*
X111941472Y-54492446D01*
X111882458Y-54674068D01*
X111862496Y-54864000D01*
X111882458Y-55053931D01*
X111941472Y-55235553D01*
X111941473Y-55235556D01*
X112036957Y-55400941D01*
X112036960Y-55400944D01*
X112164747Y-55542866D01*
X112264274Y-55615177D01*
X112319246Y-55655117D01*
X112319248Y-55655118D01*
X112493712Y-55732794D01*
X112680513Y-55772500D01*
X112680516Y-55772500D01*
X112871484Y-55772500D01*
X112871487Y-55772500D01*
X113058288Y-55732794D01*
X113232752Y-55655118D01*
X113387253Y-55542866D01*
X113515040Y-55400944D01*
X113610527Y-55235556D01*
X113669542Y-55053928D01*
X113675087Y-55001162D01*
X113703170Y-54928001D01*
X113718595Y-54909939D01*
X116038802Y-52589732D01*
X116106671Y-52550549D01*
X116159050Y-52545966D01*
X116268000Y-52555498D01*
X116496087Y-52535543D01*
X116717243Y-52476284D01*
X116924749Y-52379523D01*
X117112300Y-52248198D01*
X117274198Y-52086300D01*
X117405523Y-51898749D01*
X117502284Y-51691243D01*
X117536915Y-51562000D01*
X143670844Y-51562000D01*
X143689435Y-51786364D01*
X143689436Y-51786369D01*
X143744704Y-52004617D01*
X143744704Y-52004619D01*
X143835136Y-52210783D01*
X143835140Y-52210791D01*
X143940547Y-52372129D01*
X143958276Y-52399265D01*
X143958280Y-52399270D01*
X144070222Y-52520871D01*
X144110760Y-52564906D01*
X144130199Y-52580036D01*
X144288425Y-52703190D01*
X144486422Y-52810340D01*
X144486425Y-52810342D01*
X144496947Y-52813954D01*
X144699365Y-52883444D01*
X144847409Y-52908148D01*
X144921430Y-52920500D01*
X144921431Y-52920500D01*
X145146570Y-52920500D01*
X145202085Y-52911236D01*
X145368635Y-52883444D01*
X145581574Y-52810342D01*
X145779576Y-52703189D01*
X145957240Y-52564906D01*
X146109722Y-52399268D01*
X146232860Y-52210791D01*
X146289872Y-52080816D01*
X146323295Y-52004619D01*
X146323295Y-52004618D01*
X146323296Y-52004616D01*
X146378564Y-51786368D01*
X146397156Y-51562000D01*
X151290844Y-51562000D01*
X151309435Y-51786364D01*
X151309436Y-51786369D01*
X151364704Y-52004617D01*
X151364704Y-52004619D01*
X151455136Y-52210783D01*
X151455140Y-52210791D01*
X151560547Y-52372129D01*
X151578276Y-52399265D01*
X151578280Y-52399270D01*
X151690222Y-52520871D01*
X151730760Y-52564906D01*
X151750199Y-52580036D01*
X151908425Y-52703190D01*
X152106422Y-52810340D01*
X152106425Y-52810342D01*
X152116947Y-52813954D01*
X152319365Y-52883444D01*
X152467409Y-52908148D01*
X152541430Y-52920500D01*
X152541431Y-52920500D01*
X152766570Y-52920500D01*
X152822085Y-52911236D01*
X152988635Y-52883444D01*
X153201574Y-52810342D01*
X153399576Y-52703189D01*
X153577240Y-52564906D01*
X153729722Y-52399268D01*
X153852860Y-52210791D01*
X153909872Y-52080816D01*
X153943295Y-52004619D01*
X153943295Y-52004618D01*
X153943296Y-52004616D01*
X153998564Y-51786368D01*
X154017156Y-51562000D01*
X153998564Y-51337632D01*
X153943296Y-51119384D01*
X153943295Y-51119381D01*
X153943295Y-51119380D01*
X153852863Y-50913216D01*
X153852860Y-50913210D01*
X153852860Y-50913209D01*
X153729722Y-50724732D01*
X153577240Y-50559094D01*
X153467049Y-50473328D01*
X153399574Y-50420809D01*
X153201577Y-50313659D01*
X153201574Y-50313657D01*
X152988641Y-50240558D01*
X152988632Y-50240555D01*
X152766570Y-50203500D01*
X152766569Y-50203500D01*
X152541431Y-50203500D01*
X152541430Y-50203500D01*
X152319367Y-50240555D01*
X152319358Y-50240558D01*
X152106425Y-50313657D01*
X152106422Y-50313659D01*
X151908425Y-50420809D01*
X151730759Y-50559094D01*
X151730758Y-50559095D01*
X151578280Y-50724729D01*
X151578276Y-50724734D01*
X151455139Y-50913210D01*
X151455136Y-50913216D01*
X151364704Y-51119380D01*
X151364704Y-51119382D01*
X151309436Y-51337630D01*
X151309435Y-51337635D01*
X151290844Y-51562000D01*
X146397156Y-51562000D01*
X146378564Y-51337632D01*
X146323296Y-51119384D01*
X146323295Y-51119381D01*
X146323295Y-51119380D01*
X146232863Y-50913216D01*
X146232860Y-50913210D01*
X146232860Y-50913209D01*
X146109722Y-50724732D01*
X145957240Y-50559094D01*
X145847049Y-50473328D01*
X145779574Y-50420809D01*
X145581577Y-50313659D01*
X145581574Y-50313657D01*
X145368641Y-50240558D01*
X145368632Y-50240555D01*
X145146570Y-50203500D01*
X145146569Y-50203500D01*
X144921431Y-50203500D01*
X144921430Y-50203500D01*
X144699367Y-50240555D01*
X144699358Y-50240558D01*
X144486425Y-50313657D01*
X144486422Y-50313659D01*
X144288425Y-50420809D01*
X144110759Y-50559094D01*
X144110758Y-50559095D01*
X143958280Y-50724729D01*
X143958276Y-50724734D01*
X143835139Y-50913210D01*
X143835136Y-50913216D01*
X143744704Y-51119380D01*
X143744704Y-51119382D01*
X143689436Y-51337630D01*
X143689435Y-51337635D01*
X143670844Y-51562000D01*
X117536915Y-51562000D01*
X117561543Y-51470087D01*
X117576500Y-51299127D01*
X117576500Y-50784873D01*
X117561543Y-50613913D01*
X117502284Y-50392757D01*
X117498742Y-50385162D01*
X117452568Y-50286140D01*
X117405523Y-50185251D01*
X117405520Y-50185247D01*
X117405518Y-50185243D01*
X117274197Y-49997699D01*
X117112300Y-49835802D01*
X116924756Y-49704481D01*
X116924747Y-49704476D01*
X116717251Y-49607719D01*
X116717246Y-49607717D01*
X116717243Y-49607716D01*
X116496087Y-49548457D01*
X116496086Y-49548456D01*
X116496087Y-49548456D01*
X116268000Y-49528502D01*
X116039914Y-49548456D01*
X115878017Y-49591837D01*
X115818757Y-49607716D01*
X115818755Y-49607716D01*
X115818748Y-49607719D01*
X115611252Y-49704476D01*
X115611243Y-49704481D01*
X115423699Y-49835802D01*
X115261802Y-49997699D01*
X115130476Y-50185251D01*
X115129117Y-50187606D01*
X115128151Y-50188571D01*
X115126685Y-50190666D01*
X115126315Y-50190407D01*
X115073702Y-50243023D01*
X114998002Y-50263308D01*
X114922302Y-50243025D01*
X114869683Y-50190408D01*
X114869315Y-50190666D01*
X114867852Y-50188577D01*
X114866885Y-50187610D01*
X114866883Y-50187606D01*
X114865523Y-50185251D01*
X114751652Y-50022627D01*
X114734198Y-49997700D01*
X114572300Y-49835802D01*
X114522598Y-49801000D01*
X114384756Y-49704481D01*
X114384747Y-49704476D01*
X114177251Y-49607719D01*
X114177246Y-49607717D01*
X114177243Y-49607716D01*
X113956087Y-49548457D01*
X113956086Y-49548456D01*
X113956087Y-49548456D01*
X113728000Y-49528502D01*
X113499914Y-49548456D01*
X113338017Y-49591837D01*
X113278757Y-49607716D01*
X113278755Y-49607716D01*
X113278748Y-49607719D01*
X113071252Y-49704476D01*
X113071243Y-49704481D01*
X112883699Y-49835802D01*
X112721802Y-49997699D01*
X112590476Y-50185251D01*
X112589117Y-50187606D01*
X112588151Y-50188571D01*
X112586685Y-50190666D01*
X112586315Y-50190407D01*
X112533702Y-50243023D01*
X112458002Y-50263308D01*
X112382302Y-50243025D01*
X112329683Y-50190408D01*
X112329315Y-50190666D01*
X112327852Y-50188577D01*
X112326885Y-50187610D01*
X112326883Y-50187606D01*
X112325523Y-50185251D01*
X112211652Y-50022627D01*
X112194198Y-49997700D01*
X112032300Y-49835802D01*
X111982598Y-49801000D01*
X111844756Y-49704481D01*
X111844747Y-49704476D01*
X111637251Y-49607719D01*
X111637246Y-49607717D01*
X111637243Y-49607716D01*
X111416087Y-49548457D01*
X111416086Y-49548456D01*
X111416087Y-49548456D01*
X111188000Y-49528502D01*
X110959905Y-49548457D01*
X110954798Y-49549358D01*
X110876726Y-49542526D01*
X110821455Y-49507314D01*
X110806141Y-49492000D01*
X147888901Y-49492000D01*
X147907252Y-49678331D01*
X147961603Y-49857499D01*
X147961604Y-49857502D01*
X148049862Y-50022623D01*
X148085983Y-50066636D01*
X148168643Y-50167357D01*
X148263463Y-50245174D01*
X148313376Y-50286137D01*
X148364865Y-50313658D01*
X148478499Y-50374396D01*
X148505341Y-50382538D01*
X148512879Y-50385076D01*
X148513206Y-50385160D01*
X148513209Y-50385162D01*
X148515514Y-50385759D01*
X148521514Y-50387444D01*
X148657669Y-50428747D01*
X148685272Y-50431465D01*
X148693355Y-50432482D01*
X148699771Y-50433465D01*
X148699773Y-50433466D01*
X148708172Y-50433891D01*
X148715280Y-50434421D01*
X148844000Y-50447099D01*
X148875124Y-50444033D01*
X148884580Y-50443810D01*
X148884571Y-50443616D01*
X148892233Y-50443226D01*
X148892241Y-50443227D01*
X148904292Y-50441380D01*
X148912355Y-50440366D01*
X149030331Y-50428747D01*
X149064435Y-50418401D01*
X149076388Y-50415687D01*
X149082722Y-50414046D01*
X149082734Y-50414045D01*
X149096302Y-50409019D01*
X149104883Y-50406131D01*
X149209501Y-50374396D01*
X149244888Y-50355481D01*
X149263042Y-50347314D01*
X149263445Y-50347116D01*
X149263445Y-50347115D01*
X149263453Y-50347113D01*
X149276732Y-50338835D01*
X149285369Y-50333843D01*
X149374625Y-50286136D01*
X149409157Y-50257795D01*
X149425119Y-50246346D01*
X149427000Y-50245174D01*
X149438591Y-50234155D01*
X149446789Y-50226912D01*
X149519357Y-50167357D01*
X149550649Y-50129227D01*
X149563373Y-50115541D01*
X149566679Y-50112399D01*
X149575657Y-50099498D01*
X149582858Y-50089980D01*
X149638136Y-50022625D01*
X149663650Y-49974891D01*
X149672906Y-49959777D01*
X149676771Y-49954226D01*
X149682673Y-49940470D01*
X149688267Y-49928835D01*
X149714226Y-49880269D01*
X149726394Y-49857506D01*
X149726396Y-49857501D01*
X149743542Y-49800975D01*
X149749283Y-49785250D01*
X149752769Y-49777128D01*
X149755551Y-49763586D01*
X149758972Y-49750114D01*
X149780744Y-49678340D01*
X149780747Y-49678331D01*
X149787034Y-49614488D01*
X149789402Y-49598872D01*
X149791563Y-49588358D01*
X149792099Y-49567154D01*
X149792777Y-49556186D01*
X149799099Y-49492000D01*
X149792777Y-49427818D01*
X149792099Y-49416841D01*
X149791563Y-49395642D01*
X149789399Y-49385116D01*
X149787035Y-49369516D01*
X149780747Y-49305669D01*
X149758971Y-49233886D01*
X149755552Y-49220416D01*
X149752769Y-49206872D01*
X149749283Y-49198748D01*
X149743536Y-49183001D01*
X149726396Y-49126500D01*
X149726396Y-49126499D01*
X149688262Y-49055156D01*
X149682670Y-49043521D01*
X149676771Y-49029775D01*
X149676771Y-49029774D01*
X149672898Y-49024209D01*
X149663645Y-49009101D01*
X149638136Y-48961375D01*
X149582873Y-48894037D01*
X149575644Y-48884481D01*
X149566678Y-48871599D01*
X149563367Y-48868452D01*
X149550646Y-48854769D01*
X149519357Y-48816643D01*
X149446815Y-48757109D01*
X149438573Y-48749827D01*
X149427000Y-48738826D01*
X149426997Y-48738823D01*
X149425108Y-48737646D01*
X149409150Y-48726198D01*
X149374621Y-48697861D01*
X149285395Y-48650168D01*
X149276686Y-48645134D01*
X149263453Y-48636886D01*
X149263061Y-48636694D01*
X149244881Y-48628514D01*
X149209502Y-48609604D01*
X149104919Y-48577879D01*
X149096292Y-48574975D01*
X149082735Y-48569954D01*
X149076440Y-48568324D01*
X149064443Y-48565600D01*
X149039433Y-48558014D01*
X149030331Y-48555253D01*
X149030330Y-48555252D01*
X148912368Y-48543634D01*
X148904292Y-48542618D01*
X148892245Y-48540773D01*
X148884579Y-48540384D01*
X148884588Y-48540193D01*
X148875128Y-48539966D01*
X148852097Y-48537698D01*
X148844000Y-48536901D01*
X148843998Y-48536901D01*
X148843997Y-48536901D01*
X148715318Y-48549574D01*
X148708160Y-48550108D01*
X148699772Y-48550534D01*
X148693333Y-48551520D01*
X148685261Y-48552535D01*
X148657668Y-48555253D01*
X148657665Y-48555253D01*
X148521510Y-48596555D01*
X148515542Y-48598233D01*
X148512892Y-48598919D01*
X148505326Y-48601465D01*
X148478500Y-48609603D01*
X148478496Y-48609605D01*
X148313376Y-48697862D01*
X148168643Y-48816643D01*
X148049862Y-48961376D01*
X147961604Y-49126497D01*
X147961603Y-49126500D01*
X147907252Y-49305668D01*
X147888901Y-49492000D01*
X110806141Y-49492000D01*
X109574141Y-48260000D01*
X163749719Y-48260000D01*
X163768823Y-48575840D01*
X163825860Y-48887075D01*
X163919992Y-49189155D01*
X163919995Y-49189164D01*
X164049856Y-49477705D01*
X164064849Y-49502506D01*
X164213554Y-49748495D01*
X164408691Y-49997567D01*
X164632432Y-50221308D01*
X164881504Y-50416445D01*
X164932212Y-50447099D01*
X165152295Y-50580144D01*
X165440836Y-50710005D01*
X165742926Y-50804140D01*
X165984325Y-50848378D01*
X166054159Y-50861176D01*
X166054158Y-50861176D01*
X166088244Y-50863237D01*
X166370000Y-50880281D01*
X166685840Y-50861176D01*
X166997074Y-50804140D01*
X167299164Y-50710005D01*
X167587705Y-50580144D01*
X167858489Y-50416449D01*
X167858491Y-50416447D01*
X167858495Y-50416445D01*
X168030764Y-50281480D01*
X168107568Y-50221308D01*
X168331308Y-49997568D01*
X168441045Y-49857499D01*
X168526445Y-49748495D01*
X168548586Y-49711870D01*
X168690144Y-49477705D01*
X168820005Y-49189164D01*
X168914140Y-48887074D01*
X168971176Y-48575840D01*
X168990281Y-48260000D01*
X168971176Y-47944160D01*
X168914140Y-47632926D01*
X168820005Y-47330836D01*
X168690144Y-47042295D01*
X168532959Y-46782280D01*
X168526445Y-46771504D01*
X168331308Y-46522432D01*
X168107567Y-46298691D01*
X167858495Y-46103554D01*
X167587713Y-45939861D01*
X167587703Y-45939855D01*
X167534968Y-45916121D01*
X167299164Y-45809995D01*
X167299157Y-45809992D01*
X167299155Y-45809992D01*
X166997075Y-45715860D01*
X166685840Y-45658823D01*
X166685841Y-45658823D01*
X166370000Y-45639719D01*
X166054159Y-45658823D01*
X165742924Y-45715860D01*
X165440844Y-45809992D01*
X165440838Y-45809994D01*
X165440836Y-45809995D01*
X165366882Y-45843279D01*
X165152296Y-45939855D01*
X165152286Y-45939861D01*
X164881504Y-46103554D01*
X164632432Y-46298691D01*
X164408691Y-46522432D01*
X164213554Y-46771504D01*
X164049861Y-47042286D01*
X164049855Y-47042296D01*
X164010721Y-47129250D01*
X163928436Y-47312082D01*
X163919994Y-47330839D01*
X163919992Y-47330844D01*
X163825860Y-47632924D01*
X163768823Y-47944159D01*
X163749719Y-48260000D01*
X109574141Y-48260000D01*
X109272167Y-47958026D01*
X109263833Y-47948985D01*
X109231390Y-47910791D01*
X109170388Y-47864418D01*
X109167158Y-47861893D01*
X109166379Y-47861267D01*
X109107481Y-47813923D01*
X109107482Y-47813923D01*
X109107479Y-47813921D01*
X109100565Y-47809502D01*
X109100661Y-47809350D01*
X109095486Y-47806140D01*
X109095394Y-47806295D01*
X109088356Y-47802060D01*
X109018805Y-47769882D01*
X109015110Y-47768111D01*
X108946522Y-47734094D01*
X108938818Y-47731264D01*
X108938879Y-47731096D01*
X108933130Y-47729072D01*
X108933073Y-47729242D01*
X108925293Y-47726620D01*
X108859379Y-47712112D01*
X108850497Y-47710156D01*
X108846525Y-47709226D01*
X108772168Y-47690735D01*
X108772166Y-47690734D01*
X108772163Y-47690734D01*
X108764039Y-47689627D01*
X108764062Y-47689450D01*
X108758009Y-47688709D01*
X108757990Y-47688887D01*
X108749833Y-47688000D01*
X108749832Y-47688000D01*
X108673233Y-47688000D01*
X108669133Y-47687944D01*
X108667983Y-47687912D01*
X108592573Y-47685869D01*
X108584393Y-47686536D01*
X108584378Y-47686355D01*
X108567074Y-47688000D01*
X96616246Y-47688000D01*
X96603959Y-47687501D01*
X96587701Y-47686177D01*
X96554001Y-47683433D01*
X96554000Y-47683433D01*
X96553999Y-47683433D01*
X96478080Y-47693776D01*
X96474013Y-47694274D01*
X96397889Y-47702553D01*
X96389873Y-47704318D01*
X96389834Y-47704141D01*
X96383896Y-47705533D01*
X96383940Y-47705709D01*
X96375974Y-47707689D01*
X96304050Y-47734112D01*
X96300187Y-47735472D01*
X96227624Y-47759922D01*
X96220181Y-47763366D01*
X96220105Y-47763203D01*
X96214610Y-47765836D01*
X96214689Y-47765996D01*
X96207340Y-47769640D01*
X96142810Y-47810887D01*
X96139330Y-47813046D01*
X96073679Y-47852548D01*
X96067145Y-47857516D01*
X96067035Y-47857372D01*
X96062234Y-47861126D01*
X96062348Y-47861267D01*
X96055950Y-47866409D01*
X96001790Y-47920568D01*
X95998855Y-47923424D01*
X95943247Y-47976099D01*
X95937929Y-47982361D01*
X95937790Y-47982243D01*
X95926723Y-47995635D01*
X94918201Y-49004156D01*
X94850330Y-49043341D01*
X94811146Y-49048500D01*
X94708786Y-49048500D01*
X94606615Y-49058938D01*
X94606614Y-49058938D01*
X94441082Y-49113789D01*
X94441081Y-49113790D01*
X94292655Y-49205340D01*
X94273840Y-49224156D01*
X94205969Y-49263341D01*
X94166784Y-49268500D01*
X91550246Y-49268500D01*
X91537959Y-49268001D01*
X91521701Y-49266677D01*
X91488001Y-49263933D01*
X91488000Y-49263933D01*
X91487999Y-49263933D01*
X91412080Y-49274276D01*
X91408013Y-49274774D01*
X91331889Y-49283053D01*
X91323873Y-49284818D01*
X91323834Y-49284641D01*
X91317896Y-49286033D01*
X91317940Y-49286209D01*
X91309974Y-49288189D01*
X91238050Y-49314612D01*
X91234187Y-49315972D01*
X91161624Y-49340422D01*
X91154181Y-49343866D01*
X91154105Y-49343703D01*
X91148610Y-49346336D01*
X91148689Y-49346496D01*
X91141340Y-49350140D01*
X91076810Y-49391387D01*
X91073330Y-49393546D01*
X91007679Y-49433048D01*
X91001145Y-49438016D01*
X91001035Y-49437872D01*
X90996234Y-49441626D01*
X90996348Y-49441767D01*
X90989950Y-49446909D01*
X90935790Y-49501068D01*
X90932855Y-49503924D01*
X90877247Y-49556599D01*
X90871929Y-49562861D01*
X90871790Y-49562743D01*
X90860723Y-49576135D01*
X87074019Y-53362838D01*
X87064978Y-53371172D01*
X87026793Y-53403606D01*
X87026790Y-53403609D01*
X86980438Y-53464584D01*
X86977916Y-53467810D01*
X86929922Y-53527518D01*
X86925502Y-53534434D01*
X86925351Y-53534337D01*
X86922139Y-53539516D01*
X86922293Y-53539609D01*
X86918060Y-53546643D01*
X86885903Y-53616149D01*
X86884134Y-53619842D01*
X86850092Y-53688484D01*
X86847266Y-53696177D01*
X86847097Y-53696115D01*
X86845072Y-53701865D01*
X86845243Y-53701923D01*
X86842621Y-53709704D01*
X86826157Y-53784501D01*
X86825222Y-53788489D01*
X86806735Y-53862830D01*
X86805627Y-53870963D01*
X86805450Y-53870938D01*
X86804709Y-53876993D01*
X86804887Y-53877013D01*
X86804000Y-53885170D01*
X86804000Y-53961765D01*
X86803944Y-53965866D01*
X86801869Y-54042428D01*
X86802536Y-54050611D01*
X86802355Y-54050625D01*
X86804000Y-54067926D01*
X86804000Y-56443644D01*
X86783716Y-56519344D01*
X86737887Y-56568736D01*
X86580542Y-56676012D01*
X86396120Y-56847129D01*
X86396119Y-56847131D01*
X86239273Y-57043810D01*
X86239262Y-57043826D01*
X86113482Y-57261683D01*
X86021571Y-57495870D01*
X85965594Y-57741122D01*
X85946793Y-57992000D01*
X85965594Y-58242876D01*
X85992574Y-58361086D01*
X85989643Y-58439402D01*
X85952026Y-58501831D01*
X83264019Y-61189838D01*
X83254978Y-61198172D01*
X83216793Y-61230606D01*
X83216790Y-61230609D01*
X83170438Y-61291584D01*
X83167916Y-61294810D01*
X83119922Y-61354518D01*
X83115502Y-61361434D01*
X83115351Y-61361337D01*
X83112139Y-61366516D01*
X83112293Y-61366609D01*
X83108060Y-61373643D01*
X83075903Y-61443149D01*
X83074134Y-61446842D01*
X83040092Y-61515484D01*
X83037266Y-61523177D01*
X83037097Y-61523115D01*
X83035072Y-61528865D01*
X83035243Y-61528923D01*
X83032621Y-61536704D01*
X83016157Y-61611501D01*
X83015222Y-61615489D01*
X82996735Y-61689830D01*
X82995627Y-61697963D01*
X82995450Y-61697938D01*
X82994709Y-61703993D01*
X82994887Y-61704013D01*
X82994000Y-61712170D01*
X82994000Y-61788765D01*
X82993944Y-61792866D01*
X82991869Y-61869428D01*
X82992536Y-61877611D01*
X82992355Y-61877625D01*
X82994000Y-61894926D01*
X82994000Y-82185068D01*
X82973716Y-82260768D01*
X82942627Y-82298719D01*
X82807419Y-82417716D01*
X82660118Y-82600145D01*
X82596780Y-82646299D01*
X82518851Y-82654601D01*
X82447211Y-82622826D01*
X82416887Y-82589811D01*
X82364602Y-82512452D01*
X82200995Y-82341746D01*
X82010900Y-82201152D01*
X81799770Y-82094702D01*
X81799762Y-82094699D01*
X81573700Y-82025468D01*
X81573690Y-82025465D01*
X81530000Y-82019871D01*
X81530000Y-84594902D01*
X81424592Y-84546765D01*
X81316334Y-84531200D01*
X81243666Y-84531200D01*
X81135408Y-84546765D01*
X81030000Y-84594902D01*
X81030000Y-82021187D01*
X80871802Y-82055282D01*
X80652407Y-82143441D01*
X80451067Y-82267410D01*
X80273578Y-82423620D01*
X80130682Y-82600593D01*
X80067344Y-82646747D01*
X79989415Y-82655049D01*
X79917775Y-82623274D01*
X79887452Y-82590261D01*
X79831236Y-82507088D01*
X79666638Y-82335348D01*
X79666631Y-82335342D01*
X79475369Y-82193885D01*
X79262951Y-82086786D01*
X79160079Y-82055282D01*
X79035490Y-82017127D01*
X79035486Y-82017126D01*
X78799528Y-81986911D01*
X78799524Y-81986910D01*
X78561852Y-81997006D01*
X78561848Y-81997007D01*
X78329301Y-82047124D01*
X78108565Y-82135824D01*
X77905996Y-82260549D01*
X77727420Y-82417716D01*
X77577971Y-82602805D01*
X77577967Y-82602811D01*
X77461955Y-82810483D01*
X77382702Y-83034788D01*
X77342500Y-83269254D01*
X77342500Y-83269255D01*
X77342500Y-85225570D01*
X76910500Y-85225570D01*
X76910500Y-48263973D01*
X76910604Y-48260000D01*
X77389719Y-48260000D01*
X77408823Y-48575840D01*
X77465860Y-48887075D01*
X77559992Y-49189155D01*
X77559995Y-49189164D01*
X77689856Y-49477705D01*
X77704849Y-49502506D01*
X77853554Y-49748495D01*
X78048691Y-49997567D01*
X78272432Y-50221308D01*
X78521504Y-50416445D01*
X78572212Y-50447099D01*
X78792295Y-50580144D01*
X79080836Y-50710005D01*
X79382926Y-50804140D01*
X79624325Y-50848378D01*
X79694159Y-50861176D01*
X79694158Y-50861176D01*
X79728244Y-50863237D01*
X80010000Y-50880281D01*
X80325840Y-50861176D01*
X80637074Y-50804140D01*
X80939164Y-50710005D01*
X81227705Y-50580144D01*
X81498489Y-50416449D01*
X81498491Y-50416447D01*
X81498495Y-50416445D01*
X81670764Y-50281480D01*
X81747568Y-50221308D01*
X81971308Y-49997568D01*
X82081045Y-49857499D01*
X82166445Y-49748495D01*
X82188586Y-49711870D01*
X82330144Y-49477705D01*
X82460005Y-49189164D01*
X82554140Y-48887074D01*
X82611176Y-48575840D01*
X82630281Y-48260000D01*
X82611176Y-47944160D01*
X82554140Y-47632926D01*
X82460005Y-47330836D01*
X82330144Y-47042295D01*
X82172959Y-46782280D01*
X82166445Y-46771504D01*
X81971308Y-46522432D01*
X81747567Y-46298691D01*
X81498495Y-46103554D01*
X81227713Y-45939861D01*
X81227703Y-45939855D01*
X81174968Y-45916121D01*
X80939164Y-45809995D01*
X80939157Y-45809992D01*
X80939155Y-45809992D01*
X80637075Y-45715860D01*
X80325840Y-45658823D01*
X80325841Y-45658823D01*
X80010000Y-45639719D01*
X79694159Y-45658823D01*
X79382924Y-45715860D01*
X79080844Y-45809992D01*
X79080838Y-45809994D01*
X79080836Y-45809995D01*
X79006882Y-45843279D01*
X78792296Y-45939855D01*
X78792286Y-45939861D01*
X78521504Y-46103554D01*
X78272432Y-46298691D01*
X78048691Y-46522432D01*
X77853554Y-46771504D01*
X77689861Y-47042286D01*
X77689855Y-47042296D01*
X77650721Y-47129250D01*
X77568436Y-47312082D01*
X77559994Y-47330839D01*
X77559992Y-47330844D01*
X77465860Y-47632924D01*
X77408823Y-47944159D01*
X77389719Y-48260000D01*
X76910604Y-48260000D01*
X76910707Y-48256050D01*
X76918485Y-48107627D01*
X76927064Y-47943918D01*
X76928718Y-47928190D01*
X76976993Y-47623400D01*
X76980283Y-47607921D01*
X77060151Y-47309846D01*
X77065034Y-47294816D01*
X77175629Y-47006710D01*
X77182063Y-46992260D01*
X77322152Y-46717319D01*
X77330070Y-46703604D01*
X77470587Y-46487227D01*
X77498136Y-46444804D01*
X77507437Y-46432003D01*
X77701637Y-46192186D01*
X77712223Y-46180429D01*
X77930429Y-45962223D01*
X77942186Y-45951637D01*
X78182003Y-45757437D01*
X78194804Y-45748136D01*
X78453604Y-45580070D01*
X78467319Y-45572152D01*
X78742260Y-45432063D01*
X78756710Y-45425629D01*
X79044816Y-45315034D01*
X79059846Y-45310151D01*
X79357921Y-45230283D01*
X79373400Y-45226993D01*
X79678190Y-45178718D01*
X79693918Y-45177064D01*
X80006050Y-45160706D01*
X80013973Y-45160500D01*
X80034531Y-45160500D01*
X166345469Y-45160500D01*
X166366027Y-45160500D01*
X166373949Y-45160706D01*
G37*
%TD.AperFunction*%
%TD*%
M02*
