%TF.GenerationSoftware,KiCad,Pcbnew,7.0.10*%
%TF.CreationDate,2024-02-05T19:05:00-08:00*%
%TF.ProjectId,pcb_lab,7063625f-6c61-4622-9e6b-696361645f70,rev?*%
%TF.SameCoordinates,Original*%
%TF.FileFunction,Legend,Bot*%
%TF.FilePolarity,Positive*%
%FSLAX46Y46*%
G04 Gerber Fmt 4.6, Leading zero omitted, Abs format (unit mm)*
G04 Created by KiCad (PCBNEW 7.0.10) date 2024-02-05 19:05:00*
%MOMM*%
%LPD*%
G01*
G04 APERTURE LIST*
%ADD10C,0.150000*%
%ADD11C,0.120000*%
G04 APERTURE END LIST*
D10*
X81188112Y-93834009D02*
X81330969Y-93881628D01*
X81330969Y-93881628D02*
X81378588Y-93929247D01*
X81378588Y-93929247D02*
X81426207Y-94024485D01*
X81426207Y-94024485D02*
X81426207Y-94167342D01*
X81426207Y-94167342D02*
X81378588Y-94262580D01*
X81378588Y-94262580D02*
X81330969Y-94310200D01*
X81330969Y-94310200D02*
X81235731Y-94357819D01*
X81235731Y-94357819D02*
X80854779Y-94357819D01*
X80854779Y-94357819D02*
X80854779Y-93357819D01*
X80854779Y-93357819D02*
X81188112Y-93357819D01*
X81188112Y-93357819D02*
X81283350Y-93405438D01*
X81283350Y-93405438D02*
X81330969Y-93453057D01*
X81330969Y-93453057D02*
X81378588Y-93548295D01*
X81378588Y-93548295D02*
X81378588Y-93643533D01*
X81378588Y-93643533D02*
X81330969Y-93738771D01*
X81330969Y-93738771D02*
X81283350Y-93786390D01*
X81283350Y-93786390D02*
X81188112Y-93834009D01*
X81188112Y-93834009D02*
X80854779Y-93834009D01*
X82283350Y-94357819D02*
X82283350Y-93834009D01*
X82283350Y-93834009D02*
X82235731Y-93738771D01*
X82235731Y-93738771D02*
X82140493Y-93691152D01*
X82140493Y-93691152D02*
X81950017Y-93691152D01*
X81950017Y-93691152D02*
X81854779Y-93738771D01*
X82283350Y-94310200D02*
X82188112Y-94357819D01*
X82188112Y-94357819D02*
X81950017Y-94357819D01*
X81950017Y-94357819D02*
X81854779Y-94310200D01*
X81854779Y-94310200D02*
X81807160Y-94214961D01*
X81807160Y-94214961D02*
X81807160Y-94119723D01*
X81807160Y-94119723D02*
X81854779Y-94024485D01*
X81854779Y-94024485D02*
X81950017Y-93976866D01*
X81950017Y-93976866D02*
X82188112Y-93976866D01*
X82188112Y-93976866D02*
X82283350Y-93929247D01*
X82616684Y-93691152D02*
X82997636Y-93691152D01*
X82759541Y-93357819D02*
X82759541Y-94214961D01*
X82759541Y-94214961D02*
X82807160Y-94310200D01*
X82807160Y-94310200D02*
X82902398Y-94357819D01*
X82902398Y-94357819D02*
X82997636Y-94357819D01*
X83188113Y-93691152D02*
X83569065Y-93691152D01*
X83330970Y-93357819D02*
X83330970Y-94214961D01*
X83330970Y-94214961D02*
X83378589Y-94310200D01*
X83378589Y-94310200D02*
X83473827Y-94357819D01*
X83473827Y-94357819D02*
X83569065Y-94357819D01*
X84283351Y-94310200D02*
X84188113Y-94357819D01*
X84188113Y-94357819D02*
X83997637Y-94357819D01*
X83997637Y-94357819D02*
X83902399Y-94310200D01*
X83902399Y-94310200D02*
X83854780Y-94214961D01*
X83854780Y-94214961D02*
X83854780Y-93834009D01*
X83854780Y-93834009D02*
X83902399Y-93738771D01*
X83902399Y-93738771D02*
X83997637Y-93691152D01*
X83997637Y-93691152D02*
X84188113Y-93691152D01*
X84188113Y-93691152D02*
X84283351Y-93738771D01*
X84283351Y-93738771D02*
X84330970Y-93834009D01*
X84330970Y-93834009D02*
X84330970Y-93929247D01*
X84330970Y-93929247D02*
X83854780Y-94024485D01*
X84759542Y-94357819D02*
X84759542Y-93691152D01*
X84759542Y-93881628D02*
X84807161Y-93786390D01*
X84807161Y-93786390D02*
X84854780Y-93738771D01*
X84854780Y-93738771D02*
X84950018Y-93691152D01*
X84950018Y-93691152D02*
X85045256Y-93691152D01*
X85283352Y-93691152D02*
X85521447Y-94357819D01*
X85759542Y-93691152D02*
X85521447Y-94357819D01*
X85521447Y-94357819D02*
X85426209Y-94595914D01*
X85426209Y-94595914D02*
X85378590Y-94643533D01*
X85378590Y-94643533D02*
X85283352Y-94691152D01*
X86902400Y-94357819D02*
X86902400Y-93357819D01*
X86902400Y-93357819D02*
X87283352Y-93357819D01*
X87283352Y-93357819D02*
X87378590Y-93405438D01*
X87378590Y-93405438D02*
X87426209Y-93453057D01*
X87426209Y-93453057D02*
X87473828Y-93548295D01*
X87473828Y-93548295D02*
X87473828Y-93691152D01*
X87473828Y-93691152D02*
X87426209Y-93786390D01*
X87426209Y-93786390D02*
X87378590Y-93834009D01*
X87378590Y-93834009D02*
X87283352Y-93881628D01*
X87283352Y-93881628D02*
X86902400Y-93881628D01*
X88045257Y-94357819D02*
X87950019Y-94310200D01*
X87950019Y-94310200D02*
X87902400Y-94262580D01*
X87902400Y-94262580D02*
X87854781Y-94167342D01*
X87854781Y-94167342D02*
X87854781Y-93881628D01*
X87854781Y-93881628D02*
X87902400Y-93786390D01*
X87902400Y-93786390D02*
X87950019Y-93738771D01*
X87950019Y-93738771D02*
X88045257Y-93691152D01*
X88045257Y-93691152D02*
X88188114Y-93691152D01*
X88188114Y-93691152D02*
X88283352Y-93738771D01*
X88283352Y-93738771D02*
X88330971Y-93786390D01*
X88330971Y-93786390D02*
X88378590Y-93881628D01*
X88378590Y-93881628D02*
X88378590Y-94167342D01*
X88378590Y-94167342D02*
X88330971Y-94262580D01*
X88330971Y-94262580D02*
X88283352Y-94310200D01*
X88283352Y-94310200D02*
X88188114Y-94357819D01*
X88188114Y-94357819D02*
X88045257Y-94357819D01*
X88807162Y-94357819D02*
X88807162Y-93691152D01*
X88807162Y-93881628D02*
X88854781Y-93786390D01*
X88854781Y-93786390D02*
X88902400Y-93738771D01*
X88902400Y-93738771D02*
X88997638Y-93691152D01*
X88997638Y-93691152D02*
X89092876Y-93691152D01*
X89283353Y-93691152D02*
X89664305Y-93691152D01*
X89426210Y-93357819D02*
X89426210Y-94214961D01*
X89426210Y-94214961D02*
X89473829Y-94310200D01*
X89473829Y-94310200D02*
X89569067Y-94357819D01*
X89569067Y-94357819D02*
X89664305Y-94357819D01*
X141085119Y-98894905D02*
X140085119Y-98894905D01*
X140085119Y-98894905D02*
X140085119Y-99133000D01*
X140085119Y-99133000D02*
X140132738Y-99275857D01*
X140132738Y-99275857D02*
X140227976Y-99371095D01*
X140227976Y-99371095D02*
X140323214Y-99418714D01*
X140323214Y-99418714D02*
X140513690Y-99466333D01*
X140513690Y-99466333D02*
X140656547Y-99466333D01*
X140656547Y-99466333D02*
X140847023Y-99418714D01*
X140847023Y-99418714D02*
X140942261Y-99371095D01*
X140942261Y-99371095D02*
X141037500Y-99275857D01*
X141037500Y-99275857D02*
X141085119Y-99133000D01*
X141085119Y-99133000D02*
X141085119Y-98894905D01*
X141085119Y-100418714D02*
X141085119Y-99847286D01*
X141085119Y-100133000D02*
X140085119Y-100133000D01*
X140085119Y-100133000D02*
X140227976Y-100037762D01*
X140227976Y-100037762D02*
X140323214Y-99942524D01*
X140323214Y-99942524D02*
X140370833Y-99847286D01*
X101613009Y-110674885D02*
X101660628Y-110817742D01*
X101660628Y-110817742D02*
X101708247Y-110865361D01*
X101708247Y-110865361D02*
X101803485Y-110912980D01*
X101803485Y-110912980D02*
X101946342Y-110912980D01*
X101946342Y-110912980D02*
X102041580Y-110865361D01*
X102041580Y-110865361D02*
X102089200Y-110817742D01*
X102089200Y-110817742D02*
X102136819Y-110722504D01*
X102136819Y-110722504D02*
X102136819Y-110341552D01*
X102136819Y-110341552D02*
X101136819Y-110341552D01*
X101136819Y-110341552D02*
X101136819Y-110674885D01*
X101136819Y-110674885D02*
X101184438Y-110770123D01*
X101184438Y-110770123D02*
X101232057Y-110817742D01*
X101232057Y-110817742D02*
X101327295Y-110865361D01*
X101327295Y-110865361D02*
X101422533Y-110865361D01*
X101422533Y-110865361D02*
X101517771Y-110817742D01*
X101517771Y-110817742D02*
X101565390Y-110770123D01*
X101565390Y-110770123D02*
X101613009Y-110674885D01*
X101613009Y-110674885D02*
X101613009Y-110341552D01*
X101136819Y-111198695D02*
X101136819Y-111770123D01*
X102136819Y-111484409D02*
X101136819Y-111484409D01*
X102136819Y-112627266D02*
X102136819Y-112055838D01*
X102136819Y-112341552D02*
X101136819Y-112341552D01*
X101136819Y-112341552D02*
X101279676Y-112246314D01*
X101279676Y-112246314D02*
X101374914Y-112151076D01*
X101374914Y-112151076D02*
X101422533Y-112055838D01*
X96493819Y-100346166D02*
X97208104Y-100346166D01*
X97208104Y-100346166D02*
X97350961Y-100298547D01*
X97350961Y-100298547D02*
X97446200Y-100203309D01*
X97446200Y-100203309D02*
X97493819Y-100060452D01*
X97493819Y-100060452D02*
X97493819Y-99965214D01*
X97493819Y-101346166D02*
X97493819Y-100774738D01*
X97493819Y-101060452D02*
X96493819Y-101060452D01*
X96493819Y-101060452D02*
X96636676Y-100965214D01*
X96636676Y-100965214D02*
X96731914Y-100869976D01*
X96731914Y-100869976D02*
X96779533Y-100774738D01*
D11*
%TO.C,D1*%
X152350300Y-93923000D02*
X152350300Y-102553000D01*
X149750300Y-93923000D02*
X149750300Y-102553000D01*
X147210300Y-93923000D02*
X147210300Y-102553000D01*
X144670300Y-93923000D02*
X144670300Y-102553000D01*
X144552200Y-93923000D02*
X144552200Y-102553000D01*
X144434105Y-93923000D02*
X144434105Y-102553000D01*
X144316010Y-93923000D02*
X144316010Y-102553000D01*
X144197915Y-93923000D02*
X144197915Y-102553000D01*
X144079820Y-93923000D02*
X144079820Y-102553000D01*
X143961725Y-93923000D02*
X143961725Y-102553000D01*
X143843630Y-93923000D02*
X143843630Y-102553000D01*
X143725535Y-93923000D02*
X143725535Y-102553000D01*
X143607440Y-93923000D02*
X143607440Y-102553000D01*
X143489345Y-93923000D02*
X143489345Y-102553000D01*
X143371250Y-93923000D02*
X143371250Y-102553000D01*
X143253155Y-93923000D02*
X143253155Y-102553000D01*
X143135060Y-93923000D02*
X143135060Y-102553000D01*
X143016965Y-93923000D02*
X143016965Y-102553000D01*
X142898870Y-93923000D02*
X142898870Y-102553000D01*
X142780775Y-93923000D02*
X142780775Y-102553000D01*
X142662680Y-93923000D02*
X142662680Y-102553000D01*
X142544585Y-93923000D02*
X142544585Y-102553000D01*
X142426490Y-93923000D02*
X142426490Y-102553000D01*
X142308395Y-93923000D02*
X142308395Y-102553000D01*
X142190300Y-93923000D02*
X142190300Y-102553000D01*
X142070300Y-93923000D02*
X152350300Y-93923000D01*
X142070300Y-93923000D02*
X142070300Y-102553000D01*
X151380300Y-102553000D02*
X151380300Y-102963000D01*
X150660300Y-102553000D02*
X150660300Y-102963000D01*
X148840300Y-102553000D02*
X148840300Y-102963000D01*
X148120300Y-102553000D02*
X148120300Y-102963000D01*
X146300300Y-102553000D02*
X146300300Y-102963000D01*
X145580300Y-102553000D02*
X145580300Y-102963000D01*
X143760300Y-102553000D02*
X143760300Y-102903000D01*
X143040300Y-102553000D02*
X143040300Y-102903000D01*
X142070300Y-102553000D02*
X152350300Y-102553000D01*
X142070300Y-104013000D02*
X142070300Y-105123000D01*
X142070300Y-105123000D02*
X143400300Y-105123000D01*
%TO.C,BT1*%
X100892000Y-115620600D02*
X99642000Y-115620600D01*
X93972000Y-115320600D02*
X93972000Y-107600600D01*
X97282000Y-115320600D02*
X97282000Y-114310600D01*
X100592000Y-115320600D02*
X93972000Y-115320600D01*
X100892000Y-114370600D02*
X100892000Y-115620600D01*
X96682000Y-114310600D02*
X98982000Y-114310600D01*
X98982000Y-114310600D02*
X98982000Y-108610600D01*
X99592000Y-113060600D02*
X100592000Y-113060600D01*
X100592000Y-113060600D02*
X100592000Y-115320600D01*
X99592000Y-111860600D02*
X99592000Y-113060600D01*
X100192000Y-111860600D02*
X99592000Y-111860600D01*
X99592000Y-111060600D02*
X100192000Y-111060600D01*
X100192000Y-111060600D02*
X100192000Y-111860600D01*
X99592000Y-109860600D02*
X99592000Y-111060600D01*
X100592000Y-109860600D02*
X99592000Y-109860600D01*
X94682000Y-108610600D02*
X94682000Y-114310600D01*
X98982000Y-108610600D02*
X94682000Y-108610600D01*
X93972000Y-107600600D02*
X100592000Y-107600600D01*
X97282000Y-107600600D02*
X97282000Y-108610600D01*
X100592000Y-107600600D02*
X100592000Y-109860600D01*
%TO.C,J1*%
X102239000Y-94769500D02*
X101639000Y-94769500D01*
X101639000Y-94769500D02*
X101939000Y-95369500D01*
X101939000Y-95369500D02*
X102239000Y-94769500D01*
X106849000Y-95569500D02*
X106849000Y-105789500D01*
X98129000Y-95569500D02*
X106849000Y-95569500D01*
X106849000Y-105789500D02*
X98129000Y-105789500D01*
X98129000Y-105789500D02*
X98129000Y-95569500D01*
%TD*%
M02*
