%TF.GenerationSoftware,KiCad,Pcbnew,7.0.10*%
%TF.CreationDate,2024-02-05T19:05:00-08:00*%
%TF.ProjectId,pcb_lab,7063625f-6c61-4622-9e6b-696361645f70,rev?*%
%TF.SameCoordinates,Original*%
%TF.FileFunction,Copper,L2,Bot*%
%TF.FilePolarity,Positive*%
%FSLAX46Y46*%
G04 Gerber Fmt 4.6, Leading zero omitted, Abs format (unit mm)*
G04 Created by KiCad (PCBNEW 7.0.10) date 2024-02-05 19:05:00*
%MOMM*%
%LPD*%
G01*
G04 APERTURE LIST*
G04 Aperture macros list*
%AMRoundRect*
0 Rectangle with rounded corners*
0 $1 Rounding radius*
0 $2 $3 $4 $5 $6 $7 $8 $9 X,Y pos of 4 corners*
0 Add a 4 corners polygon primitive as box body*
4,1,4,$2,$3,$4,$5,$6,$7,$8,$9,$2,$3,0*
0 Add four circle primitives for the rounded corners*
1,1,$1+$1,$2,$3*
1,1,$1+$1,$4,$5*
1,1,$1+$1,$6,$7*
1,1,$1+$1,$8,$9*
0 Add four rect primitives between the rounded corners*
20,1,$1+$1,$2,$3,$4,$5,0*
20,1,$1+$1,$4,$5,$6,$7,0*
20,1,$1+$1,$6,$7,$8,$9,0*
20,1,$1+$1,$8,$9,$2,$3,0*%
G04 Aperture macros list end*
%TA.AperFunction,ComponentPad*%
%ADD10C,2.340000*%
%TD*%
%TA.AperFunction,ComponentPad*%
%ADD11O,1.600000X2.000000*%
%TD*%
%TA.AperFunction,ComponentPad*%
%ADD12RoundRect,0.250000X-0.600000X-0.725000X0.600000X-0.725000X0.600000X0.725000X-0.600000X0.725000X0*%
%TD*%
%TA.AperFunction,ComponentPad*%
%ADD13O,1.700000X1.950000*%
%TD*%
%TA.AperFunction,ComponentPad*%
%ADD14C,1.700000*%
%TD*%
%TA.AperFunction,ComponentPad*%
%ADD15O,1.778000X3.556000*%
%TD*%
%TA.AperFunction,ComponentPad*%
%ADD16RoundRect,0.250001X1.099999X-1.099999X1.099999X1.099999X-1.099999X1.099999X-1.099999X-1.099999X0*%
%TD*%
%TA.AperFunction,ComponentPad*%
%ADD17C,2.700000*%
%TD*%
%TA.AperFunction,ComponentPad*%
%ADD18R,1.600000X1.600000*%
%TD*%
%TA.AperFunction,ComponentPad*%
%ADD19C,1.600000*%
%TD*%
%TA.AperFunction,ComponentPad*%
%ADD20R,1.700000X1.700000*%
%TD*%
%TA.AperFunction,ComponentPad*%
%ADD21O,1.700000X1.700000*%
%TD*%
%TA.AperFunction,ComponentPad*%
%ADD22RoundRect,0.250000X0.725000X-0.600000X0.725000X0.600000X-0.725000X0.600000X-0.725000X-0.600000X0*%
%TD*%
%TA.AperFunction,ComponentPad*%
%ADD23O,1.950000X1.700000*%
%TD*%
%TA.AperFunction,ComponentPad*%
%ADD24RoundRect,0.250001X-1.099999X1.099999X-1.099999X-1.099999X1.099999X-1.099999X1.099999X1.099999X0*%
%TD*%
%TA.AperFunction,ViaPad*%
%ADD25C,1.016000*%
%TD*%
%TA.AperFunction,ViaPad*%
%ADD26C,0.800000*%
%TD*%
%TA.AperFunction,ViaPad*%
%ADD27C,0.889000*%
%TD*%
%TA.AperFunction,Conductor*%
%ADD28C,0.635000*%
%TD*%
%TA.AperFunction,Conductor*%
%ADD29C,0.381000*%
%TD*%
%TA.AperFunction,Conductor*%
%ADD30C,0.254000*%
%TD*%
%TA.AperFunction,Conductor*%
%ADD31C,0.250000*%
%TD*%
G04 APERTURE END LIST*
D10*
%TO.P,RV1,1,1*%
%TO.N,+3.3V*%
X87630000Y-57992000D03*
%TO.P,RV1,2,2*%
%TO.N,/Volumn*%
X87630000Y-62992000D03*
%TO.P,RV1,3,3*%
%TO.N,GND*%
X87630000Y-67992000D03*
%TD*%
D11*
%TO.P,Brd1,1,GND*%
%TO.N,GND*%
X108648000Y-51042000D03*
%TO.P,Brd1,2,VCC*%
%TO.N,+3.3V*%
X111188000Y-51042000D03*
%TO.P,Brd1,3,SCL*%
%TO.N,/SCL*%
X113728000Y-51042000D03*
%TO.P,Brd1,4,SDA*%
%TO.N,/SDA*%
X116268000Y-51042000D03*
%TD*%
D12*
%TO.P,SW1,1,A*%
%TO.N,Net-(BT1-+)*%
X82793200Y-113010600D03*
D13*
%TO.P,SW1,2,B*%
%TO.N,Net-(J1-Pin_2)*%
X85293200Y-113010600D03*
%TO.P,SW1,3,C*%
%TO.N,unconnected-(SW1-C-Pad3)*%
X87793200Y-113010600D03*
%TD*%
D14*
%TO.P,M1,1*%
%TO.N,/M1*%
X145034000Y-51562000D03*
%TO.P,M1,2,-*%
%TO.N,/M2*%
X152654000Y-51562000D03*
%TO.P,M1,3*%
%TO.N,/M3*%
X152654000Y-74422000D03*
%TO.P,M1,4*%
%TO.N,/M4*%
X145034000Y-74422000D03*
%TD*%
D15*
%TO.P,U1,1,GPIO1_A0_D0*%
%TO.N,/Volumn*%
X78740000Y-101041200D03*
%TO.P,U1,2,GPIO2_A1_D1*%
%TO.N,/M3*%
X81280000Y-101041200D03*
%TO.P,U1,3,GPIO3_A2_D2*%
%TO.N,/M4*%
X83820000Y-101041200D03*
%TO.P,U1,4,GPIO4_A3_D3*%
%TO.N,/M2*%
X86360000Y-101041200D03*
%TO.P,U1,5,GPIO4_A3_D3_SDA*%
%TO.N,/SDA*%
X88900000Y-101041200D03*
%TO.P,U1,6,GPIO6_A5_D5_SCL*%
%TO.N,/SCL*%
X91440000Y-101041200D03*
%TO.P,U1,7,GPIO43_TX_D6*%
%TO.N,/M1*%
X93980000Y-101041200D03*
%TO.P,U1,8,5V*%
%TO.N,unconnected-(U1-5V-Pad8)*%
X78740000Y-84277200D03*
%TO.P,U1,9,GND*%
%TO.N,GND*%
X81280000Y-84277200D03*
%TO.P,U1,10,3V3*%
%TO.N,+3.3V*%
X83820000Y-84277200D03*
%TO.P,U1,11,GPIO9_A10_D10_COPI*%
%TO.N,/SDI*%
X86360000Y-84277200D03*
%TO.P,U1,12,GPIO8_A9_D9_CIPO*%
%TO.N,unconnected-(U1-GPIO8_A9_D9_CIPO-Pad12)*%
X88900000Y-84277200D03*
%TO.P,U1,13,GPIO7_A8_D8_SCK*%
%TO.N,/SCK*%
X91440000Y-84277200D03*
%TO.P,U1,14,GPIO44_D7_RX*%
%TO.N,/CS*%
X93980000Y-84277200D03*
%TD*%
D16*
%TO.P,LS1,1,1*%
%TO.N,Net-(U4-OUT+)*%
X158513300Y-96313000D03*
D17*
%TO.P,LS1,2,2*%
%TO.N,Net-(U4-OUT-)*%
X158513300Y-91313000D03*
%TD*%
D18*
%TO.P,C8,1*%
%TO.N,+3.3V*%
X150980300Y-112389200D03*
D19*
%TO.P,C8,2*%
%TO.N,GND*%
X148480300Y-112389200D03*
%TD*%
D20*
%TO.P,D1,1,CIN*%
%TO.N,Net-(D1-CIN)*%
X143400300Y-104013000D03*
D21*
%TO.P,D1,2,DIN*%
%TO.N,Net-(D1-DIN)*%
X145940300Y-104013000D03*
%TO.P,D1,3,GND*%
%TO.N,GND*%
X148480300Y-104013000D03*
%TO.P,D1,4,+5V*%
%TO.N,+3.3V*%
X151020300Y-104013000D03*
%TD*%
D22*
%TO.P,BT1,1,+*%
%TO.N,Net-(BT1-+)*%
X97282000Y-112710600D03*
D23*
%TO.P,BT1,2,-*%
%TO.N,GND*%
X97282000Y-110210600D03*
%TD*%
D24*
%TO.P,J1,1,Pin_1*%
%TO.N,GND*%
X101939000Y-98179500D03*
D17*
%TO.P,J1,2,Pin_2*%
%TO.N,Net-(J1-Pin_2)*%
X101939000Y-103179500D03*
%TD*%
D25*
%TO.N,GND*%
X141351000Y-100203000D03*
X80010000Y-88773000D03*
X81026000Y-87757000D03*
X80010000Y-87757000D03*
X142367000Y-100203000D03*
X141351000Y-101219000D03*
X81026000Y-88773000D03*
X142367000Y-101219000D03*
D26*
%TO.N,/SDA*%
X112776000Y-54864000D03*
D27*
%TO.N,+3.3V*%
X145245300Y-93476700D03*
X151087300Y-94619700D03*
D26*
%TO.N,/SDI*%
X140352300Y-94107000D03*
X140049098Y-114369809D03*
X122428000Y-86487000D03*
%TO.N,/SCK*%
X120713500Y-85598000D03*
X140352300Y-92900500D03*
%TO.N,/CS*%
X140352300Y-91694000D03*
X118999000Y-84709000D03*
%TD*%
D28*
%TO.N,GND*%
X105410000Y-104902000D02*
X110617000Y-110109000D01*
X100101400Y-110210600D02*
X105410000Y-104902000D01*
X114173000Y-110109000D02*
X119761000Y-115697000D01*
X110617000Y-110109000D02*
X114173000Y-110109000D01*
X87630000Y-67992000D02*
X81280000Y-74342000D01*
X119761000Y-115697000D02*
X145172500Y-115697000D01*
X81280000Y-74342000D02*
X81280000Y-85039200D01*
X105410000Y-104902000D02*
X105410000Y-100965000D01*
X97282000Y-110210600D02*
X100101400Y-110210600D01*
X102624500Y-98179500D02*
X101939000Y-98179500D01*
X145172500Y-115697000D02*
X148480300Y-112389200D01*
X105410000Y-100965000D02*
X102624500Y-98179500D01*
D29*
%TO.N,/SCL*%
X91440000Y-100279200D02*
X96266000Y-95453200D01*
X96266000Y-89408000D02*
X113728000Y-71946000D01*
X96266000Y-95453200D02*
X96266000Y-89408000D01*
X113728000Y-71946000D02*
X113728000Y-51042000D01*
%TO.N,/SDA*%
X112776000Y-71818500D02*
X95504000Y-89090500D01*
X95504000Y-89090500D02*
X95504000Y-93675200D01*
X95504000Y-93675200D02*
X88900000Y-100279200D01*
X112776000Y-54864000D02*
X112776000Y-71818500D01*
D28*
%TO.N,+3.3V*%
X145245300Y-93476700D02*
X149944300Y-93476700D01*
X149944300Y-93476700D02*
X151087300Y-94619700D01*
D29*
%TO.N,/M1*%
X94665800Y-100279200D02*
X97028000Y-97917000D01*
X93980000Y-100279200D02*
X94665800Y-100279200D01*
X97028000Y-89662000D02*
X111760000Y-74930000D01*
X111760000Y-74930000D02*
X116713000Y-74930000D01*
X97028000Y-97917000D02*
X97028000Y-89662000D01*
X140081000Y-51562000D02*
X145034000Y-51562000D01*
X116713000Y-74930000D02*
X140081000Y-51562000D01*
%TO.N,/M2*%
X147447000Y-56769000D02*
X152654000Y-51562000D01*
X136017000Y-56769000D02*
X147447000Y-56769000D01*
X117094000Y-75692000D02*
X136017000Y-56769000D01*
X88519000Y-104648000D02*
X95377000Y-104648000D01*
X112014000Y-75692000D02*
X117094000Y-75692000D01*
X86360000Y-100279200D02*
X86360000Y-102489000D01*
X86360000Y-102489000D02*
X88519000Y-104648000D01*
X97790000Y-89916000D02*
X112014000Y-75692000D01*
X97790000Y-102235000D02*
X97790000Y-89916000D01*
X95377000Y-104648000D02*
X97790000Y-102235000D01*
%TO.N,/M3*%
X145288000Y-77216000D02*
X148082000Y-74422000D01*
X96139000Y-106172000D02*
X99314000Y-102997000D01*
X84963000Y-106172000D02*
X96139000Y-106172000D01*
X81280000Y-102489000D02*
X84963000Y-106172000D01*
X148082000Y-74422000D02*
X152654000Y-74422000D01*
X99314000Y-102997000D02*
X99314000Y-90424000D01*
X112522000Y-77216000D02*
X145288000Y-77216000D01*
X99314000Y-90424000D02*
X112522000Y-77216000D01*
X81280000Y-100279200D02*
X81280000Y-102489000D01*
%TO.N,/M4*%
X83820000Y-102362000D02*
X86868000Y-105410000D01*
X112268000Y-76454000D02*
X143129000Y-76454000D01*
X145034000Y-74549000D02*
X145034000Y-74422000D01*
X98552000Y-90170000D02*
X112268000Y-76454000D01*
X98552000Y-102616000D02*
X98552000Y-90170000D01*
X86868000Y-105410000D02*
X95758000Y-105410000D01*
X95758000Y-105410000D02*
X98552000Y-102616000D01*
X143129000Y-76454000D02*
X145034000Y-74549000D01*
X83820000Y-100279200D02*
X83820000Y-102362000D01*
%TO.N,/Volumn*%
X97790000Y-73152000D02*
X87630000Y-62992000D01*
X78740000Y-100279200D02*
X78740000Y-95504000D01*
X90805000Y-92837000D02*
X97790000Y-85852000D01*
X81407000Y-92837000D02*
X90805000Y-92837000D01*
X78740000Y-95504000D02*
X81407000Y-92837000D01*
X97790000Y-85852000D02*
X97790000Y-73152000D01*
D30*
%TO.N,/SDI*%
X140049098Y-114369809D02*
X140041109Y-114369809D01*
X140041109Y-114369809D02*
X137939300Y-112268000D01*
X132732300Y-86487000D02*
X140352300Y-94107000D01*
X122428000Y-86487000D02*
X132732300Y-86487000D01*
X137939300Y-112268000D02*
X137939300Y-96520000D01*
X137939300Y-96520000D02*
X140352300Y-94107000D01*
D31*
%TO.N,/SCK*%
X120904000Y-85598000D02*
X133113300Y-85598000D01*
X133113300Y-85598000D02*
X140352300Y-92837000D01*
%TO.N,/CS*%
X118999000Y-84709000D02*
X133367300Y-84709000D01*
X133367300Y-84709000D02*
X140352300Y-91694000D01*
D28*
%TO.N,Net-(J1-Pin_2)*%
X97930500Y-107188000D02*
X101939000Y-103179500D01*
X90297000Y-107188000D02*
X97930500Y-107188000D01*
X85293200Y-112191800D02*
X90297000Y-107188000D01*
X85293200Y-113010600D02*
X85293200Y-112191800D01*
%TD*%
%TA.AperFunction,Conductor*%
%TO.N,GND*%
G36*
X166373949Y-45160706D02*
G01*
X166686079Y-45177064D01*
X166701811Y-45178718D01*
X167006595Y-45226992D01*
X167022082Y-45230284D01*
X167320148Y-45310150D01*
X167335188Y-45315036D01*
X167623282Y-45425626D01*
X167637746Y-45432066D01*
X167901150Y-45566277D01*
X167912671Y-45572147D01*
X167926395Y-45580070D01*
X168185189Y-45748133D01*
X168198005Y-45757444D01*
X168423271Y-45939861D01*
X168437803Y-45951629D01*
X168449580Y-45962233D01*
X168667766Y-46180419D01*
X168678370Y-46192196D01*
X168760286Y-46293354D01*
X168862075Y-46419053D01*
X168872551Y-46431989D01*
X168881866Y-46444810D01*
X169049929Y-46703604D01*
X169057852Y-46717328D01*
X169197930Y-46992247D01*
X169204376Y-47006724D01*
X169314957Y-47294795D01*
X169319852Y-47309863D01*
X169331346Y-47352757D01*
X169399713Y-47607910D01*
X169403008Y-47623410D01*
X169451279Y-47928173D01*
X169452936Y-47943934D01*
X169469293Y-48256049D01*
X169469500Y-48263973D01*
X169469500Y-114296026D01*
X169469293Y-114303950D01*
X169452936Y-114616065D01*
X169451279Y-114631826D01*
X169403008Y-114936589D01*
X169399713Y-114952089D01*
X169319854Y-115250132D01*
X169314957Y-115265204D01*
X169204376Y-115553275D01*
X169197930Y-115567752D01*
X169057852Y-115842671D01*
X169049929Y-115856395D01*
X168881866Y-116115189D01*
X168872551Y-116128010D01*
X168678370Y-116367803D01*
X168667766Y-116379580D01*
X168449580Y-116597766D01*
X168437803Y-116608370D01*
X168198010Y-116802551D01*
X168185189Y-116811866D01*
X167926395Y-116979929D01*
X167912671Y-116987852D01*
X167637752Y-117127930D01*
X167623275Y-117134376D01*
X167335204Y-117244957D01*
X167320132Y-117249854D01*
X167022089Y-117329713D01*
X167006589Y-117333008D01*
X166701826Y-117381279D01*
X166686065Y-117382936D01*
X166480590Y-117393704D01*
X166373948Y-117399293D01*
X166366027Y-117399500D01*
X80013973Y-117399500D01*
X80006051Y-117399293D01*
X79852278Y-117391234D01*
X79693934Y-117382936D01*
X79678173Y-117381279D01*
X79373410Y-117333008D01*
X79357910Y-117329713D01*
X79158176Y-117276195D01*
X79059863Y-117249852D01*
X79044799Y-117244958D01*
X78756724Y-117134376D01*
X78742247Y-117127930D01*
X78467328Y-116987852D01*
X78453604Y-116979929D01*
X78194810Y-116811866D01*
X78181989Y-116802551D01*
X78146951Y-116774178D01*
X77970901Y-116631615D01*
X77942196Y-116608370D01*
X77930419Y-116597766D01*
X77712233Y-116379580D01*
X77701629Y-116367803D01*
X77658040Y-116313975D01*
X77507444Y-116128005D01*
X77498133Y-116115189D01*
X77330070Y-115856395D01*
X77322147Y-115842671D01*
X77300198Y-115799593D01*
X77182066Y-115567746D01*
X77175623Y-115553275D01*
X77161969Y-115517705D01*
X77065036Y-115265188D01*
X77060150Y-115250148D01*
X76980284Y-114952082D01*
X76976991Y-114936589D01*
X76975484Y-114927074D01*
X76928718Y-114631811D01*
X76927064Y-114616079D01*
X76910707Y-114303949D01*
X76910500Y-114296026D01*
X76910500Y-101989570D01*
X77342500Y-101989570D01*
X77357621Y-102167233D01*
X77417564Y-102397446D01*
X77467498Y-102507913D01*
X77515550Y-102614216D01*
X77515553Y-102614221D01*
X77648763Y-102811311D01*
X77813361Y-102983051D01*
X77813368Y-102983057D01*
X77813369Y-102983058D01*
X78004631Y-103124515D01*
X78217049Y-103231614D01*
X78444511Y-103301273D01*
X78680474Y-103331489D01*
X78680474Y-103331488D01*
X78680475Y-103331489D01*
X78759699Y-103328123D01*
X78918149Y-103321393D01*
X79150699Y-103271275D01*
X79371435Y-103182576D01*
X79574005Y-103057849D01*
X79752582Y-102900681D01*
X79894297Y-102725169D01*
X79957632Y-102679017D01*
X80035561Y-102670715D01*
X80107201Y-102702489D01*
X80137525Y-102735503D01*
X80188763Y-102811311D01*
X80353361Y-102983051D01*
X80353368Y-102983057D01*
X80353369Y-102983058D01*
X80544631Y-103124515D01*
X80757049Y-103231614D01*
X80984511Y-103301273D01*
X81069973Y-103312216D01*
X81142482Y-103341950D01*
X81157798Y-103355334D01*
X84450561Y-106648096D01*
X84456830Y-106654756D01*
X84496069Y-106699048D01*
X84496072Y-106699051D01*
X84544771Y-106732666D01*
X84552135Y-106738085D01*
X84585010Y-106763840D01*
X84598725Y-106774585D01*
X84605653Y-106777702D01*
X84629520Y-106791164D01*
X84635772Y-106795480D01*
X84635777Y-106795482D01*
X84691101Y-106816464D01*
X84699538Y-106819957D01*
X84753518Y-106844252D01*
X84760988Y-106845620D01*
X84787387Y-106852979D01*
X84794490Y-106855673D01*
X84853225Y-106862804D01*
X84862254Y-106864178D01*
X84920486Y-106874850D01*
X84979572Y-106871275D01*
X84988713Y-106871000D01*
X89080347Y-106871000D01*
X89156047Y-106891284D01*
X89211463Y-106946700D01*
X89231747Y-107022400D01*
X89211463Y-107098100D01*
X89187403Y-107129456D01*
X84737219Y-111579638D01*
X84728178Y-111587972D01*
X84689993Y-111620406D01*
X84689990Y-111620409D01*
X84648155Y-111675442D01*
X84607009Y-111712738D01*
X84482469Y-111789421D01*
X84308875Y-111942202D01*
X84304431Y-111946840D01*
X84303485Y-111945933D01*
X84245907Y-111987871D01*
X84167976Y-111996156D01*
X84096343Y-111964365D01*
X84062626Y-111926077D01*
X83992230Y-111811948D01*
X83866852Y-111686570D01*
X83866850Y-111686568D01*
X83715938Y-111593485D01*
X83547623Y-111537712D01*
X83443746Y-111527100D01*
X82142653Y-111527100D01*
X82038777Y-111537712D01*
X81870461Y-111593485D01*
X81719549Y-111686568D01*
X81594168Y-111811949D01*
X81501085Y-111962861D01*
X81445312Y-112131176D01*
X81445312Y-112131177D01*
X81434700Y-112235053D01*
X81434700Y-113786146D01*
X81445312Y-113890022D01*
X81445312Y-113890024D01*
X81445313Y-113890026D01*
X81482653Y-114002714D01*
X81501085Y-114058338D01*
X81594168Y-114209250D01*
X81719549Y-114334631D01*
X81776582Y-114369809D01*
X81870462Y-114427715D01*
X82038774Y-114483487D01*
X82142655Y-114494100D01*
X83443744Y-114494099D01*
X83443746Y-114494099D01*
X83478371Y-114490561D01*
X83547626Y-114483487D01*
X83715938Y-114427715D01*
X83866852Y-114334630D01*
X83992230Y-114209252D01*
X84065023Y-114091235D01*
X84122025Y-114037458D01*
X84198282Y-114019384D01*
X84273361Y-114041860D01*
X84303184Y-114065961D01*
X84392420Y-114159069D01*
X84392432Y-114159080D01*
X84578355Y-114296587D01*
X84723584Y-114369809D01*
X84784843Y-114400695D01*
X85005957Y-114468411D01*
X85235335Y-114497784D01*
X85466378Y-114487969D01*
X85692438Y-114439249D01*
X85907013Y-114353026D01*
X86103930Y-114231779D01*
X86277524Y-114078998D01*
X86422800Y-113899076D01*
X86422801Y-113899074D01*
X86426840Y-113894072D01*
X86428496Y-113895409D01*
X86479887Y-113850799D01*
X86556828Y-113835898D01*
X86630911Y-113861464D01*
X86671599Y-113902141D01*
X86727034Y-113984159D01*
X86732417Y-113992123D01*
X86884825Y-114151143D01*
X86892427Y-114159075D01*
X86892432Y-114159080D01*
X87078355Y-114296587D01*
X87223584Y-114369809D01*
X87284843Y-114400695D01*
X87505957Y-114468411D01*
X87735335Y-114497784D01*
X87966378Y-114487969D01*
X88192438Y-114439249D01*
X88407013Y-114353026D01*
X88553354Y-114262920D01*
X94802630Y-114262920D01*
X94812938Y-114453073D01*
X94863884Y-114636563D01*
X94863887Y-114636570D01*
X94953086Y-114804816D01*
X94953090Y-114804823D01*
X95076368Y-114949956D01*
X95076369Y-114949957D01*
X95227971Y-115065202D01*
X95400803Y-115145162D01*
X95586784Y-115186100D01*
X95586788Y-115186100D01*
X95729461Y-115186100D01*
X95729465Y-115186100D01*
X95871316Y-115170673D01*
X96051780Y-115109867D01*
X96214954Y-115011689D01*
X96353207Y-114880729D01*
X96460075Y-114723110D01*
X96530562Y-114546202D01*
X96561370Y-114358278D01*
X96558184Y-114299503D01*
X96554345Y-114228694D01*
X96570501Y-114152007D01*
X96622837Y-114093673D01*
X96697328Y-114069321D01*
X96705523Y-114069099D01*
X98057546Y-114069099D01*
X98092171Y-114065561D01*
X98161426Y-114058487D01*
X98329738Y-114002715D01*
X98480652Y-113909630D01*
X98606030Y-113784252D01*
X98699115Y-113633338D01*
X98754887Y-113465026D01*
X98765500Y-113361145D01*
X98765499Y-112060056D01*
X98763005Y-112035646D01*
X98758125Y-111987871D01*
X98754887Y-111956174D01*
X98699115Y-111787862D01*
X98632412Y-111679719D01*
X98606031Y-111636949D01*
X98480650Y-111511568D01*
X98355749Y-111434528D01*
X98301968Y-111377524D01*
X98283894Y-111301266D01*
X98306371Y-111226188D01*
X98328174Y-111198613D01*
X98445109Y-111081678D01*
X98580595Y-110888186D01*
X98580598Y-110888181D01*
X98680430Y-110674093D01*
X98737635Y-110460600D01*
X97685969Y-110460600D01*
X97718519Y-110409951D01*
X97757000Y-110278895D01*
X97757000Y-110142305D01*
X97718519Y-110011249D01*
X97685969Y-109960600D01*
X98737635Y-109960600D01*
X98737635Y-109960599D01*
X98680430Y-109747106D01*
X98580600Y-109533023D01*
X98445106Y-109339518D01*
X98278081Y-109172493D01*
X98084576Y-109036999D01*
X97870492Y-108937169D01*
X97870493Y-108937169D01*
X97642320Y-108876030D01*
X97642321Y-108876030D01*
X97532000Y-108866379D01*
X97532000Y-109802581D01*
X97417199Y-109750154D01*
X97315975Y-109735600D01*
X97248025Y-109735600D01*
X97146801Y-109750154D01*
X97032000Y-109802581D01*
X97032000Y-108866379D01*
X96921679Y-108876030D01*
X96693506Y-108937169D01*
X96479423Y-109036999D01*
X96285918Y-109172493D01*
X96118890Y-109339521D01*
X95983404Y-109533013D01*
X95983401Y-109533018D01*
X95883569Y-109747106D01*
X95826364Y-109960599D01*
X95826365Y-109960600D01*
X96878031Y-109960600D01*
X96845481Y-110011249D01*
X96807000Y-110142305D01*
X96807000Y-110278895D01*
X96845481Y-110409951D01*
X96878031Y-110460600D01*
X95826364Y-110460600D01*
X95883569Y-110674093D01*
X95983399Y-110888176D01*
X96118893Y-111081681D01*
X96235825Y-111198613D01*
X96275010Y-111266484D01*
X96275010Y-111344854D01*
X96235825Y-111412725D01*
X96208251Y-111434528D01*
X96083348Y-111511569D01*
X95957968Y-111636949D01*
X95864885Y-111787861D01*
X95809112Y-111956176D01*
X95809112Y-111956177D01*
X95799618Y-112049111D01*
X95798500Y-112060055D01*
X95798500Y-112706487D01*
X95798501Y-113283700D01*
X95778217Y-113359400D01*
X95722801Y-113414816D01*
X95647101Y-113435100D01*
X95634535Y-113435100D01*
X95539967Y-113445384D01*
X95492682Y-113450527D01*
X95312219Y-113511333D01*
X95149046Y-113609511D01*
X95010790Y-113740473D01*
X95010788Y-113740476D01*
X94903925Y-113898088D01*
X94903924Y-113898090D01*
X94833437Y-114075000D01*
X94802630Y-114262920D01*
X88553354Y-114262920D01*
X88603930Y-114231779D01*
X88777524Y-114078998D01*
X88922800Y-113899076D01*
X89035580Y-113697191D01*
X89112619Y-113479150D01*
X89151700Y-113251225D01*
X89151700Y-112827887D01*
X89137001Y-112655182D01*
X89078730Y-112431393D01*
X88983478Y-112220671D01*
X88983475Y-112220666D01*
X88983472Y-112220661D01*
X88853987Y-112029083D01*
X88853983Y-112029077D01*
X88693972Y-111862124D01*
X88693967Y-111862119D01*
X88508044Y-111724612D01*
X88301562Y-111620507D01*
X88301549Y-111620502D01*
X88080451Y-111552791D01*
X88080445Y-111552789D01*
X88080443Y-111552789D01*
X87851065Y-111523416D01*
X87851064Y-111523416D01*
X87620023Y-111533230D01*
X87620019Y-111533231D01*
X87484770Y-111562380D01*
X87406496Y-111558500D01*
X87340648Y-111516002D01*
X87304871Y-111446275D01*
X87308751Y-111368001D01*
X87345815Y-111307324D01*
X90594796Y-108058344D01*
X90662667Y-108019159D01*
X90701852Y-108014000D01*
X97890754Y-108014000D01*
X97903041Y-108014499D01*
X97906976Y-108014819D01*
X97952999Y-108018567D01*
X98028925Y-108008221D01*
X98032945Y-108007729D01*
X98109113Y-107999446D01*
X98109116Y-107999445D01*
X98117130Y-107997681D01*
X98117169Y-107997861D01*
X98123089Y-107996474D01*
X98123045Y-107996296D01*
X98131011Y-107994314D01*
X98131013Y-107994312D01*
X98131021Y-107994312D01*
X98202988Y-107967871D01*
X98206725Y-107966555D01*
X98279374Y-107942078D01*
X98279380Y-107942073D01*
X98286821Y-107938632D01*
X98286897Y-107938798D01*
X98292392Y-107936165D01*
X98292311Y-107936002D01*
X98299666Y-107932354D01*
X98319420Y-107919727D01*
X98364232Y-107891083D01*
X98367627Y-107888976D01*
X98433322Y-107849451D01*
X98433330Y-107849443D01*
X98439859Y-107844481D01*
X98439969Y-107844627D01*
X98444766Y-107840876D01*
X98444652Y-107840734D01*
X98451041Y-107835596D01*
X98451049Y-107835592D01*
X98505258Y-107781381D01*
X98508122Y-107778594D01*
X98563758Y-107725894D01*
X98563760Y-107725890D01*
X98569076Y-107719634D01*
X98569214Y-107719752D01*
X98580275Y-107706364D01*
X100461489Y-105825150D01*
X110160500Y-105825150D01*
X110161051Y-105830040D01*
X110195401Y-106134900D01*
X110196586Y-106145412D01*
X110196587Y-106145423D01*
X110268301Y-106459624D01*
X110268302Y-106459628D01*
X110374751Y-106763841D01*
X110514588Y-107054215D01*
X110514590Y-107054218D01*
X110686065Y-107327119D01*
X110887002Y-107579086D01*
X110887011Y-107579096D01*
X111114903Y-107806988D01*
X111114913Y-107806997D01*
X111366880Y-108007934D01*
X111366883Y-108007936D01*
X111366887Y-108007939D01*
X111639782Y-108179410D01*
X111930160Y-108319249D01*
X112234369Y-108425697D01*
X112548584Y-108497414D01*
X112822686Y-108528298D01*
X112868850Y-108533500D01*
X112868852Y-108533500D01*
X128431150Y-108533500D01*
X128474210Y-108528648D01*
X128751416Y-108497414D01*
X129065631Y-108425697D01*
X129369840Y-108319249D01*
X129660218Y-108179410D01*
X129933113Y-108007939D01*
X130185094Y-107806991D01*
X130412991Y-107579094D01*
X130613939Y-107327113D01*
X130785410Y-107054218D01*
X130925249Y-106763840D01*
X131031697Y-106459631D01*
X131103414Y-106145416D01*
X131138949Y-105830040D01*
X131139500Y-105825150D01*
X131139500Y-90008849D01*
X131123362Y-89865625D01*
X131103414Y-89688584D01*
X131031697Y-89374369D01*
X130925249Y-89070160D01*
X130785410Y-88779782D01*
X130613939Y-88506887D01*
X130613936Y-88506883D01*
X130613934Y-88506880D01*
X130412997Y-88254913D01*
X130412988Y-88254903D01*
X130185096Y-88027011D01*
X130185086Y-88027002D01*
X129933119Y-87826065D01*
X129878419Y-87791695D01*
X129660218Y-87654590D01*
X129660215Y-87654588D01*
X129369841Y-87514751D01*
X129089925Y-87416804D01*
X129025173Y-87372656D01*
X128991169Y-87302047D01*
X128997026Y-87223895D01*
X129041174Y-87159143D01*
X129111783Y-87125139D01*
X129139930Y-87122500D01*
X132406356Y-87122500D01*
X132482056Y-87142784D01*
X132513412Y-87166844D01*
X139346511Y-93999943D01*
X139385696Y-94067814D01*
X139385696Y-94146184D01*
X139346511Y-94214055D01*
X137551357Y-96009208D01*
X137537963Y-96019941D01*
X137538328Y-96020382D01*
X137530994Y-96026448D01*
X137484489Y-96075971D01*
X137481185Y-96079381D01*
X137461659Y-96098908D01*
X137461657Y-96098910D01*
X137459888Y-96101191D01*
X137450640Y-96112018D01*
X137421082Y-96143494D01*
X137421079Y-96143499D01*
X137412240Y-96159576D01*
X137399207Y-96179418D01*
X137387950Y-96193931D01*
X137387948Y-96193935D01*
X137370800Y-96233561D01*
X137364528Y-96246364D01*
X137343730Y-96284197D01*
X137343729Y-96284199D01*
X137339166Y-96301973D01*
X137331474Y-96324441D01*
X137324184Y-96341287D01*
X137324182Y-96341295D01*
X137317429Y-96383933D01*
X137314537Y-96397897D01*
X137303800Y-96439715D01*
X137303800Y-96458068D01*
X137301936Y-96481752D01*
X137299065Y-96499878D01*
X137303128Y-96542859D01*
X137303800Y-96557107D01*
X137303800Y-112181126D01*
X137301917Y-112198179D01*
X137302489Y-112198233D01*
X137301592Y-112207722D01*
X137303725Y-112275598D01*
X137303800Y-112280353D01*
X137303800Y-112307982D01*
X137304160Y-112310834D01*
X137305278Y-112325044D01*
X137306634Y-112368201D01*
X137306635Y-112368206D01*
X137311755Y-112385829D01*
X137316572Y-112409087D01*
X137318873Y-112427300D01*
X137318874Y-112427303D01*
X137334764Y-112467439D01*
X137339382Y-112480925D01*
X137351431Y-112522394D01*
X137360775Y-112538194D01*
X137371223Y-112559522D01*
X137377978Y-112576583D01*
X137377982Y-112576590D01*
X137403364Y-112611526D01*
X137411194Y-112623446D01*
X137433164Y-112660596D01*
X137446139Y-112673571D01*
X137461567Y-112691635D01*
X137472357Y-112706486D01*
X137472358Y-112706487D01*
X137505622Y-112734005D01*
X137516173Y-112743605D01*
X139096886Y-114324318D01*
X139136071Y-114392189D01*
X139140401Y-114415548D01*
X139155556Y-114559740D01*
X139214570Y-114741362D01*
X139214571Y-114741365D01*
X139310055Y-114906750D01*
X139310058Y-114906753D01*
X139432912Y-115043197D01*
X139437845Y-115048675D01*
X139522067Y-115109866D01*
X139592344Y-115160926D01*
X139592346Y-115160927D01*
X139766810Y-115238603D01*
X139953611Y-115278309D01*
X139953614Y-115278309D01*
X140144582Y-115278309D01*
X140144585Y-115278309D01*
X140331386Y-115238603D01*
X140505850Y-115160927D01*
X140660351Y-115048675D01*
X140788138Y-114906753D01*
X140796927Y-114891531D01*
X140813997Y-114861964D01*
X140883625Y-114741365D01*
X140942640Y-114559737D01*
X140962602Y-114369809D01*
X140955265Y-114300000D01*
X163749719Y-114300000D01*
X163768823Y-114615840D01*
X163825860Y-114927075D01*
X163906575Y-115186098D01*
X163919995Y-115229164D01*
X164009325Y-115427648D01*
X164049855Y-115517703D01*
X164049861Y-115517713D01*
X164213554Y-115788495D01*
X164408691Y-116037567D01*
X164632432Y-116261308D01*
X164881504Y-116456445D01*
X164915561Y-116477033D01*
X165152295Y-116620144D01*
X165440836Y-116750005D01*
X165742926Y-116844140D01*
X165984325Y-116888378D01*
X166054159Y-116901176D01*
X166054158Y-116901176D01*
X166088244Y-116903237D01*
X166370000Y-116920281D01*
X166685840Y-116901176D01*
X166997074Y-116844140D01*
X167299164Y-116750005D01*
X167587705Y-116620144D01*
X167858489Y-116456449D01*
X167858491Y-116456447D01*
X167858495Y-116456445D01*
X167996387Y-116348413D01*
X168107568Y-116261308D01*
X168331308Y-116037568D01*
X168484000Y-115842671D01*
X168526445Y-115788495D01*
X168532958Y-115777721D01*
X168690144Y-115517705D01*
X168820005Y-115229164D01*
X168914140Y-114927074D01*
X168971176Y-114615840D01*
X168990281Y-114300000D01*
X168971176Y-113984160D01*
X168914140Y-113672926D01*
X168820005Y-113370836D01*
X168690144Y-113082295D01*
X168526449Y-112811511D01*
X168526445Y-112811504D01*
X168331308Y-112562432D01*
X168107567Y-112338691D01*
X167858495Y-112143554D01*
X167587713Y-111979861D01*
X167587703Y-111979855D01*
X167514346Y-111946840D01*
X167299164Y-111849995D01*
X167299157Y-111849992D01*
X167299155Y-111849992D01*
X166997075Y-111755860D01*
X166685840Y-111698823D01*
X166685841Y-111698823D01*
X166370000Y-111679719D01*
X166054159Y-111698823D01*
X165742924Y-111755860D01*
X165440844Y-111849992D01*
X165440838Y-111849994D01*
X165440836Y-111849995D01*
X165328584Y-111900515D01*
X165152296Y-111979855D01*
X165152286Y-111979861D01*
X164881504Y-112143554D01*
X164632432Y-112338691D01*
X164408691Y-112562432D01*
X164213554Y-112811504D01*
X164049861Y-113082286D01*
X164049855Y-113082296D01*
X164004537Y-113182990D01*
X163959212Y-113283700D01*
X163919994Y-113370839D01*
X163919992Y-113370844D01*
X163825860Y-113672924D01*
X163768823Y-113984159D01*
X163749719Y-114300000D01*
X140955265Y-114300000D01*
X140942640Y-114179881D01*
X140883625Y-113998253D01*
X140832459Y-113909631D01*
X140788140Y-113832867D01*
X140788137Y-113832864D01*
X140660353Y-113690945D01*
X140660352Y-113690944D01*
X140660351Y-113690943D01*
X140556468Y-113615467D01*
X140505851Y-113578691D01*
X140505847Y-113578689D01*
X140331387Y-113501015D01*
X140284685Y-113491088D01*
X140144585Y-113461309D01*
X140144582Y-113461309D01*
X140094053Y-113461309D01*
X140018353Y-113441025D01*
X139986997Y-113416965D01*
X138959233Y-112389200D01*
X147175334Y-112389200D01*
X147195158Y-112615805D01*
X147254032Y-112835521D01*
X147254034Y-112835528D01*
X147350167Y-113041685D01*
X147350170Y-113041690D01*
X147401273Y-113114671D01*
X147401274Y-113114672D01*
X148082345Y-112433599D01*
X148095135Y-112514348D01*
X148152659Y-112627245D01*
X148242255Y-112716841D01*
X148355152Y-112774365D01*
X148435899Y-112787153D01*
X147754827Y-113468225D01*
X147827813Y-113519331D01*
X147827819Y-113519335D01*
X148033966Y-113615463D01*
X148033978Y-113615467D01*
X148253694Y-113674341D01*
X148480300Y-113694165D01*
X148706905Y-113674341D01*
X148926621Y-113615467D01*
X148926633Y-113615463D01*
X149132776Y-113519337D01*
X149132790Y-113519329D01*
X149205771Y-113468225D01*
X149205771Y-113468224D01*
X148524700Y-112787153D01*
X148605448Y-112774365D01*
X148718345Y-112716841D01*
X148807941Y-112627245D01*
X148865465Y-112514348D01*
X148878253Y-112433600D01*
X149575195Y-113130542D01*
X149586950Y-113132615D01*
X149646986Y-113182990D01*
X149673499Y-113253647D01*
X149678309Y-113298393D01*
X149678313Y-113298406D01*
X149729409Y-113435401D01*
X149729410Y-113435403D01*
X149729411Y-113435404D01*
X149817039Y-113552461D01*
X149934096Y-113640089D01*
X149934097Y-113640089D01*
X149934098Y-113640090D01*
X149968346Y-113652864D01*
X150071099Y-113691189D01*
X150131662Y-113697700D01*
X150131667Y-113697700D01*
X151828933Y-113697700D01*
X151828938Y-113697700D01*
X151889501Y-113691189D01*
X152026504Y-113640089D01*
X152143561Y-113552461D01*
X152231189Y-113435404D01*
X152282289Y-113298401D01*
X152288800Y-113237838D01*
X152288800Y-111540562D01*
X152282289Y-111479999D01*
X152243964Y-111377246D01*
X152231190Y-111342998D01*
X152231189Y-111342996D01*
X152143561Y-111225939D01*
X152026504Y-111138311D01*
X152026503Y-111138310D01*
X152026501Y-111138309D01*
X151889506Y-111087213D01*
X151889501Y-111087211D01*
X151828938Y-111080700D01*
X150131662Y-111080700D01*
X150081192Y-111086125D01*
X150071098Y-111087211D01*
X150071093Y-111087213D01*
X149934098Y-111138309D01*
X149817039Y-111225939D01*
X149729409Y-111342998D01*
X149678313Y-111479993D01*
X149678309Y-111480006D01*
X149673499Y-111524752D01*
X149645239Y-111597850D01*
X149584217Y-111647024D01*
X149574396Y-111648655D01*
X148878253Y-112344798D01*
X148865465Y-112264052D01*
X148807941Y-112151155D01*
X148718345Y-112061559D01*
X148605448Y-112004035D01*
X148524699Y-111991245D01*
X149205772Y-111310174D01*
X149205771Y-111310173D01*
X149132790Y-111259070D01*
X149132785Y-111259067D01*
X148926628Y-111162934D01*
X148926621Y-111162932D01*
X148706905Y-111104058D01*
X148480300Y-111084234D01*
X148253694Y-111104058D01*
X148033978Y-111162932D01*
X148033971Y-111162934D01*
X147827814Y-111259067D01*
X147827811Y-111259069D01*
X147754826Y-111310173D01*
X148435899Y-111991246D01*
X148355152Y-112004035D01*
X148242255Y-112061559D01*
X148152659Y-112151155D01*
X148095135Y-112264052D01*
X148082346Y-112344799D01*
X147401273Y-111663726D01*
X147350169Y-111736711D01*
X147350167Y-111736714D01*
X147254034Y-111942871D01*
X147254032Y-111942878D01*
X147195158Y-112162594D01*
X147175334Y-112389200D01*
X138959233Y-112389200D01*
X138619144Y-112049111D01*
X138579959Y-111981240D01*
X138574800Y-111942055D01*
X138574800Y-104911638D01*
X142041800Y-104911638D01*
X142047631Y-104965874D01*
X142048311Y-104972201D01*
X142048313Y-104972206D01*
X142099409Y-105109201D01*
X142099410Y-105109203D01*
X142099411Y-105109204D01*
X142187039Y-105226261D01*
X142304096Y-105313889D01*
X142304097Y-105313889D01*
X142304098Y-105313890D01*
X142338346Y-105326664D01*
X142441099Y-105364989D01*
X142501662Y-105371500D01*
X142501667Y-105371500D01*
X144298933Y-105371500D01*
X144298938Y-105371500D01*
X144359501Y-105364989D01*
X144496504Y-105313889D01*
X144613561Y-105226261D01*
X144701189Y-105109204D01*
X144730838Y-105029711D01*
X144776297Y-104965874D01*
X144847585Y-104933317D01*
X144925601Y-104940767D01*
X144984079Y-104980080D01*
X145017060Y-105015906D01*
X145034798Y-105029712D01*
X145194725Y-105154190D01*
X145392722Y-105261340D01*
X145392725Y-105261342D01*
X145465802Y-105286429D01*
X145605665Y-105334444D01*
X145753709Y-105359148D01*
X145827730Y-105371500D01*
X145827731Y-105371500D01*
X146052870Y-105371500D01*
X146117081Y-105360785D01*
X146274935Y-105334444D01*
X146487874Y-105261342D01*
X146685876Y-105154189D01*
X146863540Y-105015906D01*
X147016022Y-104850268D01*
X147087898Y-104740253D01*
X147146279Y-104687977D01*
X147222981Y-104671894D01*
X147297449Y-104696316D01*
X147338661Y-104736224D01*
X147442190Y-104884078D01*
X147609221Y-105051109D01*
X147802713Y-105186595D01*
X147802718Y-105186598D01*
X148016805Y-105286429D01*
X148016812Y-105286431D01*
X148230298Y-105343634D01*
X148230300Y-105343634D01*
X148230300Y-104448501D01*
X148337985Y-104497680D01*
X148444537Y-104513000D01*
X148516063Y-104513000D01*
X148622615Y-104497680D01*
X148730300Y-104448501D01*
X148730300Y-105343634D01*
X148730301Y-105343634D01*
X148943787Y-105286431D01*
X148943794Y-105286429D01*
X149157881Y-105186598D01*
X149157886Y-105186595D01*
X149351378Y-105051109D01*
X149518408Y-104884079D01*
X149621937Y-104736225D01*
X149681972Y-104685849D01*
X149759152Y-104672240D01*
X149832796Y-104699044D01*
X149872702Y-104740254D01*
X149944578Y-104850268D01*
X149975703Y-104884078D01*
X150090527Y-105008810D01*
X150097060Y-105015906D01*
X150114798Y-105029712D01*
X150274725Y-105154190D01*
X150472722Y-105261340D01*
X150472725Y-105261342D01*
X150545802Y-105286429D01*
X150685665Y-105334444D01*
X150833709Y-105359148D01*
X150907730Y-105371500D01*
X150907731Y-105371500D01*
X151132870Y-105371500D01*
X151197081Y-105360785D01*
X151354935Y-105334444D01*
X151567874Y-105261342D01*
X151765876Y-105154189D01*
X151943540Y-105015906D01*
X152096022Y-104850268D01*
X152219160Y-104661791D01*
X152309596Y-104455616D01*
X152364864Y-104237368D01*
X152383456Y-104013000D01*
X152364864Y-103788632D01*
X152309596Y-103570384D01*
X152309595Y-103570381D01*
X152309595Y-103570380D01*
X152219163Y-103364216D01*
X152219160Y-103364210D01*
X152219160Y-103364209D01*
X152096022Y-103175732D01*
X151943540Y-103010094D01*
X151898314Y-102974893D01*
X151765874Y-102871809D01*
X151567877Y-102764659D01*
X151567874Y-102764657D01*
X151354941Y-102691558D01*
X151354932Y-102691555D01*
X151132870Y-102654500D01*
X151132869Y-102654500D01*
X150907731Y-102654500D01*
X150907730Y-102654500D01*
X150685667Y-102691555D01*
X150685658Y-102691558D01*
X150472725Y-102764657D01*
X150472722Y-102764659D01*
X150274725Y-102871809D01*
X150097059Y-103010094D01*
X150097058Y-103010095D01*
X149944580Y-103175729D01*
X149944576Y-103175734D01*
X149872704Y-103285743D01*
X149814319Y-103338022D01*
X149737616Y-103354105D01*
X149663149Y-103329682D01*
X149621937Y-103289775D01*
X149518406Y-103141918D01*
X149351378Y-102974890D01*
X149157886Y-102839404D01*
X149157881Y-102839401D01*
X148943792Y-102739569D01*
X148943793Y-102739569D01*
X148730300Y-102682364D01*
X148730300Y-103577498D01*
X148622615Y-103528320D01*
X148516063Y-103513000D01*
X148444537Y-103513000D01*
X148337985Y-103528320D01*
X148230300Y-103577498D01*
X148230300Y-102682364D01*
X148230299Y-102682364D01*
X148016806Y-102739569D01*
X147802723Y-102839399D01*
X147609218Y-102974893D01*
X147442190Y-103141921D01*
X147338661Y-103289775D01*
X147278626Y-103340150D01*
X147201446Y-103353759D01*
X147127802Y-103326954D01*
X147087897Y-103285745D01*
X147022389Y-103185477D01*
X147016023Y-103175733D01*
X147016019Y-103175729D01*
X146863541Y-103010095D01*
X146863540Y-103010094D01*
X146685874Y-102871809D01*
X146487877Y-102764659D01*
X146487874Y-102764657D01*
X146274941Y-102691558D01*
X146274932Y-102691555D01*
X146052870Y-102654500D01*
X146052869Y-102654500D01*
X145827731Y-102654500D01*
X145827730Y-102654500D01*
X145605667Y-102691555D01*
X145605658Y-102691558D01*
X145392725Y-102764657D01*
X145392722Y-102764659D01*
X145194725Y-102871809D01*
X145017062Y-103010092D01*
X144984080Y-103045920D01*
X144917886Y-103087875D01*
X144839582Y-103091113D01*
X144770150Y-103054766D01*
X144730838Y-102996287D01*
X144701190Y-102916798D01*
X144701189Y-102916796D01*
X144613561Y-102799739D01*
X144496504Y-102712111D01*
X144496503Y-102712110D01*
X144496501Y-102712109D01*
X144359506Y-102661013D01*
X144359501Y-102661011D01*
X144298938Y-102654500D01*
X142501662Y-102654500D01*
X142451192Y-102659925D01*
X142441098Y-102661011D01*
X142441093Y-102661013D01*
X142304098Y-102712109D01*
X142187039Y-102799739D01*
X142099409Y-102916798D01*
X142048313Y-103053793D01*
X142048311Y-103053799D01*
X142041800Y-103114362D01*
X142041800Y-104911638D01*
X138574800Y-104911638D01*
X138574800Y-97463545D01*
X156654800Y-97463545D01*
X156665412Y-97567420D01*
X156665412Y-97567422D01*
X156721185Y-97735738D01*
X156814268Y-97886649D01*
X156939650Y-98012031D01*
X156986898Y-98041174D01*
X157090562Y-98105115D01*
X157258875Y-98160887D01*
X157321203Y-98167254D01*
X157362754Y-98171500D01*
X157362756Y-98171500D01*
X159663846Y-98171500D01*
X159693524Y-98168467D01*
X159767725Y-98160887D01*
X159936038Y-98105115D01*
X160086951Y-98012030D01*
X160212330Y-97886651D01*
X160305415Y-97735738D01*
X160361187Y-97567425D01*
X160371800Y-97463544D01*
X160371800Y-95162456D01*
X160370185Y-95146653D01*
X160364719Y-95093148D01*
X160361187Y-95058575D01*
X160305415Y-94890262D01*
X160241022Y-94785866D01*
X160212331Y-94739350D01*
X160086949Y-94613968D01*
X159936038Y-94520885D01*
X159808285Y-94478553D01*
X159767725Y-94465113D01*
X159767723Y-94465112D01*
X159767721Y-94465112D01*
X159663846Y-94454500D01*
X159663844Y-94454500D01*
X157362756Y-94454500D01*
X157362754Y-94454500D01*
X157258879Y-94465112D01*
X157258877Y-94465112D01*
X157090561Y-94520885D01*
X156939650Y-94613968D01*
X156814268Y-94739350D01*
X156721185Y-94890261D01*
X156665412Y-95058577D01*
X156665412Y-95058579D01*
X156654800Y-95162454D01*
X156654800Y-97463545D01*
X138574800Y-97463545D01*
X138574800Y-96845944D01*
X138595084Y-96770244D01*
X138619144Y-96738888D01*
X140298188Y-95059844D01*
X140366059Y-95020659D01*
X140405244Y-95015500D01*
X140447784Y-95015500D01*
X140447787Y-95015500D01*
X140634588Y-94975794D01*
X140809052Y-94898118D01*
X140963553Y-94785866D01*
X141091340Y-94643944D01*
X141186827Y-94478556D01*
X141245842Y-94296928D01*
X141265804Y-94107000D01*
X141245842Y-93917072D01*
X141186827Y-93735444D01*
X141096764Y-93579450D01*
X141076480Y-93503750D01*
X141083728Y-93476700D01*
X144287689Y-93476700D01*
X144306089Y-93663521D01*
X144360581Y-93843159D01*
X144360583Y-93843162D01*
X144449076Y-94008720D01*
X144568167Y-94153833D01*
X144713280Y-94272924D01*
X144851948Y-94347044D01*
X144878840Y-94361418D01*
X144943661Y-94381081D01*
X145058479Y-94415911D01*
X145245300Y-94434311D01*
X145432121Y-94415911D01*
X145611762Y-94361417D01*
X145688168Y-94320576D01*
X145759537Y-94302700D01*
X149539447Y-94302700D01*
X149615147Y-94322984D01*
X149646503Y-94347044D01*
X150139608Y-94840149D01*
X150177432Y-94903254D01*
X150202582Y-94986159D01*
X150202583Y-94986162D01*
X150291076Y-95151720D01*
X150410167Y-95296833D01*
X150555280Y-95415924D01*
X150668647Y-95476520D01*
X150720840Y-95504418D01*
X150774034Y-95520554D01*
X150900479Y-95558911D01*
X151087300Y-95577311D01*
X151274121Y-95558911D01*
X151438933Y-95508915D01*
X151453759Y-95504418D01*
X151453759Y-95504417D01*
X151453762Y-95504417D01*
X151619320Y-95415924D01*
X151764433Y-95296833D01*
X151883524Y-95151720D01*
X151972017Y-94986162D01*
X152026511Y-94806521D01*
X152044911Y-94619700D01*
X152026511Y-94432879D01*
X151977989Y-94272924D01*
X151972018Y-94253240D01*
X151951073Y-94214055D01*
X151883524Y-94087680D01*
X151764433Y-93942567D01*
X151619320Y-93823476D01*
X151453762Y-93734983D01*
X151453761Y-93734982D01*
X151453760Y-93734982D01*
X151370854Y-93709832D01*
X151307749Y-93672008D01*
X150556467Y-92920726D01*
X150548133Y-92911685D01*
X150515690Y-92873491D01*
X150454688Y-92827118D01*
X150451458Y-92824593D01*
X150391779Y-92776621D01*
X150384865Y-92772202D01*
X150384961Y-92772050D01*
X150379786Y-92768840D01*
X150379694Y-92768995D01*
X150372656Y-92764760D01*
X150303105Y-92732582D01*
X150299410Y-92730811D01*
X150230822Y-92696794D01*
X150223118Y-92693964D01*
X150223179Y-92693796D01*
X150217430Y-92691772D01*
X150217373Y-92691942D01*
X150209593Y-92689320D01*
X150143679Y-92674812D01*
X150134797Y-92672856D01*
X150130825Y-92671926D01*
X150056468Y-92653435D01*
X150056466Y-92653434D01*
X150056463Y-92653434D01*
X150048339Y-92652327D01*
X150048362Y-92652150D01*
X150042309Y-92651409D01*
X150042290Y-92651587D01*
X150034133Y-92650700D01*
X150034132Y-92650700D01*
X149957533Y-92650700D01*
X149953433Y-92650644D01*
X149952283Y-92650612D01*
X149876873Y-92648569D01*
X149868693Y-92649236D01*
X149868678Y-92649055D01*
X149851374Y-92650700D01*
X145759537Y-92650700D01*
X145688168Y-92632823D01*
X145650449Y-92612662D01*
X145611759Y-92591981D01*
X145432121Y-92537489D01*
X145245300Y-92519089D01*
X145058478Y-92537489D01*
X144878840Y-92591981D01*
X144713279Y-92680476D01*
X144568167Y-92799567D01*
X144449076Y-92944679D01*
X144360581Y-93110240D01*
X144306089Y-93289878D01*
X144287689Y-93476700D01*
X141083728Y-93476700D01*
X141096764Y-93428050D01*
X141133713Y-93364052D01*
X141186827Y-93272056D01*
X141245842Y-93090428D01*
X141265804Y-92900500D01*
X141245842Y-92710572D01*
X141239733Y-92691772D01*
X141220580Y-92632823D01*
X141186827Y-92528944D01*
X141096764Y-92372950D01*
X141076480Y-92297250D01*
X141096764Y-92221550D01*
X141140271Y-92146193D01*
X141186827Y-92065556D01*
X141245842Y-91883928D01*
X141265804Y-91694000D01*
X141245842Y-91504072D01*
X141186827Y-91322444D01*
X141181377Y-91313004D01*
X156650053Y-91313004D01*
X156669016Y-91578161D01*
X156725526Y-91837931D01*
X156725529Y-91837942D01*
X156818426Y-92087011D01*
X156818433Y-92087025D01*
X156945836Y-92320345D01*
X156945838Y-92320349D01*
X157105146Y-92533160D01*
X157105149Y-92533163D01*
X157105152Y-92533167D01*
X157293133Y-92721148D01*
X157293136Y-92721150D01*
X157293139Y-92721153D01*
X157431319Y-92824593D01*
X157505953Y-92880463D01*
X157739279Y-93007869D01*
X157739282Y-93007870D01*
X157739288Y-93007873D01*
X157988357Y-93100770D01*
X157988359Y-93100770D01*
X157988363Y-93100772D01*
X158248132Y-93157282D01*
X158248137Y-93157282D01*
X158248140Y-93157283D01*
X158248137Y-93157283D01*
X158513296Y-93176247D01*
X158513300Y-93176247D01*
X158513304Y-93176247D01*
X158778461Y-93157283D01*
X158778464Y-93157282D01*
X158778468Y-93157282D01*
X159038237Y-93100772D01*
X159121265Y-93069804D01*
X159287311Y-93007873D01*
X159287313Y-93007871D01*
X159287321Y-93007869D01*
X159520647Y-92880463D01*
X159733467Y-92721148D01*
X159921448Y-92533167D01*
X160080763Y-92320347D01*
X160208169Y-92087021D01*
X160301072Y-91837937D01*
X160357582Y-91578168D01*
X160362882Y-91504072D01*
X160376547Y-91313004D01*
X160376547Y-91312995D01*
X160357583Y-91047838D01*
X160326049Y-90902882D01*
X160301072Y-90788063D01*
X160300116Y-90785500D01*
X160208173Y-90538988D01*
X160208166Y-90538974D01*
X160080763Y-90305653D01*
X159979589Y-90170500D01*
X159921453Y-90092839D01*
X159921450Y-90092836D01*
X159921448Y-90092833D01*
X159733467Y-89904852D01*
X159733463Y-89904849D01*
X159733460Y-89904846D01*
X159520649Y-89745538D01*
X159520645Y-89745536D01*
X159287325Y-89618133D01*
X159287311Y-89618126D01*
X159038242Y-89525229D01*
X159038231Y-89525226D01*
X158778459Y-89468716D01*
X158778462Y-89468716D01*
X158513304Y-89449753D01*
X158513296Y-89449753D01*
X158248138Y-89468716D01*
X157988368Y-89525226D01*
X157988357Y-89525229D01*
X157739288Y-89618126D01*
X157739274Y-89618133D01*
X157505954Y-89745536D01*
X157505950Y-89745538D01*
X157293139Y-89904846D01*
X157105146Y-90092839D01*
X156945838Y-90305650D01*
X156945836Y-90305654D01*
X156818433Y-90538974D01*
X156818426Y-90538988D01*
X156725529Y-90788057D01*
X156725526Y-90788068D01*
X156669016Y-91047838D01*
X156650053Y-91312995D01*
X156650053Y-91313004D01*
X141181377Y-91313004D01*
X141154998Y-91267314D01*
X141091342Y-91157058D01*
X141091339Y-91157055D01*
X140963555Y-91015136D01*
X140963554Y-91015135D01*
X140963553Y-91015134D01*
X140897201Y-90966926D01*
X140809053Y-90902882D01*
X140809049Y-90902880D01*
X140634589Y-90825206D01*
X140587887Y-90815279D01*
X140447787Y-90785500D01*
X140447784Y-90785500D01*
X140402416Y-90785500D01*
X140326716Y-90765216D01*
X140295360Y-90741156D01*
X137091075Y-87536871D01*
X133876525Y-84322320D01*
X133865814Y-84308949D01*
X133865369Y-84309318D01*
X133859301Y-84301982D01*
X133809959Y-84255648D01*
X133806544Y-84252339D01*
X133787070Y-84232865D01*
X133787060Y-84232857D01*
X133784815Y-84231115D01*
X133773983Y-84221863D01*
X133742623Y-84192416D01*
X133742617Y-84192411D01*
X133726619Y-84183616D01*
X133706762Y-84170572D01*
X133692346Y-84159389D01*
X133692343Y-84159387D01*
X133692341Y-84159386D01*
X133652839Y-84142292D01*
X133640066Y-84136034D01*
X133602360Y-84115305D01*
X133602357Y-84115304D01*
X133602354Y-84115302D01*
X133584673Y-84110763D01*
X133562201Y-84103069D01*
X133545450Y-84095820D01*
X133545442Y-84095818D01*
X133502962Y-84089090D01*
X133488998Y-84086198D01*
X133447331Y-84075500D01*
X133447330Y-84075500D01*
X133429073Y-84075500D01*
X133405389Y-84073636D01*
X133387357Y-84070780D01*
X133344533Y-84074828D01*
X133330286Y-84075500D01*
X119718509Y-84075500D01*
X119642809Y-84055216D01*
X119617094Y-84034397D01*
X119616152Y-84035445D01*
X119610256Y-84030136D01*
X119455753Y-83917882D01*
X119455749Y-83917880D01*
X119281289Y-83840206D01*
X119234587Y-83830279D01*
X119094487Y-83800500D01*
X118903513Y-83800500D01*
X118791432Y-83824323D01*
X118716710Y-83840206D01*
X118542250Y-83917880D01*
X118542246Y-83917882D01*
X118387744Y-84030136D01*
X118259960Y-84172055D01*
X118259957Y-84172058D01*
X118164473Y-84337443D01*
X118164472Y-84337446D01*
X118105458Y-84519068D01*
X118085496Y-84709000D01*
X118105458Y-84898931D01*
X118164472Y-85080553D01*
X118164473Y-85080556D01*
X118259957Y-85245941D01*
X118259960Y-85245944D01*
X118376423Y-85375290D01*
X118387747Y-85387866D01*
X118433512Y-85421116D01*
X118542246Y-85500117D01*
X118542248Y-85500118D01*
X118716712Y-85577794D01*
X118903513Y-85617500D01*
X118903516Y-85617500D01*
X119094484Y-85617500D01*
X119094487Y-85617500D01*
X119281288Y-85577794D01*
X119455752Y-85500118D01*
X119564490Y-85421114D01*
X119637652Y-85393030D01*
X119715057Y-85405289D01*
X119775963Y-85454608D01*
X119804049Y-85527773D01*
X119804050Y-85559423D01*
X119799996Y-85597997D01*
X119799996Y-85598000D01*
X119803722Y-85633447D01*
X119819958Y-85787931D01*
X119878972Y-85969553D01*
X119878973Y-85969556D01*
X119974457Y-86134941D01*
X119974460Y-86134944D01*
X120050196Y-86219058D01*
X120102247Y-86276866D01*
X120148012Y-86310116D01*
X120256746Y-86389117D01*
X120256748Y-86389118D01*
X120431212Y-86466794D01*
X120618013Y-86506500D01*
X120618016Y-86506500D01*
X120808984Y-86506500D01*
X120808987Y-86506500D01*
X120995788Y-86466794D01*
X121170252Y-86389118D01*
X121278990Y-86310114D01*
X121352152Y-86282030D01*
X121429557Y-86294289D01*
X121490463Y-86343608D01*
X121518549Y-86416773D01*
X121518550Y-86448423D01*
X121514496Y-86486997D01*
X121514496Y-86487000D01*
X121519353Y-86533212D01*
X121534458Y-86676931D01*
X121593472Y-86858553D01*
X121593473Y-86858556D01*
X121688957Y-87023941D01*
X121688960Y-87023944D01*
X121710435Y-87047795D01*
X121746014Y-87117623D01*
X121741912Y-87195886D01*
X121699227Y-87261613D01*
X121629399Y-87297192D01*
X121597922Y-87300500D01*
X112868850Y-87300500D01*
X112740744Y-87314934D01*
X112548584Y-87336586D01*
X112548582Y-87336586D01*
X112548576Y-87336587D01*
X112234375Y-87408301D01*
X112234371Y-87408302D01*
X111930158Y-87514751D01*
X111639784Y-87654588D01*
X111639781Y-87654590D01*
X111366880Y-87826065D01*
X111114913Y-88027002D01*
X111114903Y-88027011D01*
X110887011Y-88254903D01*
X110887002Y-88254913D01*
X110686065Y-88506880D01*
X110514590Y-88779781D01*
X110514588Y-88779784D01*
X110374751Y-89070158D01*
X110268302Y-89374371D01*
X110268301Y-89374375D01*
X110196587Y-89688576D01*
X110196586Y-89688587D01*
X110160500Y-90008849D01*
X110160500Y-105825150D01*
X100461489Y-105825150D01*
X101277831Y-105008808D01*
X101345700Y-104969625D01*
X101417067Y-104967926D01*
X101521992Y-104990750D01*
X101673832Y-105023782D01*
X101673837Y-105023782D01*
X101673840Y-105023783D01*
X101673837Y-105023783D01*
X101938996Y-105042747D01*
X101939000Y-105042747D01*
X101939004Y-105042747D01*
X102204161Y-105023783D01*
X102204164Y-105023782D01*
X102204168Y-105023782D01*
X102463937Y-104967272D01*
X102554974Y-104933317D01*
X102713011Y-104874373D01*
X102713013Y-104874371D01*
X102713021Y-104874369D01*
X102946347Y-104746963D01*
X103159167Y-104587648D01*
X103347148Y-104399667D01*
X103506463Y-104186847D01*
X103633869Y-103953521D01*
X103637480Y-103943841D01*
X103726770Y-103704442D01*
X103726772Y-103704437D01*
X103783282Y-103444668D01*
X103784432Y-103428599D01*
X103802247Y-103179504D01*
X103802247Y-103179495D01*
X103783283Y-102914338D01*
X103774031Y-102871809D01*
X103726772Y-102654563D01*
X103726749Y-102654500D01*
X103633873Y-102405488D01*
X103633866Y-102405474D01*
X103629483Y-102397447D01*
X103506463Y-102172153D01*
X103502779Y-102167232D01*
X103347153Y-101959339D01*
X103347150Y-101959336D01*
X103347148Y-101959333D01*
X103159167Y-101771352D01*
X103159163Y-101771349D01*
X103159160Y-101771346D01*
X102946349Y-101612038D01*
X102946345Y-101612036D01*
X102713025Y-101484633D01*
X102713011Y-101484626D01*
X102463942Y-101391729D01*
X102463931Y-101391726D01*
X102204159Y-101335216D01*
X102204162Y-101335216D01*
X101939004Y-101316253D01*
X101938996Y-101316253D01*
X101673838Y-101335216D01*
X101414068Y-101391726D01*
X101414057Y-101391729D01*
X101164988Y-101484626D01*
X101164974Y-101484633D01*
X100931654Y-101612036D01*
X100931650Y-101612038D01*
X100718839Y-101771346D01*
X100530846Y-101959339D01*
X100371538Y-102172150D01*
X100371536Y-102172154D01*
X100297280Y-102308143D01*
X100243198Y-102364862D01*
X100168002Y-102386941D01*
X100091841Y-102368464D01*
X100035122Y-102314382D01*
X100013043Y-102239186D01*
X100013000Y-102235584D01*
X100013000Y-99879672D01*
X100033284Y-99803972D01*
X100088700Y-99748556D01*
X100164400Y-99728272D01*
X100240100Y-99748556D01*
X100271456Y-99772616D01*
X100370655Y-99871815D01*
X100370659Y-99871818D01*
X100519879Y-99963858D01*
X100519885Y-99963860D01*
X100686301Y-100019005D01*
X100686308Y-100019006D01*
X100789020Y-100029500D01*
X101689000Y-100029500D01*
X101689000Y-98994819D01*
X101846557Y-99029500D01*
X101985084Y-99029500D01*
X102122802Y-99014522D01*
X102189000Y-98992217D01*
X102189000Y-100029500D01*
X103088980Y-100029500D01*
X103191691Y-100019006D01*
X103191698Y-100019005D01*
X103358114Y-99963860D01*
X103358120Y-99963858D01*
X103507340Y-99871818D01*
X103507344Y-99871815D01*
X103631315Y-99747844D01*
X103631318Y-99747840D01*
X103723358Y-99598620D01*
X103723360Y-99598614D01*
X103778505Y-99432198D01*
X103778506Y-99432191D01*
X103789000Y-99329479D01*
X103789000Y-98429500D01*
X102754376Y-98429500D01*
X102762847Y-98408240D01*
X102792758Y-98225789D01*
X102782749Y-98041174D01*
X102751742Y-97929500D01*
X103789000Y-97929500D01*
X103789000Y-97029520D01*
X103778506Y-96926808D01*
X103778505Y-96926801D01*
X103723360Y-96760385D01*
X103723358Y-96760379D01*
X103631318Y-96611159D01*
X103631315Y-96611155D01*
X103507344Y-96487184D01*
X103507340Y-96487181D01*
X103358120Y-96395141D01*
X103358114Y-96395139D01*
X103191698Y-96339994D01*
X103191691Y-96339993D01*
X103088980Y-96329500D01*
X102189000Y-96329500D01*
X102189000Y-97364180D01*
X102031443Y-97329500D01*
X101892916Y-97329500D01*
X101755198Y-97344478D01*
X101689000Y-97366782D01*
X101689000Y-96329500D01*
X100789020Y-96329500D01*
X100686308Y-96339993D01*
X100686301Y-96339994D01*
X100519885Y-96395139D01*
X100519879Y-96395141D01*
X100370659Y-96487181D01*
X100370655Y-96487184D01*
X100271456Y-96586384D01*
X100203585Y-96625569D01*
X100125215Y-96625569D01*
X100057344Y-96586384D01*
X100018159Y-96518513D01*
X100013000Y-96479328D01*
X100013000Y-90776248D01*
X100033284Y-90700548D01*
X100057344Y-90669192D01*
X112767192Y-77959344D01*
X112835063Y-77920159D01*
X112874248Y-77915000D01*
X145262304Y-77915000D01*
X145271444Y-77915275D01*
X145330515Y-77918849D01*
X145388731Y-77908179D01*
X145397720Y-77906810D01*
X145456510Y-77899673D01*
X145463616Y-77896977D01*
X145490012Y-77889620D01*
X145491115Y-77889417D01*
X145497483Y-77888251D01*
X145551463Y-77863955D01*
X145559856Y-77860478D01*
X145615227Y-77839480D01*
X145621480Y-77835162D01*
X145645354Y-77821698D01*
X145652275Y-77818584D01*
X145698887Y-77782065D01*
X145706199Y-77776685D01*
X145754927Y-77743052D01*
X145794178Y-77698744D01*
X145800413Y-77692121D01*
X147000535Y-76492000D01*
X147888901Y-76492000D01*
X147907252Y-76678331D01*
X147961603Y-76857499D01*
X147961604Y-76857502D01*
X148049862Y-77022623D01*
X148085983Y-77066636D01*
X148168643Y-77167357D01*
X148263463Y-77245174D01*
X148313376Y-77286137D01*
X148313382Y-77286140D01*
X148478499Y-77374396D01*
X148505341Y-77382538D01*
X148512879Y-77385076D01*
X148513206Y-77385160D01*
X148513209Y-77385162D01*
X148515514Y-77385759D01*
X148521514Y-77387444D01*
X148657669Y-77428747D01*
X148685272Y-77431465D01*
X148693355Y-77432482D01*
X148699771Y-77433465D01*
X148699773Y-77433466D01*
X148708172Y-77433891D01*
X148715280Y-77434421D01*
X148844000Y-77447099D01*
X148875124Y-77444033D01*
X148884580Y-77443810D01*
X148884571Y-77443616D01*
X148892233Y-77443226D01*
X148892241Y-77443227D01*
X148904292Y-77441380D01*
X148912355Y-77440366D01*
X149030331Y-77428747D01*
X149064435Y-77418401D01*
X149076388Y-77415687D01*
X149082722Y-77414046D01*
X149082734Y-77414045D01*
X149096302Y-77409019D01*
X149104883Y-77406131D01*
X149209501Y-77374396D01*
X149244888Y-77355481D01*
X149263042Y-77347314D01*
X149263445Y-77347116D01*
X149263445Y-77347115D01*
X149263453Y-77347113D01*
X149276732Y-77338835D01*
X149285369Y-77333843D01*
X149374625Y-77286136D01*
X149409157Y-77257795D01*
X149425119Y-77246346D01*
X149427000Y-77245174D01*
X149438591Y-77234155D01*
X149446789Y-77226912D01*
X149519357Y-77167357D01*
X149550649Y-77129227D01*
X149563373Y-77115541D01*
X149566679Y-77112399D01*
X149575657Y-77099498D01*
X149582858Y-77089980D01*
X149638136Y-77022625D01*
X149663650Y-76974891D01*
X149672906Y-76959777D01*
X149676771Y-76954226D01*
X149682673Y-76940470D01*
X149688267Y-76928835D01*
X149712764Y-76883004D01*
X149726394Y-76857506D01*
X149726396Y-76857501D01*
X149743542Y-76800975D01*
X149749283Y-76785250D01*
X149752769Y-76777128D01*
X149755551Y-76763586D01*
X149758972Y-76750114D01*
X149780744Y-76678340D01*
X149780747Y-76678331D01*
X149787034Y-76614488D01*
X149789402Y-76598872D01*
X149791563Y-76588358D01*
X149792099Y-76567154D01*
X149792777Y-76556186D01*
X149799099Y-76492000D01*
X149792777Y-76427818D01*
X149792099Y-76416841D01*
X149791563Y-76395642D01*
X149789399Y-76385116D01*
X149787035Y-76369516D01*
X149780747Y-76305669D01*
X149758971Y-76233886D01*
X149755552Y-76220416D01*
X149752769Y-76206872D01*
X149749283Y-76198748D01*
X149743536Y-76183001D01*
X149726396Y-76126500D01*
X149726396Y-76126499D01*
X149688262Y-76055156D01*
X149682670Y-76043521D01*
X149676771Y-76029775D01*
X149676771Y-76029774D01*
X149672898Y-76024209D01*
X149663645Y-76009101D01*
X149638136Y-75961375D01*
X149582873Y-75894037D01*
X149575644Y-75884481D01*
X149566678Y-75871599D01*
X149563367Y-75868452D01*
X149550646Y-75854769D01*
X149519357Y-75816643D01*
X149446815Y-75757109D01*
X149438573Y-75749827D01*
X149427000Y-75738826D01*
X149426997Y-75738823D01*
X149425108Y-75737646D01*
X149409150Y-75726198D01*
X149374621Y-75697861D01*
X149285395Y-75650168D01*
X149276686Y-75645134D01*
X149263453Y-75636886D01*
X149263061Y-75636694D01*
X149244881Y-75628514D01*
X149209502Y-75609604D01*
X149104919Y-75577879D01*
X149096292Y-75574975D01*
X149082735Y-75569954D01*
X149076440Y-75568324D01*
X149064443Y-75565600D01*
X149039433Y-75558014D01*
X149030331Y-75555253D01*
X149030330Y-75555252D01*
X148912368Y-75543634D01*
X148904292Y-75542618D01*
X148892245Y-75540773D01*
X148884579Y-75540384D01*
X148884588Y-75540193D01*
X148875128Y-75539966D01*
X148852097Y-75537698D01*
X148844000Y-75536901D01*
X148843998Y-75536901D01*
X148843997Y-75536901D01*
X148715318Y-75549574D01*
X148708160Y-75550108D01*
X148699772Y-75550534D01*
X148693333Y-75551520D01*
X148685261Y-75552535D01*
X148657668Y-75555253D01*
X148657665Y-75555253D01*
X148521510Y-75596555D01*
X148515542Y-75598233D01*
X148512892Y-75598919D01*
X148505326Y-75601465D01*
X148478500Y-75609603D01*
X148478496Y-75609605D01*
X148313376Y-75697862D01*
X148168643Y-75816643D01*
X148049862Y-75961376D01*
X147961604Y-76126497D01*
X147961603Y-76126500D01*
X147907252Y-76305668D01*
X147888901Y-76492000D01*
X147000535Y-76492000D01*
X148327192Y-75165344D01*
X148395063Y-75126159D01*
X148434248Y-75121000D01*
X151406010Y-75121000D01*
X151481710Y-75141284D01*
X151532755Y-75189590D01*
X151553992Y-75222096D01*
X151578276Y-75259266D01*
X151578280Y-75259270D01*
X151730758Y-75424904D01*
X151730759Y-75424905D01*
X151908425Y-75563190D01*
X152106422Y-75670340D01*
X152106425Y-75670342D01*
X152184174Y-75697033D01*
X152319365Y-75743444D01*
X152429679Y-75761852D01*
X152541430Y-75780500D01*
X152541431Y-75780500D01*
X152766570Y-75780500D01*
X152822085Y-75771236D01*
X152988635Y-75743444D01*
X153201574Y-75670342D01*
X153399576Y-75563189D01*
X153577240Y-75424906D01*
X153729722Y-75259268D01*
X153852860Y-75070791D01*
X153943296Y-74864616D01*
X153998564Y-74646368D01*
X154017156Y-74422000D01*
X153998564Y-74197632D01*
X153943296Y-73979384D01*
X153943295Y-73979381D01*
X153943295Y-73979380D01*
X153860586Y-73790823D01*
X153852860Y-73773209D01*
X153729722Y-73584732D01*
X153577240Y-73419094D01*
X153420977Y-73297468D01*
X153399574Y-73280809D01*
X153201577Y-73173659D01*
X153201574Y-73173657D01*
X152988641Y-73100558D01*
X152988632Y-73100555D01*
X152766570Y-73063500D01*
X152766569Y-73063500D01*
X152541431Y-73063500D01*
X152541430Y-73063500D01*
X152319367Y-73100555D01*
X152319358Y-73100558D01*
X152106425Y-73173657D01*
X152106422Y-73173659D01*
X151908425Y-73280809D01*
X151730759Y-73419094D01*
X151730758Y-73419095D01*
X151578280Y-73584729D01*
X151578276Y-73584733D01*
X151546888Y-73632777D01*
X151532755Y-73654409D01*
X151474373Y-73706687D01*
X151406010Y-73723000D01*
X148107712Y-73723000D01*
X148098571Y-73722724D01*
X148039486Y-73719150D01*
X148039485Y-73719150D01*
X147981271Y-73729817D01*
X147972239Y-73731191D01*
X147913491Y-73738326D01*
X147913487Y-73738327D01*
X147906375Y-73741024D01*
X147880005Y-73748375D01*
X147872520Y-73749747D01*
X147872513Y-73749749D01*
X147818543Y-73774038D01*
X147810100Y-73777535D01*
X147754774Y-73798518D01*
X147748513Y-73802840D01*
X147724657Y-73816294D01*
X147717729Y-73819412D01*
X147671144Y-73855908D01*
X147663783Y-73861324D01*
X147615075Y-73894946D01*
X147575838Y-73939234D01*
X147569571Y-73945891D01*
X146601024Y-74914439D01*
X146533153Y-74953624D01*
X146454783Y-74953624D01*
X146386912Y-74914439D01*
X146347727Y-74846568D01*
X146347201Y-74770216D01*
X146378564Y-74646368D01*
X146397156Y-74422000D01*
X146378564Y-74197632D01*
X146323296Y-73979384D01*
X146323295Y-73979381D01*
X146323295Y-73979380D01*
X146240586Y-73790823D01*
X146232860Y-73773209D01*
X146109722Y-73584732D01*
X145957240Y-73419094D01*
X145800977Y-73297468D01*
X145779574Y-73280809D01*
X145581577Y-73173659D01*
X145581574Y-73173657D01*
X145368641Y-73100558D01*
X145368632Y-73100555D01*
X145146570Y-73063500D01*
X145146569Y-73063500D01*
X144921431Y-73063500D01*
X144921430Y-73063500D01*
X144699367Y-73100555D01*
X144699358Y-73100558D01*
X144486425Y-73173657D01*
X144486422Y-73173659D01*
X144288425Y-73280809D01*
X144110759Y-73419094D01*
X144110758Y-73419095D01*
X143958280Y-73584729D01*
X143958276Y-73584734D01*
X143835139Y-73773210D01*
X143835136Y-73773216D01*
X143744704Y-73979380D01*
X143744704Y-73979382D01*
X143689436Y-74197630D01*
X143689435Y-74197635D01*
X143670844Y-74422000D01*
X143689435Y-74646364D01*
X143689437Y-74646372D01*
X143720583Y-74769369D01*
X143719503Y-74847731D01*
X143680872Y-74913590D01*
X142883808Y-75710656D01*
X142815937Y-75749841D01*
X142776752Y-75755000D01*
X118385048Y-75755000D01*
X118309348Y-75734716D01*
X118253932Y-75679300D01*
X118233648Y-75603600D01*
X118253932Y-75527900D01*
X118277992Y-75496544D01*
X121782537Y-71991999D01*
X156538532Y-71991999D01*
X156545897Y-72076182D01*
X156546473Y-72089377D01*
X156546473Y-72105518D01*
X156549276Y-72121421D01*
X156550998Y-72134503D01*
X156558364Y-72218690D01*
X156580236Y-72300319D01*
X156583092Y-72313200D01*
X156585898Y-72329108D01*
X156591419Y-72344278D01*
X156595388Y-72356867D01*
X156617262Y-72438499D01*
X156652975Y-72515087D01*
X156658026Y-72527279D01*
X156663549Y-72542450D01*
X156663553Y-72542459D01*
X156671619Y-72556431D01*
X156677714Y-72568140D01*
X156713429Y-72644730D01*
X156713431Y-72644733D01*
X156713432Y-72644734D01*
X156761894Y-72713945D01*
X156761898Y-72713951D01*
X156768995Y-72725092D01*
X156777066Y-72739072D01*
X156777068Y-72739075D01*
X156787439Y-72751434D01*
X156795483Y-72761917D01*
X156843946Y-72831131D01*
X156843952Y-72831138D01*
X156903708Y-72890894D01*
X156912631Y-72900632D01*
X156923003Y-72912993D01*
X156923005Y-72912995D01*
X156935366Y-72923367D01*
X156945105Y-72932291D01*
X157004861Y-72992047D01*
X157074088Y-73040519D01*
X157084544Y-73048542D01*
X157087801Y-73051275D01*
X157096927Y-73058933D01*
X157104234Y-73063151D01*
X157110904Y-73067002D01*
X157122034Y-73074092D01*
X157159828Y-73100555D01*
X157191258Y-73122563D01*
X157191260Y-73122564D01*
X157191266Y-73122568D01*
X157267868Y-73158288D01*
X157279563Y-73164376D01*
X157293547Y-73172450D01*
X157308726Y-73177974D01*
X157320905Y-73183020D01*
X157368651Y-73205284D01*
X157385477Y-73213131D01*
X157397504Y-73218739D01*
X157479134Y-73240611D01*
X157491714Y-73244577D01*
X157506893Y-73250102D01*
X157522789Y-73252905D01*
X157535666Y-73255759D01*
X157617308Y-73277635D01*
X157701497Y-73285000D01*
X157714580Y-73286723D01*
X157723967Y-73288378D01*
X157730480Y-73289527D01*
X157746623Y-73289527D01*
X157759817Y-73290102D01*
X157844000Y-73297468D01*
X157928182Y-73290102D01*
X157941377Y-73289527D01*
X157957520Y-73289527D01*
X157962139Y-73288712D01*
X157973422Y-73286722D01*
X157986502Y-73285000D01*
X158070692Y-73277635D01*
X158152350Y-73255754D01*
X158165200Y-73252906D01*
X158181107Y-73250102D01*
X158196296Y-73244573D01*
X158208830Y-73240621D01*
X158290496Y-73218739D01*
X158367113Y-73183011D01*
X158379278Y-73177973D01*
X158394453Y-73172450D01*
X158408450Y-73164368D01*
X158420122Y-73158292D01*
X158496734Y-73122568D01*
X158565966Y-73074091D01*
X158577072Y-73067015D01*
X158591074Y-73058932D01*
X158603463Y-73048536D01*
X158613886Y-73040537D01*
X158683139Y-72992047D01*
X158742916Y-72932269D01*
X158752622Y-72923376D01*
X158764995Y-72912995D01*
X158775376Y-72900622D01*
X158784269Y-72890916D01*
X158844047Y-72831139D01*
X158892537Y-72761886D01*
X158900536Y-72751463D01*
X158910932Y-72739074D01*
X158919015Y-72725072D01*
X158926091Y-72713966D01*
X158974568Y-72644734D01*
X159010292Y-72568122D01*
X159016368Y-72556450D01*
X159024450Y-72542453D01*
X159029973Y-72527278D01*
X159035011Y-72515113D01*
X159070739Y-72438496D01*
X159092621Y-72356830D01*
X159096573Y-72344296D01*
X159102102Y-72329107D01*
X159104906Y-72313200D01*
X159107754Y-72300350D01*
X159129635Y-72218692D01*
X159137000Y-72134499D01*
X159138724Y-72121415D01*
X159141526Y-72105522D01*
X159141527Y-72105519D01*
X159142079Y-72080160D01*
X159142616Y-72070316D01*
X159149468Y-71992000D01*
X159142616Y-71913683D01*
X159142079Y-71903839D01*
X159141527Y-71878481D01*
X159138723Y-71862578D01*
X159137001Y-71849503D01*
X159129635Y-71765308D01*
X159107759Y-71683666D01*
X159104904Y-71670785D01*
X159102102Y-71654893D01*
X159096577Y-71639714D01*
X159092610Y-71627129D01*
X159078189Y-71573308D01*
X159070739Y-71545504D01*
X159035020Y-71468904D01*
X159029974Y-71456726D01*
X159024450Y-71441547D01*
X159016376Y-71427563D01*
X159010288Y-71415868D01*
X158974568Y-71339266D01*
X158974566Y-71339263D01*
X158974563Y-71339258D01*
X158953381Y-71309008D01*
X158926092Y-71270034D01*
X158919000Y-71258901D01*
X158910933Y-71244927D01*
X158908904Y-71242509D01*
X158900542Y-71232544D01*
X158892516Y-71222083D01*
X158844047Y-71152861D01*
X158784291Y-71093105D01*
X158775367Y-71083366D01*
X158764995Y-71071005D01*
X158764993Y-71071003D01*
X158752632Y-71060631D01*
X158742894Y-71051708D01*
X158683138Y-70991952D01*
X158683131Y-70991946D01*
X158613917Y-70943483D01*
X158603434Y-70935439D01*
X158591075Y-70925068D01*
X158591072Y-70925066D01*
X158577092Y-70916995D01*
X158565951Y-70909898D01*
X158496734Y-70861432D01*
X158496733Y-70861431D01*
X158496730Y-70861429D01*
X158420140Y-70825714D01*
X158408431Y-70819619D01*
X158394459Y-70811553D01*
X158394455Y-70811551D01*
X158394453Y-70811550D01*
X158393266Y-70811118D01*
X158379279Y-70806026D01*
X158367087Y-70800975D01*
X158290499Y-70765262D01*
X158290496Y-70765261D01*
X158272396Y-70760411D01*
X158208867Y-70743388D01*
X158196278Y-70739419D01*
X158181108Y-70733898D01*
X158165200Y-70731092D01*
X158152319Y-70728236D01*
X158070690Y-70706364D01*
X157986503Y-70698998D01*
X157973421Y-70697276D01*
X157959942Y-70694900D01*
X157957519Y-70694473D01*
X157957518Y-70694473D01*
X157941377Y-70694473D01*
X157928182Y-70693897D01*
X157844000Y-70686532D01*
X157759818Y-70693897D01*
X157746623Y-70694473D01*
X157730479Y-70694473D01*
X157714578Y-70697276D01*
X157701497Y-70698998D01*
X157617311Y-70706364D01*
X157617304Y-70706365D01*
X157535668Y-70728238D01*
X157522789Y-70731094D01*
X157506892Y-70733898D01*
X157491724Y-70739418D01*
X157479139Y-70743385D01*
X157397506Y-70765259D01*
X157320904Y-70800979D01*
X157308710Y-70806030D01*
X157293548Y-70811549D01*
X157293547Y-70811549D01*
X157279556Y-70819626D01*
X157267854Y-70825717D01*
X157191268Y-70861430D01*
X157122049Y-70909898D01*
X157110913Y-70916992D01*
X157096931Y-70925064D01*
X157096926Y-70925068D01*
X157084555Y-70935448D01*
X157074083Y-70943483D01*
X157004858Y-70991955D01*
X156945098Y-71051714D01*
X156935367Y-71060631D01*
X156923006Y-71071003D01*
X156923003Y-71071006D01*
X156912631Y-71083367D01*
X156903714Y-71093098D01*
X156843955Y-71152858D01*
X156795483Y-71222083D01*
X156787448Y-71232555D01*
X156777068Y-71244926D01*
X156777064Y-71244931D01*
X156768992Y-71258913D01*
X156761898Y-71270049D01*
X156713430Y-71339268D01*
X156677717Y-71415854D01*
X156671626Y-71427556D01*
X156663549Y-71441547D01*
X156663549Y-71441548D01*
X156658030Y-71456710D01*
X156652979Y-71468904D01*
X156617259Y-71545506D01*
X156595385Y-71627139D01*
X156591418Y-71639724D01*
X156585898Y-71654892D01*
X156583094Y-71670789D01*
X156580238Y-71683668D01*
X156558365Y-71765304D01*
X156558364Y-71765311D01*
X156550998Y-71849497D01*
X156549276Y-71862578D01*
X156546473Y-71878479D01*
X156546473Y-71894622D01*
X156545897Y-71907817D01*
X156538532Y-71991999D01*
X121782537Y-71991999D01*
X130782533Y-62992002D01*
X136888518Y-62992002D01*
X136896098Y-63097982D01*
X136896484Y-63108783D01*
X136896484Y-63131293D01*
X136899687Y-63153572D01*
X136900841Y-63164311D01*
X136908422Y-63270292D01*
X136908423Y-63270299D01*
X136931008Y-63374124D01*
X136932927Y-63384758D01*
X136936128Y-63407025D01*
X136942468Y-63428618D01*
X136945139Y-63439082D01*
X136955809Y-63488129D01*
X136967729Y-63542923D01*
X136967730Y-63542926D01*
X136967731Y-63542929D01*
X136967732Y-63542933D01*
X137004861Y-63642478D01*
X137008274Y-63652731D01*
X137014613Y-63674320D01*
X137014614Y-63674323D01*
X137023958Y-63694785D01*
X137028091Y-63704763D01*
X137065232Y-63804339D01*
X137116158Y-63897603D01*
X137120995Y-63907266D01*
X137130341Y-63927731D01*
X137142512Y-63946671D01*
X137148022Y-63955958D01*
X137181487Y-64017243D01*
X137198943Y-64049212D01*
X137198946Y-64049216D01*
X137198947Y-64049218D01*
X137262622Y-64134277D01*
X137268786Y-64143155D01*
X137280948Y-64162079D01*
X137280949Y-64162082D01*
X137295683Y-64179086D01*
X137302460Y-64187496D01*
X137366145Y-64272568D01*
X137441287Y-64347710D01*
X137448641Y-64355608D01*
X137463381Y-64372619D01*
X137480376Y-64387345D01*
X137488287Y-64394710D01*
X137563432Y-64469855D01*
X137563435Y-64469857D01*
X137563438Y-64469860D01*
X137648495Y-64533534D01*
X137656904Y-64540309D01*
X137666073Y-64548253D01*
X137673916Y-64555049D01*
X137673920Y-64555051D01*
X137673923Y-64555054D01*
X137692847Y-64567216D01*
X137701723Y-64573378D01*
X137786781Y-64637052D01*
X137786789Y-64637057D01*
X137880041Y-64687977D01*
X137889335Y-64693491D01*
X137899819Y-64700228D01*
X137908271Y-64705660D01*
X137928492Y-64714894D01*
X137928736Y-64715006D01*
X137938403Y-64719845D01*
X138031663Y-64770769D01*
X138131242Y-64807910D01*
X138141209Y-64812038D01*
X138161675Y-64821385D01*
X138183276Y-64827727D01*
X138193487Y-64831126D01*
X138293077Y-64868271D01*
X138293080Y-64868272D01*
X138369543Y-64884905D01*
X138396911Y-64890858D01*
X138407362Y-64893526D01*
X138428968Y-64899870D01*
X138428972Y-64899870D01*
X138428974Y-64899871D01*
X138441975Y-64901740D01*
X138451241Y-64903072D01*
X138461858Y-64904987D01*
X138565706Y-64927578D01*
X138671709Y-64935159D01*
X138682418Y-64936310D01*
X138704711Y-64939516D01*
X138727217Y-64939516D01*
X138738018Y-64939902D01*
X138843997Y-64947482D01*
X138844000Y-64947482D01*
X138844003Y-64947482D01*
X138949982Y-64939902D01*
X138960783Y-64939516D01*
X138983283Y-64939516D01*
X138983289Y-64939516D01*
X139005578Y-64936311D01*
X139016284Y-64935159D01*
X139122294Y-64927578D01*
X139226172Y-64904980D01*
X139236728Y-64903076D01*
X139259032Y-64899870D01*
X139280629Y-64893528D01*
X139291089Y-64890858D01*
X139368685Y-64873978D01*
X139394919Y-64868272D01*
X139394926Y-64868270D01*
X139410310Y-64862532D01*
X139494520Y-64831123D01*
X139504723Y-64827727D01*
X139526325Y-64821385D01*
X139546809Y-64812030D01*
X139556748Y-64807913D01*
X139656337Y-64770769D01*
X139749629Y-64719827D01*
X139759229Y-64715021D01*
X139779729Y-64705660D01*
X139798685Y-64693477D01*
X139807919Y-64687998D01*
X139901213Y-64637056D01*
X139986298Y-64573362D01*
X139995155Y-64567214D01*
X140014080Y-64555052D01*
X140014081Y-64555050D01*
X140014084Y-64555049D01*
X140031103Y-64540301D01*
X140039487Y-64533545D01*
X140124568Y-64469855D01*
X140199720Y-64394702D01*
X140207608Y-64387358D01*
X140224619Y-64372619D01*
X140239358Y-64355608D01*
X140246702Y-64347720D01*
X140321855Y-64272568D01*
X140385545Y-64187487D01*
X140392301Y-64179103D01*
X140407049Y-64162084D01*
X140407053Y-64162079D01*
X140419214Y-64143155D01*
X140425362Y-64134298D01*
X140489056Y-64049213D01*
X140539998Y-63955919D01*
X140545477Y-63946685D01*
X140557660Y-63927729D01*
X140567021Y-63907229D01*
X140571827Y-63897629D01*
X140622769Y-63804337D01*
X140659913Y-63704748D01*
X140664030Y-63694809D01*
X140673385Y-63674325D01*
X140679727Y-63652723D01*
X140683123Y-63642520D01*
X140720271Y-63542923D01*
X140742858Y-63439089D01*
X140745530Y-63428623D01*
X140751870Y-63407032D01*
X140755076Y-63384728D01*
X140756980Y-63374172D01*
X140779578Y-63270294D01*
X140787159Y-63164284D01*
X140788312Y-63153572D01*
X140791516Y-63131289D01*
X140792107Y-63098131D01*
X140792466Y-63090092D01*
X140799482Y-62992000D01*
X140792466Y-62893910D01*
X140792107Y-62885864D01*
X140791516Y-62852711D01*
X140788313Y-62830433D01*
X140787158Y-62819689D01*
X140781539Y-62741131D01*
X140779578Y-62713706D01*
X140756987Y-62609858D01*
X140755072Y-62599239D01*
X140751871Y-62576974D01*
X140751870Y-62576970D01*
X140751870Y-62576968D01*
X140745526Y-62555362D01*
X140742858Y-62544908D01*
X140720272Y-62441080D01*
X140720269Y-62441072D01*
X140683126Y-62341487D01*
X140679727Y-62331276D01*
X140673385Y-62309675D01*
X140664038Y-62289208D01*
X140659910Y-62279242D01*
X140622769Y-62179663D01*
X140571840Y-62086394D01*
X140567006Y-62076736D01*
X140566894Y-62076492D01*
X140557660Y-62056271D01*
X140549652Y-62043810D01*
X140545491Y-62037335D01*
X140539977Y-62028041D01*
X140489057Y-61934789D01*
X140489052Y-61934781D01*
X140425378Y-61849723D01*
X140419216Y-61840847D01*
X140407054Y-61821923D01*
X140407051Y-61821919D01*
X140407049Y-61821916D01*
X140400253Y-61814073D01*
X140392309Y-61804904D01*
X140385534Y-61796495D01*
X140321860Y-61711438D01*
X140321857Y-61711435D01*
X140321855Y-61711432D01*
X140246710Y-61636287D01*
X140239345Y-61628376D01*
X140224619Y-61611381D01*
X140207608Y-61596641D01*
X140199710Y-61589287D01*
X140124568Y-61514145D01*
X140039496Y-61450460D01*
X140031086Y-61443683D01*
X140014082Y-61428949D01*
X140014079Y-61428948D01*
X139995155Y-61416786D01*
X139986277Y-61410622D01*
X139901218Y-61346947D01*
X139901216Y-61346946D01*
X139901214Y-61346945D01*
X139901213Y-61346944D01*
X139869243Y-61329487D01*
X139807958Y-61296022D01*
X139798671Y-61290512D01*
X139779731Y-61278341D01*
X139759266Y-61268995D01*
X139749603Y-61264158D01*
X139656339Y-61213232D01*
X139656338Y-61213231D01*
X139656337Y-61213231D01*
X139635558Y-61205481D01*
X139556763Y-61176091D01*
X139546785Y-61171958D01*
X139526323Y-61162614D01*
X139526320Y-61162613D01*
X139504731Y-61156274D01*
X139494478Y-61152861D01*
X139394933Y-61115732D01*
X139394929Y-61115731D01*
X139394927Y-61115730D01*
X139394923Y-61115729D01*
X139343211Y-61104479D01*
X139291082Y-61093139D01*
X139280618Y-61090468D01*
X139271053Y-61087659D01*
X139259032Y-61084130D01*
X139259029Y-61084129D01*
X139259024Y-61084128D01*
X139259026Y-61084128D01*
X139236758Y-61080927D01*
X139226124Y-61079008D01*
X139122299Y-61056423D01*
X139122297Y-61056422D01*
X139122294Y-61056422D01*
X139108275Y-61055419D01*
X139016311Y-61048841D01*
X139005572Y-61047687D01*
X138983293Y-61044484D01*
X138983289Y-61044484D01*
X138960783Y-61044484D01*
X138949982Y-61044098D01*
X138844003Y-61036518D01*
X138843997Y-61036518D01*
X138738018Y-61044098D01*
X138727217Y-61044484D01*
X138704706Y-61044484D01*
X138682422Y-61047687D01*
X138671691Y-61048840D01*
X138565706Y-61056422D01*
X138565700Y-61056423D01*
X138461879Y-61079007D01*
X138451248Y-61080925D01*
X138428974Y-61084127D01*
X138428973Y-61084128D01*
X138407371Y-61090470D01*
X138396911Y-61093139D01*
X138293081Y-61115728D01*
X138293072Y-61115730D01*
X138193496Y-61152869D01*
X138183250Y-61156279D01*
X138161672Y-61162615D01*
X138141208Y-61171960D01*
X138131236Y-61176090D01*
X138031667Y-61213229D01*
X138031664Y-61213230D01*
X138031663Y-61213231D01*
X138021699Y-61218672D01*
X137938394Y-61264159D01*
X137928734Y-61268994D01*
X137908268Y-61278340D01*
X137908260Y-61278345D01*
X137889341Y-61290503D01*
X137880055Y-61296013D01*
X137786798Y-61346937D01*
X137786779Y-61346949D01*
X137701723Y-61410620D01*
X137692855Y-61416778D01*
X137673919Y-61428948D01*
X137673909Y-61428955D01*
X137656912Y-61443683D01*
X137648506Y-61450457D01*
X137563432Y-61514144D01*
X137488290Y-61589285D01*
X137480388Y-61596643D01*
X137463381Y-61611381D01*
X137448643Y-61628388D01*
X137441285Y-61636290D01*
X137366144Y-61711432D01*
X137302457Y-61796506D01*
X137295683Y-61804912D01*
X137280955Y-61821909D01*
X137280948Y-61821919D01*
X137268778Y-61840855D01*
X137262620Y-61849723D01*
X137198949Y-61934779D01*
X137198937Y-61934798D01*
X137148013Y-62028055D01*
X137142503Y-62037341D01*
X137130345Y-62056260D01*
X137130340Y-62056268D01*
X137120994Y-62076734D01*
X137116159Y-62086394D01*
X137065229Y-62179667D01*
X137028090Y-62279236D01*
X137023960Y-62289208D01*
X137014615Y-62309672D01*
X137008279Y-62331250D01*
X137004869Y-62341496D01*
X136967730Y-62441072D01*
X136967728Y-62441081D01*
X136945139Y-62544911D01*
X136942470Y-62555371D01*
X136936128Y-62576973D01*
X136936127Y-62576974D01*
X136932925Y-62599248D01*
X136931007Y-62609879D01*
X136908423Y-62713700D01*
X136908422Y-62713706D01*
X136900840Y-62819691D01*
X136899687Y-62830422D01*
X136896484Y-62852706D01*
X136896484Y-62875215D01*
X136896098Y-62886016D01*
X136888518Y-62991997D01*
X136888518Y-62992002D01*
X130782533Y-62992002D01*
X136262191Y-57512344D01*
X136330062Y-57473159D01*
X136369247Y-57468000D01*
X147421304Y-57468000D01*
X147430444Y-57468275D01*
X147489515Y-57471849D01*
X147547731Y-57461179D01*
X147556720Y-57459810D01*
X147615510Y-57452673D01*
X147622616Y-57449977D01*
X147649012Y-57442620D01*
X147650115Y-57442417D01*
X147656483Y-57441251D01*
X147710463Y-57416955D01*
X147718856Y-57413478D01*
X147774227Y-57392480D01*
X147780480Y-57388162D01*
X147804354Y-57374698D01*
X147811275Y-57371584D01*
X147857887Y-57335065D01*
X147865199Y-57329685D01*
X147913927Y-57296052D01*
X147953178Y-57251744D01*
X147959413Y-57245121D01*
X152265740Y-52938794D01*
X152333609Y-52899611D01*
X152397712Y-52896517D01*
X152541431Y-52920500D01*
X152766570Y-52920500D01*
X152822085Y-52911236D01*
X152988635Y-52883444D01*
X153201574Y-52810342D01*
X153399576Y-52703189D01*
X153577240Y-52564906D01*
X153729722Y-52399268D01*
X153852860Y-52210791D01*
X153943296Y-52004616D01*
X153998564Y-51786368D01*
X154017156Y-51562000D01*
X153998564Y-51337632D01*
X153943296Y-51119384D01*
X153943295Y-51119381D01*
X153943295Y-51119380D01*
X153860586Y-50930823D01*
X153852860Y-50913209D01*
X153729722Y-50724732D01*
X153577240Y-50559094D01*
X153467049Y-50473328D01*
X153399574Y-50420809D01*
X153201577Y-50313659D01*
X153201574Y-50313657D01*
X152988641Y-50240558D01*
X152988632Y-50240555D01*
X152766570Y-50203500D01*
X152766569Y-50203500D01*
X152541431Y-50203500D01*
X152541430Y-50203500D01*
X152319367Y-50240555D01*
X152319358Y-50240558D01*
X152106425Y-50313657D01*
X152106422Y-50313659D01*
X151908425Y-50420809D01*
X151730759Y-50559094D01*
X151730758Y-50559095D01*
X151578280Y-50724729D01*
X151578276Y-50724734D01*
X151455139Y-50913210D01*
X151455136Y-50913216D01*
X151364704Y-51119380D01*
X151364704Y-51119382D01*
X151309436Y-51337630D01*
X151309435Y-51337635D01*
X151290844Y-51562000D01*
X151309436Y-51786369D01*
X151314921Y-51808029D01*
X151313841Y-51886392D01*
X151275210Y-51952252D01*
X147201808Y-56025656D01*
X147133937Y-56064841D01*
X147094752Y-56070000D01*
X136927047Y-56070000D01*
X136851347Y-56049716D01*
X136795931Y-55994300D01*
X136775647Y-55918600D01*
X136795931Y-55842900D01*
X136819991Y-55811544D01*
X140326191Y-52305344D01*
X140394062Y-52266159D01*
X140433247Y-52261000D01*
X143786010Y-52261000D01*
X143861710Y-52281284D01*
X143912755Y-52329590D01*
X143926049Y-52349938D01*
X143958276Y-52399266D01*
X143958280Y-52399270D01*
X144110758Y-52564904D01*
X144110759Y-52564905D01*
X144288425Y-52703190D01*
X144486422Y-52810340D01*
X144486425Y-52810342D01*
X144564174Y-52837033D01*
X144699365Y-52883444D01*
X144847409Y-52908148D01*
X144921430Y-52920500D01*
X144921431Y-52920500D01*
X145146570Y-52920500D01*
X145202085Y-52911236D01*
X145368635Y-52883444D01*
X145581574Y-52810342D01*
X145779576Y-52703189D01*
X145957240Y-52564906D01*
X146109722Y-52399268D01*
X146232860Y-52210791D01*
X146323296Y-52004616D01*
X146378564Y-51786368D01*
X146397156Y-51562000D01*
X146378564Y-51337632D01*
X146323296Y-51119384D01*
X146323295Y-51119381D01*
X146323295Y-51119380D01*
X146240586Y-50930823D01*
X146232860Y-50913209D01*
X146109722Y-50724732D01*
X145957240Y-50559094D01*
X145847049Y-50473328D01*
X145779574Y-50420809D01*
X145581577Y-50313659D01*
X145581574Y-50313657D01*
X145368641Y-50240558D01*
X145368632Y-50240555D01*
X145146570Y-50203500D01*
X145146569Y-50203500D01*
X144921431Y-50203500D01*
X144921430Y-50203500D01*
X144699367Y-50240555D01*
X144699358Y-50240558D01*
X144486425Y-50313657D01*
X144486422Y-50313659D01*
X144288425Y-50420809D01*
X144110759Y-50559094D01*
X144110758Y-50559095D01*
X143958280Y-50724729D01*
X143958276Y-50724733D01*
X143926888Y-50772777D01*
X143912755Y-50794409D01*
X143854373Y-50846687D01*
X143786010Y-50863000D01*
X140106713Y-50863000D01*
X140097572Y-50862724D01*
X140038487Y-50859150D01*
X140038486Y-50859150D01*
X139980264Y-50869818D01*
X139971234Y-50871193D01*
X139912489Y-50878327D01*
X139905386Y-50881021D01*
X139879003Y-50888376D01*
X139871516Y-50889748D01*
X139871513Y-50889749D01*
X139817543Y-50914038D01*
X139809100Y-50917535D01*
X139753774Y-50938518D01*
X139747513Y-50942840D01*
X139723657Y-50956294D01*
X139716729Y-50959412D01*
X139716724Y-50959415D01*
X139670136Y-50995913D01*
X139662777Y-51001328D01*
X139614073Y-51034947D01*
X139574830Y-51079243D01*
X139568563Y-51085900D01*
X116467808Y-74186656D01*
X116399937Y-74225841D01*
X116360752Y-74231000D01*
X112797047Y-74231000D01*
X112721347Y-74210716D01*
X112665931Y-74155300D01*
X112645647Y-74079600D01*
X112665931Y-74003900D01*
X112689991Y-73972544D01*
X113008127Y-73654408D01*
X114204112Y-72458421D01*
X114210735Y-72452186D01*
X114255052Y-72412927D01*
X114288684Y-72364200D01*
X114294095Y-72356848D01*
X114330584Y-72310275D01*
X114333698Y-72303354D01*
X114347162Y-72279480D01*
X114351480Y-72273227D01*
X114372478Y-72217856D01*
X114375955Y-72209463D01*
X114400251Y-72155483D01*
X114401620Y-72148012D01*
X114408977Y-72121616D01*
X114411673Y-72114510D01*
X114418810Y-72055720D01*
X114420180Y-72046729D01*
X114430849Y-71988516D01*
X114430849Y-71988515D01*
X114427276Y-71929444D01*
X114427000Y-71920303D01*
X114427000Y-52428751D01*
X114447284Y-52353051D01*
X114491558Y-52304733D01*
X114572300Y-52248198D01*
X114734198Y-52086300D01*
X114865523Y-51898749D01*
X114865526Y-51898741D01*
X114866879Y-51896400D01*
X114867843Y-51895435D01*
X114869315Y-51893334D01*
X114869685Y-51893593D01*
X114922291Y-51840980D01*
X114997990Y-51820691D01*
X115073691Y-51840970D01*
X115126318Y-51893590D01*
X115126685Y-51893334D01*
X115128138Y-51895409D01*
X115129111Y-51896382D01*
X115129121Y-51896400D01*
X115130478Y-51898751D01*
X115261802Y-52086300D01*
X115423699Y-52248197D01*
X115611243Y-52379518D01*
X115611247Y-52379520D01*
X115611251Y-52379523D01*
X115818757Y-52476284D01*
X116039913Y-52535543D01*
X116039912Y-52535543D01*
X116058261Y-52537148D01*
X116268000Y-52555498D01*
X116496087Y-52535543D01*
X116717243Y-52476284D01*
X116924749Y-52379523D01*
X117112300Y-52248198D01*
X117274198Y-52086300D01*
X117405523Y-51898749D01*
X117502284Y-51691243D01*
X117561543Y-51470087D01*
X117576500Y-51299127D01*
X117576500Y-50784873D01*
X117561543Y-50613913D01*
X117502284Y-50392757D01*
X117498742Y-50385162D01*
X117452568Y-50286140D01*
X117405523Y-50185251D01*
X117405520Y-50185247D01*
X117405518Y-50185243D01*
X117274197Y-49997699D01*
X117112300Y-49835802D01*
X116924756Y-49704481D01*
X116924747Y-49704476D01*
X116717251Y-49607719D01*
X116717246Y-49607717D01*
X116717243Y-49607716D01*
X116496087Y-49548457D01*
X116496086Y-49548456D01*
X116496087Y-49548456D01*
X116268000Y-49528502D01*
X116039914Y-49548456D01*
X115878017Y-49591837D01*
X115818757Y-49607716D01*
X115818755Y-49607716D01*
X115818748Y-49607719D01*
X115611252Y-49704476D01*
X115611243Y-49704481D01*
X115423699Y-49835802D01*
X115261802Y-49997699D01*
X115130476Y-50185251D01*
X115129117Y-50187606D01*
X115128151Y-50188571D01*
X115126685Y-50190666D01*
X115126315Y-50190407D01*
X115073702Y-50243023D01*
X114998002Y-50263308D01*
X114922302Y-50243025D01*
X114869683Y-50190408D01*
X114869315Y-50190666D01*
X114867852Y-50188577D01*
X114866885Y-50187610D01*
X114866883Y-50187606D01*
X114865523Y-50185251D01*
X114751652Y-50022627D01*
X114734198Y-49997700D01*
X114572300Y-49835802D01*
X114522598Y-49801000D01*
X114384756Y-49704481D01*
X114384747Y-49704476D01*
X114177251Y-49607719D01*
X114177246Y-49607717D01*
X114177243Y-49607716D01*
X113956087Y-49548457D01*
X113956086Y-49548456D01*
X113956087Y-49548456D01*
X113728000Y-49528502D01*
X113499914Y-49548456D01*
X113338017Y-49591837D01*
X113278757Y-49607716D01*
X113278755Y-49607716D01*
X113278748Y-49607719D01*
X113071252Y-49704476D01*
X113071243Y-49704481D01*
X112883699Y-49835802D01*
X112721802Y-49997699D01*
X112590476Y-50185251D01*
X112589117Y-50187606D01*
X112588151Y-50188571D01*
X112586685Y-50190666D01*
X112586315Y-50190407D01*
X112533702Y-50243023D01*
X112458002Y-50263308D01*
X112382302Y-50243025D01*
X112329683Y-50190408D01*
X112329315Y-50190666D01*
X112327852Y-50188577D01*
X112326885Y-50187610D01*
X112326883Y-50187606D01*
X112325523Y-50185251D01*
X112211652Y-50022627D01*
X112194198Y-49997700D01*
X112032300Y-49835802D01*
X111982598Y-49801000D01*
X111844756Y-49704481D01*
X111844747Y-49704476D01*
X111637251Y-49607719D01*
X111637246Y-49607717D01*
X111637243Y-49607716D01*
X111416087Y-49548457D01*
X111416086Y-49548456D01*
X111416087Y-49548456D01*
X111188000Y-49528502D01*
X110959914Y-49548456D01*
X110798017Y-49591837D01*
X110738757Y-49607716D01*
X110738755Y-49607716D01*
X110738748Y-49607719D01*
X110531252Y-49704476D01*
X110531243Y-49704481D01*
X110343699Y-49835802D01*
X110181802Y-49997699D01*
X110050481Y-50185243D01*
X110047176Y-50190970D01*
X110046145Y-50190375D01*
X110000127Y-50245198D01*
X109926478Y-50271988D01*
X109849300Y-50258365D01*
X109789274Y-50207979D01*
X109781799Y-50195025D01*
X109781435Y-50195236D01*
X109778129Y-50189509D01*
X109647661Y-50003183D01*
X109486816Y-49842338D01*
X109300490Y-49711870D01*
X109300485Y-49711867D01*
X109094329Y-49615734D01*
X109094324Y-49615733D01*
X108898000Y-49563127D01*
X108898000Y-50606498D01*
X108790315Y-50557320D01*
X108683763Y-50542000D01*
X108612237Y-50542000D01*
X108505685Y-50557320D01*
X108398000Y-50606498D01*
X108398000Y-49563127D01*
X108397999Y-49563127D01*
X108201675Y-49615733D01*
X108201670Y-49615734D01*
X107995514Y-49711867D01*
X107995509Y-49711870D01*
X107809183Y-49842338D01*
X107648338Y-50003183D01*
X107517870Y-50189509D01*
X107517867Y-50189514D01*
X107421734Y-50395671D01*
X107421732Y-50395678D01*
X107362858Y-50615394D01*
X107348000Y-50785236D01*
X107348000Y-50792000D01*
X108214314Y-50792000D01*
X108188507Y-50832156D01*
X108148000Y-50970111D01*
X108148000Y-51113889D01*
X108188507Y-51251844D01*
X108214314Y-51292000D01*
X107348000Y-51292000D01*
X107348000Y-51298763D01*
X107362858Y-51468605D01*
X107421732Y-51688321D01*
X107421734Y-51688328D01*
X107517867Y-51894485D01*
X107517870Y-51894490D01*
X107648338Y-52080816D01*
X107809183Y-52241661D01*
X107995509Y-52372129D01*
X107995514Y-52372132D01*
X108201671Y-52468265D01*
X108201678Y-52468267D01*
X108397999Y-52520871D01*
X108398000Y-52520871D01*
X108398000Y-51477501D01*
X108505685Y-51526680D01*
X108612237Y-51542000D01*
X108683763Y-51542000D01*
X108790315Y-51526680D01*
X108898000Y-51477501D01*
X108898000Y-52520871D01*
X109094321Y-52468267D01*
X109094328Y-52468265D01*
X109300485Y-52372132D01*
X109300490Y-52372129D01*
X109486816Y-52241661D01*
X109647661Y-52080816D01*
X109778129Y-51894490D01*
X109781435Y-51888764D01*
X109783551Y-51889985D01*
X109826415Y-51838856D01*
X109900047Y-51812019D01*
X109977233Y-51825593D01*
X110037291Y-51875942D01*
X110047166Y-51893035D01*
X110047176Y-51893030D01*
X110050481Y-51898756D01*
X110181802Y-52086300D01*
X110343699Y-52248197D01*
X110531243Y-52379518D01*
X110531247Y-52379520D01*
X110531251Y-52379523D01*
X110738757Y-52476284D01*
X110959913Y-52535543D01*
X110959912Y-52535543D01*
X110978261Y-52537148D01*
X111188000Y-52555498D01*
X111416087Y-52535543D01*
X111637243Y-52476284D01*
X111844749Y-52379523D01*
X112032300Y-52248198D01*
X112194198Y-52086300D01*
X112325523Y-51898749D01*
X112325526Y-51898741D01*
X112326879Y-51896400D01*
X112327843Y-51895435D01*
X112329315Y-51893334D01*
X112329685Y-51893593D01*
X112382291Y-51840980D01*
X112457990Y-51820691D01*
X112533691Y-51840970D01*
X112586318Y-51893590D01*
X112586685Y-51893334D01*
X112588138Y-51895409D01*
X112589111Y-51896382D01*
X112589121Y-51896400D01*
X112590476Y-51898747D01*
X112590477Y-51898749D01*
X112721802Y-52086300D01*
X112883700Y-52248198D01*
X112964440Y-52304733D01*
X113014815Y-52364766D01*
X113029000Y-52428751D01*
X113029000Y-53804100D01*
X113008716Y-53879800D01*
X112953300Y-53935216D01*
X112877600Y-53955500D01*
X112871487Y-53955500D01*
X112680513Y-53955500D01*
X112568432Y-53979323D01*
X112493710Y-53995206D01*
X112319250Y-54072880D01*
X112319246Y-54072882D01*
X112164744Y-54185136D01*
X112036960Y-54327055D01*
X112036957Y-54327058D01*
X111941473Y-54492443D01*
X111941472Y-54492446D01*
X111882458Y-54674068D01*
X111862496Y-54864000D01*
X111882458Y-55053931D01*
X111941472Y-55235553D01*
X111941473Y-55235556D01*
X112036957Y-55400940D01*
X112036960Y-55400944D01*
X112038107Y-55402218D01*
X112038627Y-55403238D01*
X112041625Y-55407365D01*
X112040971Y-55407839D01*
X112073690Y-55472045D01*
X112077000Y-55503530D01*
X112077000Y-71466252D01*
X112056716Y-71541952D01*
X112032656Y-71573308D01*
X98747456Y-84858508D01*
X98679585Y-84897693D01*
X98601215Y-84897693D01*
X98533344Y-84858508D01*
X98494159Y-84790637D01*
X98489000Y-84751452D01*
X98489000Y-73177699D01*
X98489276Y-73168558D01*
X98489530Y-73164368D01*
X98492849Y-73109485D01*
X98482176Y-73051248D01*
X98480805Y-73042231D01*
X98480596Y-73040512D01*
X98473673Y-72983490D01*
X98470979Y-72976387D01*
X98463620Y-72949986D01*
X98462252Y-72942518D01*
X98437957Y-72888538D01*
X98434464Y-72880101D01*
X98413482Y-72824777D01*
X98413480Y-72824772D01*
X98409164Y-72818520D01*
X98395702Y-72794653D01*
X98392585Y-72787725D01*
X98392582Y-72787721D01*
X98356085Y-72741135D01*
X98350666Y-72733771D01*
X98317051Y-72685072D01*
X98272764Y-72645837D01*
X98266105Y-72639569D01*
X89273639Y-63647103D01*
X89234454Y-63579232D01*
X89234454Y-63500862D01*
X89236850Y-63493585D01*
X89236755Y-63493556D01*
X89238425Y-63488140D01*
X89238425Y-63488137D01*
X89238427Y-63488134D01*
X89294407Y-63242869D01*
X89313207Y-62992000D01*
X89294407Y-62741131D01*
X89249621Y-62544911D01*
X89238428Y-62495870D01*
X89238427Y-62495869D01*
X89238427Y-62495866D01*
X89165351Y-62309672D01*
X89146517Y-62261683D01*
X89020737Y-62043826D01*
X89020735Y-62043823D01*
X89020731Y-62043816D01*
X88863878Y-61847128D01*
X88679462Y-61676016D01*
X88679459Y-61676014D01*
X88679457Y-61676012D01*
X88471606Y-61534301D01*
X88244947Y-61425147D01*
X88004546Y-61350994D01*
X87844082Y-61326808D01*
X87755786Y-61313500D01*
X87504214Y-61313500D01*
X87429226Y-61324802D01*
X87255453Y-61350994D01*
X87015052Y-61425147D01*
X86788394Y-61534301D01*
X86580542Y-61676012D01*
X86396120Y-61847129D01*
X86396119Y-61847131D01*
X86239273Y-62043810D01*
X86239262Y-62043826D01*
X86113482Y-62261683D01*
X86021571Y-62495870D01*
X85965594Y-62741122D01*
X85965593Y-62741128D01*
X85965593Y-62741131D01*
X85946793Y-62992000D01*
X85954746Y-63098131D01*
X85965594Y-63242877D01*
X86021571Y-63488129D01*
X86113482Y-63722316D01*
X86239262Y-63940173D01*
X86239266Y-63940178D01*
X86239269Y-63940184D01*
X86396122Y-64136872D01*
X86580538Y-64307984D01*
X86580540Y-64307985D01*
X86580542Y-64307987D01*
X86707750Y-64394716D01*
X86788397Y-64449700D01*
X86830260Y-64469860D01*
X87015052Y-64558852D01*
X87015054Y-64558852D01*
X87015055Y-64558853D01*
X87255451Y-64633005D01*
X87504214Y-64670500D01*
X87504216Y-64670500D01*
X87755784Y-64670500D01*
X87755786Y-64670500D01*
X88004549Y-64633005D01*
X88129776Y-64594376D01*
X88208091Y-64591446D01*
X88277379Y-64628065D01*
X88281458Y-64631994D01*
X97046656Y-73397192D01*
X97085841Y-73465063D01*
X97091000Y-73504248D01*
X97091000Y-85499752D01*
X97070716Y-85575452D01*
X97046656Y-85606808D01*
X90559808Y-92093656D01*
X90491937Y-92132841D01*
X90452752Y-92138000D01*
X81432713Y-92138000D01*
X81423572Y-92137724D01*
X81364487Y-92134150D01*
X81364486Y-92134150D01*
X81306264Y-92144818D01*
X81297234Y-92146193D01*
X81238489Y-92153327D01*
X81231386Y-92156021D01*
X81205003Y-92163376D01*
X81197516Y-92164748D01*
X81197513Y-92164749D01*
X81143543Y-92189038D01*
X81135100Y-92192535D01*
X81079774Y-92213518D01*
X81073513Y-92217840D01*
X81049657Y-92231294D01*
X81042729Y-92234412D01*
X81042724Y-92234415D01*
X80996136Y-92270913D01*
X80988777Y-92276328D01*
X80940073Y-92309947D01*
X80900830Y-92354243D01*
X80894563Y-92360900D01*
X78263891Y-94991571D01*
X78257234Y-94997838D01*
X78212945Y-95037075D01*
X78179319Y-95085789D01*
X78173904Y-95093148D01*
X78137418Y-95139720D01*
X78137413Y-95139729D01*
X78134297Y-95146653D01*
X78120840Y-95170513D01*
X78117805Y-95174910D01*
X78116517Y-95176777D01*
X78116516Y-95176778D01*
X78095528Y-95232118D01*
X78092031Y-95240561D01*
X78067751Y-95294510D01*
X78067747Y-95294524D01*
X78066377Y-95302000D01*
X78059024Y-95328376D01*
X78056327Y-95335487D01*
X78049193Y-95394240D01*
X78047817Y-95403279D01*
X78037151Y-95461482D01*
X78037151Y-95461485D01*
X78040724Y-95520554D01*
X78041000Y-95529695D01*
X78041000Y-98856848D01*
X78020716Y-98932548D01*
X77968980Y-98985769D01*
X77905996Y-99024549D01*
X77727420Y-99181716D01*
X77577971Y-99366805D01*
X77577967Y-99366811D01*
X77461955Y-99574483D01*
X77382702Y-99798788D01*
X77344943Y-100019005D01*
X77342500Y-100033255D01*
X77342500Y-101989570D01*
X76910500Y-101989570D01*
X76910500Y-85225570D01*
X77342500Y-85225570D01*
X77357621Y-85403233D01*
X77417564Y-85633446D01*
X77467498Y-85743913D01*
X77515550Y-85850216D01*
X77515553Y-85850221D01*
X77648763Y-86047311D01*
X77813361Y-86219051D01*
X77813368Y-86219057D01*
X77813369Y-86219058D01*
X78004631Y-86360515D01*
X78217049Y-86467614D01*
X78444511Y-86537273D01*
X78680474Y-86567489D01*
X78680474Y-86567488D01*
X78680475Y-86567489D01*
X78759699Y-86564123D01*
X78918149Y-86557393D01*
X79150699Y-86507275D01*
X79371435Y-86418576D01*
X79574005Y-86293849D01*
X79752582Y-86136681D01*
X79899882Y-85954252D01*
X79963217Y-85908100D01*
X80041146Y-85899798D01*
X80112786Y-85931572D01*
X80143110Y-85964586D01*
X80195398Y-86041948D01*
X80359004Y-86212653D01*
X80549099Y-86353247D01*
X80760228Y-86459696D01*
X80986309Y-86528933D01*
X80986312Y-86528934D01*
X81030000Y-86534527D01*
X81030000Y-85483497D01*
X81135408Y-85531635D01*
X81243666Y-85547200D01*
X81316334Y-85547200D01*
X81424592Y-85531635D01*
X81530000Y-85483497D01*
X81530000Y-86533212D01*
X81688197Y-86499117D01*
X81907592Y-86410958D01*
X82108932Y-86286989D01*
X82286420Y-86130780D01*
X82429316Y-85953807D01*
X82492654Y-85907652D01*
X82570583Y-85899350D01*
X82642223Y-85931124D01*
X82672547Y-85964138D01*
X82728763Y-86047311D01*
X82893361Y-86219051D01*
X82893368Y-86219057D01*
X82893369Y-86219058D01*
X83084631Y-86360515D01*
X83297049Y-86467614D01*
X83524511Y-86537273D01*
X83760474Y-86567489D01*
X83760474Y-86567488D01*
X83760475Y-86567489D01*
X83839699Y-86564123D01*
X83998149Y-86557393D01*
X84230699Y-86507275D01*
X84451435Y-86418576D01*
X84654005Y-86293849D01*
X84832582Y-86136681D01*
X84974297Y-85961169D01*
X85037632Y-85915017D01*
X85115561Y-85906715D01*
X85187201Y-85938489D01*
X85217525Y-85971503D01*
X85268763Y-86047311D01*
X85433361Y-86219051D01*
X85433368Y-86219057D01*
X85433369Y-86219058D01*
X85624631Y-86360515D01*
X85837049Y-86467614D01*
X86064511Y-86537273D01*
X86300474Y-86567489D01*
X86300474Y-86567488D01*
X86300475Y-86567489D01*
X86379699Y-86564123D01*
X86538149Y-86557393D01*
X86770699Y-86507275D01*
X86991435Y-86418576D01*
X87194005Y-86293849D01*
X87372582Y-86136681D01*
X87514297Y-85961169D01*
X87577632Y-85915017D01*
X87655561Y-85906715D01*
X87727201Y-85938489D01*
X87757525Y-85971503D01*
X87808763Y-86047311D01*
X87973361Y-86219051D01*
X87973368Y-86219057D01*
X87973369Y-86219058D01*
X88164631Y-86360515D01*
X88377049Y-86467614D01*
X88604511Y-86537273D01*
X88840474Y-86567489D01*
X88840474Y-86567488D01*
X88840475Y-86567489D01*
X88919699Y-86564123D01*
X89078149Y-86557393D01*
X89310699Y-86507275D01*
X89531435Y-86418576D01*
X89734005Y-86293849D01*
X89912582Y-86136681D01*
X90054297Y-85961169D01*
X90117632Y-85915017D01*
X90195561Y-85906715D01*
X90267201Y-85938489D01*
X90297525Y-85971503D01*
X90348763Y-86047311D01*
X90513361Y-86219051D01*
X90513368Y-86219057D01*
X90513369Y-86219058D01*
X90704631Y-86360515D01*
X90917049Y-86467614D01*
X91144511Y-86537273D01*
X91380474Y-86567489D01*
X91380474Y-86567488D01*
X91380475Y-86567489D01*
X91459699Y-86564123D01*
X91618149Y-86557393D01*
X91850699Y-86507275D01*
X92071435Y-86418576D01*
X92274005Y-86293849D01*
X92452582Y-86136681D01*
X92594297Y-85961169D01*
X92657632Y-85915017D01*
X92735561Y-85906715D01*
X92807201Y-85938489D01*
X92837525Y-85971503D01*
X92888763Y-86047311D01*
X93053361Y-86219051D01*
X93053368Y-86219057D01*
X93053369Y-86219058D01*
X93244631Y-86360515D01*
X93457049Y-86467614D01*
X93684511Y-86537273D01*
X93920474Y-86567489D01*
X93920474Y-86567488D01*
X93920475Y-86567489D01*
X93999699Y-86564123D01*
X94158149Y-86557393D01*
X94390699Y-86507275D01*
X94611435Y-86418576D01*
X94814005Y-86293849D01*
X94992582Y-86136681D01*
X95142029Y-85951594D01*
X95258046Y-85743913D01*
X95337297Y-85519613D01*
X95377500Y-85285145D01*
X95377500Y-83328830D01*
X95362379Y-83151167D01*
X95302436Y-82920954D01*
X95204449Y-82704182D01*
X95071236Y-82507088D01*
X94991239Y-82423620D01*
X94906638Y-82335348D01*
X94906631Y-82335342D01*
X94805504Y-82260549D01*
X94715369Y-82193885D01*
X94502951Y-82086786D01*
X94400079Y-82055282D01*
X94275490Y-82017127D01*
X94275486Y-82017126D01*
X94039528Y-81986911D01*
X94039524Y-81986910D01*
X93801852Y-81997006D01*
X93801848Y-81997007D01*
X93569301Y-82047124D01*
X93348565Y-82135824D01*
X93145996Y-82260549D01*
X92967419Y-82417717D01*
X92825703Y-82593228D01*
X92762365Y-82639382D01*
X92684436Y-82647684D01*
X92612796Y-82615909D01*
X92582475Y-82582898D01*
X92531236Y-82507088D01*
X92445583Y-82417719D01*
X92366638Y-82335348D01*
X92366631Y-82335342D01*
X92265504Y-82260549D01*
X92175369Y-82193885D01*
X91962951Y-82086786D01*
X91860079Y-82055282D01*
X91735490Y-82017127D01*
X91735486Y-82017126D01*
X91499528Y-81986911D01*
X91499524Y-81986910D01*
X91261852Y-81997006D01*
X91261848Y-81997007D01*
X91029301Y-82047124D01*
X90808565Y-82135824D01*
X90605996Y-82260549D01*
X90427419Y-82417717D01*
X90285703Y-82593228D01*
X90222365Y-82639382D01*
X90144436Y-82647684D01*
X90072796Y-82615909D01*
X90042475Y-82582898D01*
X89991236Y-82507088D01*
X89905583Y-82417719D01*
X89826638Y-82335348D01*
X89826631Y-82335342D01*
X89725504Y-82260549D01*
X89635369Y-82193885D01*
X89422951Y-82086786D01*
X89320079Y-82055282D01*
X89195490Y-82017127D01*
X89195486Y-82017126D01*
X88959528Y-81986911D01*
X88959524Y-81986910D01*
X88721852Y-81997006D01*
X88721848Y-81997007D01*
X88489301Y-82047124D01*
X88268565Y-82135824D01*
X88065996Y-82260549D01*
X87887419Y-82417717D01*
X87745703Y-82593228D01*
X87682365Y-82639382D01*
X87604436Y-82647684D01*
X87532796Y-82615909D01*
X87502475Y-82582898D01*
X87451236Y-82507088D01*
X87365583Y-82417719D01*
X87286638Y-82335348D01*
X87286631Y-82335342D01*
X87185504Y-82260549D01*
X87095369Y-82193885D01*
X86882951Y-82086786D01*
X86780079Y-82055282D01*
X86655490Y-82017127D01*
X86655486Y-82017126D01*
X86419528Y-81986911D01*
X86419524Y-81986910D01*
X86181852Y-81997006D01*
X86181848Y-81997007D01*
X85949301Y-82047124D01*
X85728565Y-82135824D01*
X85525996Y-82260549D01*
X85347419Y-82417717D01*
X85205703Y-82593228D01*
X85142365Y-82639382D01*
X85064436Y-82647684D01*
X84992796Y-82615909D01*
X84962475Y-82582898D01*
X84911236Y-82507088D01*
X84825583Y-82417719D01*
X84746638Y-82335348D01*
X84746631Y-82335342D01*
X84645504Y-82260549D01*
X84555369Y-82193885D01*
X84342951Y-82086786D01*
X84240079Y-82055282D01*
X84115490Y-82017127D01*
X84115486Y-82017126D01*
X83879528Y-81986911D01*
X83879524Y-81986910D01*
X83641852Y-81997006D01*
X83641848Y-81997007D01*
X83409301Y-82047124D01*
X83188565Y-82135824D01*
X82985996Y-82260549D01*
X82807419Y-82417717D01*
X82660118Y-82600145D01*
X82596780Y-82646299D01*
X82518851Y-82654601D01*
X82447211Y-82622826D01*
X82416887Y-82589811D01*
X82364602Y-82512452D01*
X82200995Y-82341746D01*
X82010900Y-82201152D01*
X81799770Y-82094702D01*
X81799762Y-82094699D01*
X81573700Y-82025468D01*
X81573690Y-82025465D01*
X81530000Y-82019871D01*
X81530000Y-84594902D01*
X81424592Y-84546765D01*
X81316334Y-84531200D01*
X81243666Y-84531200D01*
X81135408Y-84546765D01*
X81030000Y-84594902D01*
X81030000Y-82021187D01*
X80871802Y-82055282D01*
X80652407Y-82143441D01*
X80451067Y-82267410D01*
X80273578Y-82423620D01*
X80130682Y-82600593D01*
X80067344Y-82646747D01*
X79989415Y-82655049D01*
X79917775Y-82623274D01*
X79887452Y-82590261D01*
X79831236Y-82507088D01*
X79666638Y-82335348D01*
X79666631Y-82335342D01*
X79565504Y-82260549D01*
X79475369Y-82193885D01*
X79262951Y-82086786D01*
X79160079Y-82055282D01*
X79035490Y-82017127D01*
X79035486Y-82017126D01*
X78799528Y-81986911D01*
X78799524Y-81986910D01*
X78561852Y-81997006D01*
X78561848Y-81997007D01*
X78329301Y-82047124D01*
X78108565Y-82135824D01*
X77905996Y-82260549D01*
X77727420Y-82417716D01*
X77577971Y-82602805D01*
X77577967Y-82602811D01*
X77461955Y-82810483D01*
X77382702Y-83034788D01*
X77342500Y-83269254D01*
X77342500Y-83269255D01*
X77342500Y-85225570D01*
X76910500Y-85225570D01*
X76910500Y-67992000D01*
X85955317Y-67992000D01*
X85974023Y-68241607D01*
X86029714Y-68485608D01*
X86029720Y-68485626D01*
X86121162Y-68718618D01*
X86246307Y-68935376D01*
X86246312Y-68935383D01*
X86284800Y-68983644D01*
X87027452Y-68240991D01*
X87037188Y-68270956D01*
X87125186Y-68409619D01*
X87244903Y-68522040D01*
X87379510Y-68596041D01*
X86638403Y-69337149D01*
X86792657Y-69442317D01*
X87018167Y-69550917D01*
X87257353Y-69624695D01*
X87257356Y-69624696D01*
X87504853Y-69662000D01*
X87755147Y-69662000D01*
X88002643Y-69624696D01*
X88002646Y-69624695D01*
X88241832Y-69550917D01*
X88467344Y-69442316D01*
X88621594Y-69337149D01*
X88621595Y-69337148D01*
X87877533Y-68593086D01*
X87945629Y-68566126D01*
X88078492Y-68469595D01*
X88183175Y-68343055D01*
X88231632Y-68240078D01*
X88975198Y-68983645D01*
X88975199Y-68983644D01*
X89013690Y-68935380D01*
X89138837Y-68718618D01*
X89230279Y-68485626D01*
X89230285Y-68485608D01*
X89285976Y-68241607D01*
X89304682Y-67992000D01*
X89285976Y-67742392D01*
X89230285Y-67498391D01*
X89230279Y-67498373D01*
X89138837Y-67265381D01*
X89013692Y-67048623D01*
X89013681Y-67048607D01*
X88975200Y-67000354D01*
X88975198Y-67000354D01*
X88232546Y-67743005D01*
X88222812Y-67713044D01*
X88134814Y-67574381D01*
X88015097Y-67461960D01*
X87880487Y-67387956D01*
X88621594Y-66646850D01*
X88467340Y-66541681D01*
X88241832Y-66433082D01*
X88002646Y-66359304D01*
X88002643Y-66359303D01*
X87755147Y-66322000D01*
X87504853Y-66322000D01*
X87257356Y-66359303D01*
X87257353Y-66359304D01*
X87018167Y-66433082D01*
X86792661Y-66541681D01*
X86792660Y-66541681D01*
X86638404Y-66646850D01*
X87382466Y-67390912D01*
X87314371Y-67417874D01*
X87181508Y-67514405D01*
X87076825Y-67640945D01*
X87028367Y-67743921D01*
X86284800Y-67000354D01*
X86284799Y-67000354D01*
X86246317Y-67048608D01*
X86246309Y-67048621D01*
X86121162Y-67265381D01*
X86029720Y-67498373D01*
X86029714Y-67498391D01*
X85974023Y-67742392D01*
X85955317Y-67992000D01*
X76910500Y-67992000D01*
X76910500Y-57992000D01*
X85946793Y-57992000D01*
X85965594Y-58242877D01*
X86021571Y-58488129D01*
X86113482Y-58722316D01*
X86239262Y-58940173D01*
X86239266Y-58940178D01*
X86239269Y-58940184D01*
X86396122Y-59136872D01*
X86580538Y-59307984D01*
X86788397Y-59449700D01*
X86914251Y-59510308D01*
X87015052Y-59558852D01*
X87015054Y-59558852D01*
X87015055Y-59558853D01*
X87255451Y-59633005D01*
X87504214Y-59670500D01*
X87504216Y-59670500D01*
X87755784Y-59670500D01*
X87755786Y-59670500D01*
X88004549Y-59633005D01*
X88244945Y-59558853D01*
X88471604Y-59449700D01*
X88679462Y-59307984D01*
X88863878Y-59136872D01*
X89020731Y-58940184D01*
X89146517Y-58722316D01*
X89238427Y-58488134D01*
X89294407Y-58242869D01*
X89313207Y-57992000D01*
X89294407Y-57741131D01*
X89238427Y-57495866D01*
X89173202Y-57329677D01*
X89146517Y-57261683D01*
X89020737Y-57043826D01*
X89020735Y-57043823D01*
X89020731Y-57043816D01*
X88863878Y-56847128D01*
X88679462Y-56676016D01*
X88679459Y-56676014D01*
X88679457Y-56676012D01*
X88471606Y-56534301D01*
X88244947Y-56425147D01*
X88004546Y-56350994D01*
X87844082Y-56326808D01*
X87755786Y-56313500D01*
X87504214Y-56313500D01*
X87429226Y-56324802D01*
X87255453Y-56350994D01*
X87015052Y-56425147D01*
X86788394Y-56534301D01*
X86580542Y-56676012D01*
X86396120Y-56847129D01*
X86396119Y-56847131D01*
X86239273Y-57043810D01*
X86239262Y-57043826D01*
X86113482Y-57261683D01*
X86021571Y-57495870D01*
X85965594Y-57741122D01*
X85946793Y-57992000D01*
X76910500Y-57992000D01*
X76910500Y-48263973D01*
X76910604Y-48260000D01*
X77389719Y-48260000D01*
X77408823Y-48575840D01*
X77465860Y-48887075D01*
X77559992Y-49189155D01*
X77559995Y-49189164D01*
X77667414Y-49427840D01*
X77689855Y-49477703D01*
X77689861Y-49477713D01*
X77853554Y-49748495D01*
X78048691Y-49997567D01*
X78272432Y-50221308D01*
X78521504Y-50416445D01*
X78572212Y-50447099D01*
X78792295Y-50580144D01*
X79080836Y-50710005D01*
X79382926Y-50804140D01*
X79624325Y-50848378D01*
X79694159Y-50861176D01*
X79694158Y-50861176D01*
X79719751Y-50862724D01*
X80010000Y-50880281D01*
X80325840Y-50861176D01*
X80637074Y-50804140D01*
X80939164Y-50710005D01*
X81227705Y-50580144D01*
X81498489Y-50416449D01*
X81498491Y-50416447D01*
X81498495Y-50416445D01*
X81670764Y-50281480D01*
X81747568Y-50221308D01*
X81971308Y-49997568D01*
X82081045Y-49857499D01*
X82166445Y-49748495D01*
X82188586Y-49711870D01*
X82321502Y-49492000D01*
X147888901Y-49492000D01*
X147907252Y-49678331D01*
X147961603Y-49857499D01*
X147961604Y-49857502D01*
X148049862Y-50022623D01*
X148085983Y-50066636D01*
X148168643Y-50167357D01*
X148263463Y-50245174D01*
X148313376Y-50286137D01*
X148364865Y-50313658D01*
X148478499Y-50374396D01*
X148505341Y-50382538D01*
X148512879Y-50385076D01*
X148513206Y-50385160D01*
X148513209Y-50385162D01*
X148515514Y-50385759D01*
X148521514Y-50387444D01*
X148657669Y-50428747D01*
X148685272Y-50431465D01*
X148693355Y-50432482D01*
X148699771Y-50433465D01*
X148699773Y-50433466D01*
X148708172Y-50433891D01*
X148715280Y-50434421D01*
X148844000Y-50447099D01*
X148875124Y-50444033D01*
X148884580Y-50443810D01*
X148884571Y-50443616D01*
X148892233Y-50443226D01*
X148892241Y-50443227D01*
X148904292Y-50441380D01*
X148912355Y-50440366D01*
X149030331Y-50428747D01*
X149064435Y-50418401D01*
X149076388Y-50415687D01*
X149082722Y-50414046D01*
X149082734Y-50414045D01*
X149096302Y-50409019D01*
X149104883Y-50406131D01*
X149209501Y-50374396D01*
X149244888Y-50355481D01*
X149263042Y-50347314D01*
X149263445Y-50347116D01*
X149263445Y-50347115D01*
X149263453Y-50347113D01*
X149276732Y-50338835D01*
X149285369Y-50333843D01*
X149374625Y-50286136D01*
X149409157Y-50257795D01*
X149425119Y-50246346D01*
X149427000Y-50245174D01*
X149438591Y-50234155D01*
X149446789Y-50226912D01*
X149519357Y-50167357D01*
X149550649Y-50129227D01*
X149563373Y-50115541D01*
X149566679Y-50112399D01*
X149575657Y-50099498D01*
X149582858Y-50089980D01*
X149638136Y-50022625D01*
X149663650Y-49974891D01*
X149672906Y-49959777D01*
X149676771Y-49954226D01*
X149682673Y-49940470D01*
X149688267Y-49928835D01*
X149714226Y-49880269D01*
X149726394Y-49857506D01*
X149726396Y-49857501D01*
X149743542Y-49800975D01*
X149749283Y-49785250D01*
X149752769Y-49777128D01*
X149755551Y-49763586D01*
X149758972Y-49750114D01*
X149780744Y-49678340D01*
X149780747Y-49678331D01*
X149787034Y-49614488D01*
X149789402Y-49598872D01*
X149791563Y-49588358D01*
X149792099Y-49567154D01*
X149792777Y-49556186D01*
X149799099Y-49492000D01*
X149792777Y-49427818D01*
X149792099Y-49416841D01*
X149791563Y-49395642D01*
X149789399Y-49385116D01*
X149787035Y-49369516D01*
X149780747Y-49305669D01*
X149758971Y-49233886D01*
X149755552Y-49220416D01*
X149752769Y-49206872D01*
X149749283Y-49198748D01*
X149743536Y-49183001D01*
X149726396Y-49126500D01*
X149726396Y-49126499D01*
X149688262Y-49055156D01*
X149682670Y-49043521D01*
X149676771Y-49029775D01*
X149676771Y-49029774D01*
X149672898Y-49024209D01*
X149663645Y-49009101D01*
X149638136Y-48961375D01*
X149582873Y-48894037D01*
X149575644Y-48884481D01*
X149566678Y-48871599D01*
X149563367Y-48868452D01*
X149550646Y-48854769D01*
X149519357Y-48816643D01*
X149446815Y-48757109D01*
X149438573Y-48749827D01*
X149427000Y-48738826D01*
X149426997Y-48738823D01*
X149425108Y-48737646D01*
X149409150Y-48726198D01*
X149374621Y-48697861D01*
X149285395Y-48650168D01*
X149276686Y-48645134D01*
X149263453Y-48636886D01*
X149263061Y-48636694D01*
X149244881Y-48628514D01*
X149209502Y-48609604D01*
X149104919Y-48577879D01*
X149096292Y-48574975D01*
X149082735Y-48569954D01*
X149076440Y-48568324D01*
X149064443Y-48565600D01*
X149039433Y-48558014D01*
X149030331Y-48555253D01*
X149030330Y-48555252D01*
X148912368Y-48543634D01*
X148904292Y-48542618D01*
X148892245Y-48540773D01*
X148884579Y-48540384D01*
X148884588Y-48540193D01*
X148875128Y-48539966D01*
X148852097Y-48537698D01*
X148844000Y-48536901D01*
X148843998Y-48536901D01*
X148843997Y-48536901D01*
X148715318Y-48549574D01*
X148708160Y-48550108D01*
X148699772Y-48550534D01*
X148693333Y-48551520D01*
X148685261Y-48552535D01*
X148657668Y-48555253D01*
X148657665Y-48555253D01*
X148521510Y-48596555D01*
X148515542Y-48598233D01*
X148512892Y-48598919D01*
X148505326Y-48601465D01*
X148478500Y-48609603D01*
X148478496Y-48609605D01*
X148313376Y-48697862D01*
X148168643Y-48816643D01*
X148049862Y-48961376D01*
X147961604Y-49126497D01*
X147961603Y-49126500D01*
X147907252Y-49305668D01*
X147888901Y-49492000D01*
X82321502Y-49492000D01*
X82330144Y-49477705D01*
X82460005Y-49189164D01*
X82554140Y-48887074D01*
X82611176Y-48575840D01*
X82630281Y-48260000D01*
X163749719Y-48260000D01*
X163768823Y-48575840D01*
X163825860Y-48887075D01*
X163919992Y-49189155D01*
X163919995Y-49189164D01*
X164027414Y-49427840D01*
X164049855Y-49477703D01*
X164049861Y-49477713D01*
X164213554Y-49748495D01*
X164408691Y-49997567D01*
X164632432Y-50221308D01*
X164881504Y-50416445D01*
X164932212Y-50447099D01*
X165152295Y-50580144D01*
X165440836Y-50710005D01*
X165742926Y-50804140D01*
X165984325Y-50848378D01*
X166054159Y-50861176D01*
X166054158Y-50861176D01*
X166079751Y-50862724D01*
X166370000Y-50880281D01*
X166685840Y-50861176D01*
X166997074Y-50804140D01*
X167299164Y-50710005D01*
X167587705Y-50580144D01*
X167858489Y-50416449D01*
X167858491Y-50416447D01*
X167858495Y-50416445D01*
X168030764Y-50281480D01*
X168107568Y-50221308D01*
X168331308Y-49997568D01*
X168441045Y-49857499D01*
X168526445Y-49748495D01*
X168548586Y-49711870D01*
X168690144Y-49477705D01*
X168820005Y-49189164D01*
X168914140Y-48887074D01*
X168971176Y-48575840D01*
X168990281Y-48260000D01*
X168971176Y-47944160D01*
X168914140Y-47632926D01*
X168820005Y-47330836D01*
X168690144Y-47042295D01*
X168532959Y-46782280D01*
X168526445Y-46771504D01*
X168331308Y-46522432D01*
X168107567Y-46298691D01*
X167858495Y-46103554D01*
X167587713Y-45939861D01*
X167587703Y-45939855D01*
X167534968Y-45916121D01*
X167299164Y-45809995D01*
X167299157Y-45809992D01*
X167299155Y-45809992D01*
X166997075Y-45715860D01*
X166685840Y-45658823D01*
X166685841Y-45658823D01*
X166370000Y-45639719D01*
X166054159Y-45658823D01*
X165742924Y-45715860D01*
X165440844Y-45809992D01*
X165440838Y-45809994D01*
X165440836Y-45809995D01*
X165366882Y-45843279D01*
X165152296Y-45939855D01*
X165152286Y-45939861D01*
X164881504Y-46103554D01*
X164632432Y-46298691D01*
X164408691Y-46522432D01*
X164213554Y-46771504D01*
X164049861Y-47042286D01*
X164049855Y-47042296D01*
X164010721Y-47129250D01*
X163928436Y-47312082D01*
X163919994Y-47330839D01*
X163919992Y-47330844D01*
X163825860Y-47632924D01*
X163768823Y-47944159D01*
X163749719Y-48260000D01*
X82630281Y-48260000D01*
X82611176Y-47944160D01*
X82554140Y-47632926D01*
X82460005Y-47330836D01*
X82330144Y-47042295D01*
X82172959Y-46782280D01*
X82166445Y-46771504D01*
X81971308Y-46522432D01*
X81747567Y-46298691D01*
X81498495Y-46103554D01*
X81227713Y-45939861D01*
X81227703Y-45939855D01*
X81174968Y-45916121D01*
X80939164Y-45809995D01*
X80939157Y-45809992D01*
X80939155Y-45809992D01*
X80637075Y-45715860D01*
X80325840Y-45658823D01*
X80325841Y-45658823D01*
X80010000Y-45639719D01*
X79694159Y-45658823D01*
X79382924Y-45715860D01*
X79080844Y-45809992D01*
X79080838Y-45809994D01*
X79080836Y-45809995D01*
X79006882Y-45843279D01*
X78792296Y-45939855D01*
X78792286Y-45939861D01*
X78521504Y-46103554D01*
X78272432Y-46298691D01*
X78048691Y-46522432D01*
X77853554Y-46771504D01*
X77689861Y-47042286D01*
X77689855Y-47042296D01*
X77650721Y-47129250D01*
X77568436Y-47312082D01*
X77559994Y-47330839D01*
X77559992Y-47330844D01*
X77465860Y-47632924D01*
X77408823Y-47944159D01*
X77389719Y-48260000D01*
X76910604Y-48260000D01*
X76910707Y-48256050D01*
X76918485Y-48107627D01*
X76927064Y-47943918D01*
X76928718Y-47928190D01*
X76976993Y-47623400D01*
X76980283Y-47607921D01*
X77060151Y-47309846D01*
X77065034Y-47294816D01*
X77175629Y-47006710D01*
X77182063Y-46992260D01*
X77322152Y-46717319D01*
X77330070Y-46703604D01*
X77470587Y-46487227D01*
X77498136Y-46444804D01*
X77507437Y-46432003D01*
X77701637Y-46192186D01*
X77712223Y-46180429D01*
X77930429Y-45962223D01*
X77942186Y-45951637D01*
X78182003Y-45757437D01*
X78194804Y-45748136D01*
X78453604Y-45580070D01*
X78467319Y-45572152D01*
X78742260Y-45432063D01*
X78756710Y-45425629D01*
X79044816Y-45315034D01*
X79059846Y-45310151D01*
X79357921Y-45230283D01*
X79373400Y-45226993D01*
X79678190Y-45178718D01*
X79693918Y-45177064D01*
X80006050Y-45160706D01*
X80013973Y-45160500D01*
X80034531Y-45160500D01*
X166345469Y-45160500D01*
X166366027Y-45160500D01*
X166373949Y-45160706D01*
G37*
%TD.AperFunction*%
%TD*%
M02*
