M48
; DRILL file {KiCad 7.0.10} date Sunday, February 04, 2024 at 10:18:42 PM
; FORMAT={-:-/ absolute / inch / decimal}
; #@! TF.CreationDate,2024-02-04T22:18:42-08:00
; #@! TF.GenerationSoftware,Kicad,Pcbnew,7.0.10
; #@! TF.FileFunction,Plated,1,2,PTH
FMAT,2
INCH
; #@! TA.AperFunction,Plated,PTH,ViaDrill
T1C0.0157
; #@! TA.AperFunction,Plated,PTH,ViaDrill
T2C0.0200
; #@! TA.AperFunction,Plated,PTH,ComponentDrill
T3C0.0315
; #@! TA.AperFunction,Plated,PTH,ComponentDrill
T4C0.0335
; #@! TA.AperFunction,Plated,PTH,ComponentDrill
T5C0.0374
; #@! TA.AperFunction,Plated,PTH,ComponentDrill
T6C0.0394
; #@! TA.AperFunction,Plated,PTH,ComponentDrill
T7C0.0400
; #@! TA.AperFunction,Plated,PTH,ComponentDrill
T8C0.0512
; #@! TA.AperFunction,Plated,PTH,ComponentDrill
T9C0.0669
%
G90
G05
T1
X4.44Y-2.16
X4.685Y-3.335
X4.7525Y-3.37
X4.82Y-3.405
X5.5137Y-4.5027
X5.5257Y-3.61
X5.5257Y-3.6575
X5.5257Y-3.705
X5.7183Y-3.6802
X5.9483Y-3.7252
T2
X3.15Y-3.455
X3.15Y-3.495
X3.19Y-3.455
X3.19Y-3.495
X5.565Y-3.945
X5.565Y-3.985
X5.605Y-3.945
X5.605Y-3.985
T3
X5.8457Y-4.4248
X5.9441Y-4.4248
T4
X5.71Y-2.03
X5.71Y-2.93
X6.01Y-2.03
X6.01Y-2.93
T5
X3.2596Y-4.4492
X3.358Y-4.4492
X3.4564Y-4.4492
X3.83Y-4.339
X3.83Y-4.4374
T6
X4.2775Y-2.0095
X4.3775Y-2.0095
X4.4775Y-2.0095
X4.5775Y-2.0095
X5.6457Y-4.095
X5.7457Y-4.095
X5.8457Y-4.095
X5.9457Y-4.095
T7
X3.1Y-3.348
X3.1Y-3.948
X3.2Y-3.348
X3.2Y-3.948
X3.3Y-3.348
X3.3Y-3.948
X3.4Y-3.348
X3.4Y-3.948
X3.5Y-3.348
X3.5Y-3.948
X3.6Y-3.348
X3.6Y-3.948
X3.7Y-3.348
X3.7Y-3.948
T8
X3.45Y-2.2831
X3.45Y-2.48
X3.45Y-2.6769
T9
X4.0133Y-3.8653
X4.0133Y-4.0622
X6.2407Y-3.595
X6.2407Y-3.7919
M30
