%TF.GenerationSoftware,KiCad,Pcbnew,7.0.10*%
%TF.CreationDate,2024-02-04T22:17:42-08:00*%
%TF.ProjectId,pcb_lab,7063625f-6c61-4622-9e6b-696361645f70,rev?*%
%TF.SameCoordinates,Original*%
%TF.FileFunction,Profile,NP*%
%FSLAX46Y46*%
G04 Gerber Fmt 4.6, Leading zero omitted, Abs format (unit mm)*
G04 Created by KiCad (PCBNEW 7.0.10) date 2024-02-04 22:17:42*
%MOMM*%
%LPD*%
G01*
G04 APERTURE LIST*
%TA.AperFunction,Profile*%
%ADD10C,0.100000*%
%TD*%
%TA.AperFunction,Profile*%
%ADD11C,0.050000*%
%TD*%
G04 APERTURE END LIST*
D10*
X82296000Y-48260000D02*
G75*
G03*
X77724000Y-48260000I-2286000J0D01*
G01*
X77724000Y-48260000D02*
G75*
G03*
X82296000Y-48260000I2286000J0D01*
G01*
X88900000Y-97790000D02*
X88900000Y-95504000D01*
X110617000Y-90170000D02*
X110617000Y-105664000D01*
X130683000Y-90170000D02*
G75*
G03*
X128270000Y-87757000I-2413000J0D01*
G01*
X80010000Y-118110000D02*
X166370000Y-118110000D01*
X110617000Y-105664000D02*
G75*
G03*
X113030000Y-108077000I2413000J0D01*
G01*
X166370000Y-118110000D02*
G75*
G03*
X170180000Y-114300000I0J3810000D01*
G01*
X88265000Y-94869000D02*
X81915000Y-94869000D01*
X170180000Y-48260000D02*
G75*
G03*
X166370000Y-44450000I-3810000J0D01*
G01*
X88900000Y-95504000D02*
G75*
G03*
X88265000Y-94869000I-635000J0D01*
G01*
X81915000Y-94869000D02*
G75*
G03*
X81280000Y-95504000I0J-635000D01*
G01*
X128270000Y-108077000D02*
G75*
G03*
X130683000Y-105664000I0J2413000D01*
G01*
X130683000Y-105664000D02*
X130683000Y-90170000D01*
X80010000Y-44450000D02*
G75*
G03*
X76200000Y-48260000I0J-3810000D01*
G01*
X168656000Y-114300000D02*
G75*
G03*
X164084000Y-114300000I-2286000J0D01*
G01*
X164084000Y-114300000D02*
G75*
G03*
X168656000Y-114300000I2286000J0D01*
G01*
X170180000Y-48260000D02*
X170180000Y-114300000D01*
X76200001Y-114300000D02*
G75*
G03*
X80010000Y-118109999I3837099J27100D01*
G01*
X168656000Y-48260000D02*
G75*
G03*
X164084000Y-48260000I-2286000J0D01*
G01*
X164084000Y-48260000D02*
G75*
G03*
X168656000Y-48260000I2286000J0D01*
G01*
X76200000Y-114300000D02*
X76200000Y-48260000D01*
X80010000Y-44450000D02*
X166370000Y-44450000D01*
X113030000Y-87757000D02*
G75*
G03*
X110617000Y-90170000I0J-2413000D01*
G01*
X88138000Y-98552000D02*
G75*
G03*
X88900000Y-97790000I0J762000D01*
G01*
X81280000Y-97790000D02*
G75*
G03*
X82042000Y-98552000I762000J0D01*
G01*
X81280000Y-95504000D02*
X81280000Y-97790000D01*
X128270000Y-87757000D02*
X113030000Y-87757000D01*
X82042000Y-98552000D02*
X88138000Y-98552000D01*
X113030000Y-108077000D02*
X128270000Y-108077000D01*
D11*
%TO.C,M1*%
X149794000Y-76492000D02*
G75*
G03*
X147894000Y-76492000I-950000J0D01*
G01*
X147894000Y-76492000D02*
G75*
G03*
X149794000Y-76492000I950000J0D01*
G01*
X159144000Y-71992000D02*
G75*
G03*
X156544000Y-71992000I-1300000J0D01*
G01*
X156544000Y-71992000D02*
G75*
G03*
X159144000Y-71992000I1300000J0D01*
G01*
X140794000Y-62992000D02*
G75*
G03*
X136894000Y-62992000I-1950000J0D01*
G01*
X136894000Y-62992000D02*
G75*
G03*
X140794000Y-62992000I1950000J0D01*
G01*
X149794000Y-49492000D02*
G75*
G03*
X147894000Y-49492000I-950000J0D01*
G01*
X147894000Y-49492000D02*
G75*
G03*
X149794000Y-49492000I950000J0D01*
G01*
%TD*%
M02*
