%TF.GenerationSoftware,KiCad,Pcbnew,7.0.10*%
%TF.CreationDate,2024-02-04T22:17:42-08:00*%
%TF.ProjectId,pcb_lab,7063625f-6c61-4622-9e6b-696361645f70,rev?*%
%TF.SameCoordinates,Original*%
%TF.FileFunction,Soldermask,Bot*%
%TF.FilePolarity,Negative*%
%FSLAX46Y46*%
G04 Gerber Fmt 4.6, Leading zero omitted, Abs format (unit mm)*
G04 Created by KiCad (PCBNEW 7.0.10) date 2024-02-04 22:17:42*
%MOMM*%
%LPD*%
G01*
G04 APERTURE LIST*
G04 Aperture macros list*
%AMRoundRect*
0 Rectangle with rounded corners*
0 $1 Rounding radius*
0 $2 $3 $4 $5 $6 $7 $8 $9 X,Y pos of 4 corners*
0 Add a 4 corners polygon primitive as box body*
4,1,4,$2,$3,$4,$5,$6,$7,$8,$9,$2,$3,0*
0 Add four circle primitives for the rounded corners*
1,1,$1+$1,$2,$3*
1,1,$1+$1,$4,$5*
1,1,$1+$1,$6,$7*
1,1,$1+$1,$8,$9*
0 Add four rect primitives between the rounded corners*
20,1,$1+$1,$2,$3,$4,$5,0*
20,1,$1+$1,$4,$5,$6,$7,0*
20,1,$1+$1,$6,$7,$8,$9,0*
20,1,$1+$1,$8,$9,$2,$3,0*%
G04 Aperture macros list end*
%ADD10C,2.340000*%
%ADD11O,1.600000X2.000000*%
%ADD12RoundRect,0.250000X-0.600000X-0.725000X0.600000X-0.725000X0.600000X0.725000X-0.600000X0.725000X0*%
%ADD13O,1.700000X1.950000*%
%ADD14C,1.700000*%
%ADD15O,1.778000X3.556000*%
%ADD16C,2.540000*%
%ADD17RoundRect,0.250001X1.099999X-1.099999X1.099999X1.099999X-1.099999X1.099999X-1.099999X-1.099999X0*%
%ADD18C,2.700000*%
%ADD19R,1.600000X1.600000*%
%ADD20C,1.600000*%
%ADD21R,1.700000X1.700000*%
%ADD22O,1.700000X1.700000*%
%ADD23C,1.250000*%
%ADD24RoundRect,0.250000X0.725000X-0.600000X0.725000X0.600000X-0.725000X0.600000X-0.725000X-0.600000X0*%
%ADD25O,1.950000X1.700000*%
%ADD26RoundRect,0.250001X-1.099999X1.099999X-1.099999X-1.099999X1.099999X-1.099999X1.099999X1.099999X0*%
G04 APERTURE END LIST*
D10*
%TO.C,RV1*%
X87630000Y-57992000D03*
X87630000Y-62992000D03*
X87630000Y-67992000D03*
%TD*%
D11*
%TO.C,Brd1*%
X108648000Y-51042000D03*
X111188000Y-51042000D03*
X113728000Y-51042000D03*
X116268000Y-51042000D03*
%TD*%
D12*
%TO.C,SW1*%
X82793200Y-113010600D03*
D13*
X85293200Y-113010600D03*
X87793200Y-113010600D03*
%TD*%
D14*
%TO.C,M1*%
X145034000Y-51562000D03*
X152654000Y-51562000D03*
X152654000Y-74422000D03*
X145034000Y-74422000D03*
%TD*%
D15*
%TO.C,U1*%
X78740000Y-101041200D03*
X81280000Y-101041200D03*
X83820000Y-101041200D03*
X86360000Y-101041200D03*
X88900000Y-101041200D03*
X91440000Y-101041200D03*
X93980000Y-101041200D03*
X78740000Y-84277200D03*
X81280000Y-84277200D03*
X83820000Y-84277200D03*
X86360000Y-84277200D03*
X88900000Y-84277200D03*
X91440000Y-84277200D03*
X93980000Y-84277200D03*
%TD*%
D16*
%TO.C,REF\u002A\u002A*%
X111908790Y-113030010D03*
X132228790Y-113030010D03*
X111908790Y-82550010D03*
X132228790Y-82550010D03*
%TD*%
D17*
%TO.C,LS1*%
X158513300Y-96313000D03*
D18*
X158513300Y-91313000D03*
%TD*%
D19*
%TO.C,C8*%
X150980300Y-112389200D03*
D20*
X148480300Y-112389200D03*
%TD*%
D21*
%TO.C,D1*%
X143400300Y-104013000D03*
D22*
X145940300Y-104013000D03*
X148480300Y-104013000D03*
X151020300Y-104013000D03*
%TD*%
D23*
%TO.C,BT1*%
X95682000Y-114310600D03*
D24*
X97282000Y-112710600D03*
D25*
X97282000Y-110210600D03*
%TD*%
D26*
%TO.C,J1*%
X101939000Y-98179500D03*
D18*
X101939000Y-103179500D03*
%TD*%
M02*
